<?xml version="1.0" encoding="utf-8"?>
<!-- Generator: Adobe Illustrator 26.0.1, SVG Export Plug-In . SVG Version: 6.00 Build 0)  -->
<svg version="1.1" id="Layer_1" xmlns="http://www.w3.org/2000/svg" xmlns:xlink="http://www.w3.org/1999/xlink" x="0px" y="0px"
	 viewBox="0 0 512 512" style="enable-background:new 0 0 512 512;" xml:space="preserve">
<style type="text/css">
	.st0{fill:#FFFFFF;}
	.st1{fill:#FF077F;}
	.st2{fill:#00F780;}
	.st3{fill:#DFFF0D;}
</style>
<g>
	<path class="st0" d="M349.1,95.5H162v296.7h187.1V95.5z"/>
	<path d="M336.6,148.4l54.8,55.1l-54.8,55l6.9,7l61.8-62l-61.8-62L336.6,148.4z"/>
	<path d="M167.5,141.5l-61.8,62l61.8,62l7-7l-54.9-55l54.9-55.1L167.5,141.5z"/>
	<path class="st0" d="M185.1,217.9H162v101.7h23.1V217.9z"/>
	<path class="st0" d="M349.1,217.9H326v101.7h23.1V217.9z"/>
	<path d="M230.9,392.3V511h9.8V392.3"/>
	<path d="M270.3,392.3V511h9.8V392.3"/>
	<g>
		<rect x="347.1" y="125.3" width="14.1" height="14.1"/>
		<rect x="347.1" y="111.2" width="14.1" height="14.1"/>
		<rect x="347.1" y="97.2" width="14.1" height="14.1"/>
		<rect x="347.1" y="84.5" width="14.1" height="12.7"/>
		<rect x="347.1" y="70.4" width="14.1" height="14.1"/>
		<rect x="347.1" y="56.3" width="14.1" height="14.1"/>
		<rect x="333" y="139.4" width="14.1" height="14.1"/>
		<rect x="333" y="125.3" class="st1" width="14.1" height="14.1"/>
		<rect x="333" y="111.2" class="st1" width="14.1" height="14.1"/>
		<rect x="333" y="97.2" class="st1" width="14.1" height="14.1"/>
		<rect x="333" y="84.5" class="st1" width="14.1" height="12.7"/>
		<rect x="333" y="70.4" class="st1" width="14.1" height="14.1"/>
		<rect x="333" y="56.3" class="st1" width="14.1" height="14.1"/>
		<rect x="333" y="42.2" width="14.1" height="14.1"/>
		<rect x="318.9" y="223.9" width="14.1" height="14.1"/>
		<rect x="318.9" y="209.8" width="14.1" height="14.1"/>
		<rect x="318.9" y="195.7" width="14.1" height="14.1"/>
		<rect x="318.9" y="181.7" width="14.1" height="14.1"/>
		<rect x="318.9" y="167.6" width="14.1" height="14.1"/>
		<rect x="318.9" y="153.5" width="14.1" height="14.1"/>
		<rect x="318.9" y="139.4" class="st1" width="14.1" height="14.1"/>
		<rect x="318.9" y="125.3" width="14.1" height="14.1"/>
		<rect x="318.9" y="111.2" width="14.1" height="14.1"/>
		<rect x="318.9" y="97.2" width="14.1" height="14.1"/>
		<rect x="318.9" y="84.5" class="st2" width="14.1" height="12.7"/>
		<rect x="318.9" y="70.4" class="st2" width="14.1" height="14.1"/>
		<rect x="318.9" y="56.3" class="st1" width="14.1" height="14.1"/>
		<rect x="318.9" y="42.2" class="st1" width="14.1" height="14.1"/>
		<rect x="318.9" y="28.2" width="14.1" height="14.1"/>
		<rect x="304.8" y="238" width="14.1" height="14.1"/>
		<rect x="304.8" y="223.9" class="st1" width="14.1" height="14.1"/>
		<rect x="304.8" y="209.8" width="14.1" height="14.1"/>
		<rect x="304.8" y="195.7" class="st2" width="14.1" height="14.1"/>
		<rect x="304.8" y="181.7" width="14.1" height="14.1"/>
		<rect x="304.8" y="167.6" class="st1" width="14.1" height="14.1"/>
		<rect x="304.8" y="153.5" class="st1" width="14.1" height="14.1"/>
		<rect x="304.8" y="139.4" width="14.1" height="14.1"/>
		<rect x="304.8" y="125.3" width="14.1" height="14.1"/>
		<rect x="304.8" y="111.2" width="14.1" height="14.1"/>
		<rect x="304.8" y="97.2" width="14.1" height="14.1"/>
		<rect x="304.8" y="84.5" class="st2" width="14.1" height="12.7"/>
		<rect x="304.8" y="70.4" class="st2" width="14.1" height="14.1"/>
		<rect x="304.8" y="56.3" class="st2" width="14.1" height="14.1"/>
		<rect x="304.8" y="42.2" class="st1" width="14.1" height="14.1"/>
		<rect x="304.8" y="28.2" class="st1" width="14.1" height="14.1"/>
		<rect x="304.8" y="14.1" width="14.1" height="14.1"/>
		<rect x="290.8" y="252.1" width="14.1" height="14.1"/>
		<rect x="290.8" y="238" width="14.1" height="14.1"/>
		<rect x="290.8" y="223.9" width="14.1" height="14.1"/>
		<rect x="290.8" y="209.8" class="st2" width="14.1" height="14.1"/>
		<rect x="290.8" y="195.7" width="14.1" height="14.1"/>
		<rect x="290.8" y="181.7" class="st1" width="14.1" height="14.1"/>
		<rect x="290.8" y="167.6" class="st1" width="14.1" height="14.1"/>
		<rect x="290.8" y="153.5" class="st2" width="14.1" height="14.1"/>
		<rect x="290.8" y="139.4" width="14.1" height="14.1"/>
		<rect x="290.8" y="125.3" width="14.1" height="14.1"/>
		<rect x="290.8" y="111.2" width="14.1" height="14.1"/>
		<rect x="290.8" y="97.2" width="14.1" height="14.1"/>
		<rect x="290.8" y="84.5" class="st2" width="14.1" height="12.7"/>
		<rect x="290.8" y="70.4" class="st2" width="14.1" height="14.1"/>
		<rect x="290.8" y="56.3" class="st2" width="14.1" height="14.1"/>
		<rect x="290.8" y="42.2" class="st2" width="14.1" height="14.1"/>
		<rect x="290.8" y="28.2" class="st2" width="14.1" height="14.1"/>
		<rect x="290.8" y="14.1" class="st1" width="14.1" height="14.1"/>
		<rect x="290.8" width="14.1" height="14.1"/>
		<rect x="276.7" y="266.1" width="14.1" height="14.1"/>
		<rect x="276.7" y="252.1" class="st1" width="14.1" height="14.1"/>
		<rect x="276.7" y="238" width="14.1" height="14.1"/>
		<rect x="276.7" y="223.9" class="st2" width="14.1" height="14.1"/>
		<rect x="276.7" y="209.8" width="14.1" height="14.1"/>
		<rect x="276.7" y="195.7" width="14.1" height="14.1"/>
		<rect x="276.7" y="181.7" class="st1" width="14.1" height="14.1"/>
		<rect x="276.7" y="167.6" class="st2" width="14.1" height="14.1"/>
		<rect x="276.7" y="153.5" class="st2" width="14.1" height="14.1"/>
		<rect x="276.7" y="139.4" class="st2" width="14.1" height="14.1"/>
		<rect x="276.7" y="125.3" width="14.1" height="14.1"/>
		<rect x="276.7" y="111.2" width="14.1" height="14.1"/>
		<rect x="276.7" y="97.2" class="st2" width="14.1" height="14.1"/>
		<rect x="276.7" y="84.5" class="st2" width="14.1" height="12.7"/>
		<rect x="276.7" y="70.4" class="st2" width="14.1" height="14.1"/>
		<rect x="276.7" y="56.3" class="st2" width="14.1" height="14.1"/>
		<rect x="276.7" y="42.2" class="st2" width="14.1" height="14.1"/>
		<rect x="276.7" y="28.2" class="st2" width="14.1" height="14.1"/>
		<rect x="276.7" y="14.1" class="st2" width="14.1" height="14.1"/>
		<rect x="276.7" width="14.1" height="14.1"/>
		<rect x="262.6" y="266.1" width="14.1" height="14.1"/>
		<rect x="262.6" y="252.1" class="st2" width="14.1" height="14.1"/>
		<rect x="262.6" y="238" width="14.1" height="14.1"/>
		<rect x="262.6" y="223.9" width="14.1" height="14.1"/>
		<rect x="262.6" y="209.8" class="st2" width="14.1" height="14.1"/>
		<rect x="262.6" y="195.7" width="14.1" height="14.1"/>
		<rect x="262.6" y="181.7" class="st1" width="14.1" height="14.1"/>
		<rect x="262.6" y="167.6" width="14.1" height="14.1"/>
		<rect x="262.6" y="153.5" width="14.1" height="14.1"/>
		<rect x="262.6" y="139.4" class="st2" width="14.1" height="14.1"/>
		<rect x="262.6" y="125.3" class="st2" width="14.1" height="14.1"/>
		<rect x="262.6" y="111.2" class="st2" width="14.1" height="14.1"/>
		<rect x="262.6" y="97.2" class="st2" width="14.1" height="14.1"/>
		<rect x="262.6" y="84.5" class="st2" width="14.1" height="12.7"/>
		<rect x="262.6" y="70.4" class="st2" width="14.1" height="14.1"/>
		<rect x="262.6" y="56.3" class="st2" width="14.1" height="14.1"/>
		<rect x="262.6" y="42.2" class="st3" width="14.1" height="14.1"/>
		<rect x="262.6" y="28.2" class="st2" width="14.1" height="14.1"/>
		<rect x="262.6" y="14.1" class="st2" width="14.1" height="14.1"/>
		<rect x="262.6" width="14.1" height="14.1"/>
		<rect x="248.5" y="266.1" width="14.1" height="14.1"/>
		<rect x="248.5" y="252.1" class="st2" width="14.1" height="14.1"/>
		<rect x="248.5" y="238" width="14.1" height="14.1"/>
		<rect x="248.5" y="223.9" class="st2" width="14.1" height="14.1"/>
		<rect x="248.5" y="209.8" width="14.1" height="14.1"/>
		<rect x="248.5" y="195.7" width="14.1" height="14.1"/>
		<rect x="248.5" y="181.7" class="st1" width="14.1" height="14.1"/>
		<rect x="248.5" y="167.6" width="14.1" height="14.1"/>
		<rect x="248.5" y="153.5" width="14.1" height="14.1"/>
		<rect x="248.5" y="139.4" width="14.1" height="14.1"/>
		<rect x="248.5" y="125.3" width="14.1" height="14.1"/>
		<rect x="248.5" y="111.2" class="st2" width="14.1" height="14.1"/>
		<rect x="248.5" y="97.2" class="st2" width="14.1" height="14.1"/>
		<rect x="248.5" y="84.5" class="st2" width="14.1" height="12.7"/>
		<rect x="248.5" y="70.4" class="st3" width="14.1" height="14.1"/>
		<rect x="248.5" y="56.3" class="st3" width="14.1" height="14.1"/>
		<rect x="248.5" y="42.2" class="st3" width="14.1" height="14.1"/>
		<rect x="248.5" y="28.2" class="st3" width="14.1" height="14.1"/>
		<rect x="248.5" y="14.1" class="st2" width="14.1" height="14.1"/>
		<rect x="248.5" width="14.1" height="14.1"/>
		<rect x="234.4" y="266.1" width="14.1" height="14.1"/>
		<rect x="234.4" y="252.1" class="st2" width="14.1" height="14.1"/>
		<rect x="234.4" y="238" width="14.1" height="14.1"/>
		<rect x="234.4" y="223.9" width="14.1" height="14.1"/>
		<rect x="234.4" y="209.8" class="st2" width="14.1" height="14.1"/>
		<rect x="234.4" y="195.7" width="14.1" height="14.1"/>
		<rect x="234.4" y="181.7" class="st1" width="14.1" height="14.1"/>
		<rect x="234.4" y="167.6" width="14.1" height="14.1"/>
		<rect x="234.4" y="153.5" width="14.1" height="14.1"/>
		<rect x="234.4" y="139.4" class="st2" width="14.1" height="14.1"/>
		<rect x="234.4" y="125.3" class="st2" width="14.1" height="14.1"/>
		<rect x="234.4" y="111.2" class="st2" width="14.1" height="14.1"/>
		<rect x="234.4" y="97.2" class="st2" width="14.1" height="14.1"/>
		<rect x="234.4" y="84.5" class="st3" width="14.1" height="12.7"/>
		<rect x="234.4" y="70.4" class="st3" width="14.1" height="14.1"/>
		<rect x="234.4" y="56.3" class="st0" width="14.1" height="14.1"/>
		<rect x="234.4" y="42.2" class="st3" width="14.1" height="14.1"/>
		<rect x="234.4" y="28.2" class="st3" width="14.1" height="14.1"/>
		<rect x="234.4" y="14.1" class="st2" width="14.1" height="14.1"/>
		<rect x="234.4" width="14.1" height="14.1"/>
		<rect x="220.3" y="266.1" width="14.1" height="14.1"/>
		<rect x="220.3" y="252.1" class="st1" width="14.1" height="14.1"/>
		<rect x="220.3" y="238" width="14.1" height="14.1"/>
		<rect x="220.3" y="223.9" class="st2" width="14.1" height="14.1"/>
		<rect x="220.3" y="209.8" width="14.1" height="14.1"/>
		<rect x="220.3" y="195.7" width="14.1" height="14.1"/>
		<rect x="220.3" y="181.7" class="st1" width="14.1" height="14.1"/>
		<rect x="220.3" y="167.6" class="st2" width="14.1" height="14.1"/>
		<rect x="220.3" y="153.5" class="st2" width="14.1" height="14.1"/>
		<rect x="220.3" y="139.4" class="st2" width="14.1" height="14.1"/>
		<rect x="220.3" y="125.3" width="14.1" height="14.1"/>
		<rect x="220.3" y="111.2" width="14.1" height="14.1"/>
		<rect x="220.3" y="97.2" class="st3" width="14.1" height="14.1"/>
		<rect x="220.3" y="84.5" class="st3" width="14.1" height="12.7"/>
		<rect x="220.3" y="70.4" class="st0" width="14.1" height="14.1"/>
		<rect x="220.3" y="56.3" class="st0" width="14.1" height="14.1"/>
		<rect x="220.3" y="42.2" class="st3" width="14.1" height="14.1"/>
		<rect x="220.3" y="28.2" class="st2" width="14.1" height="14.1"/>
		<rect x="220.3" y="14.1" class="st2" width="14.1" height="14.1"/>
		<rect x="220.3" width="14.1" height="14.1"/>
		<rect x="206.3" y="252.1" width="14.1" height="14.1"/>
		<rect x="206.3" y="238" width="14.1" height="14.1"/>
		<rect x="206.3" y="223.9" width="14.1" height="14.1"/>
		<rect x="206.3" y="209.8" class="st2" width="14.1" height="14.1"/>
		<rect x="206.3" y="195.7" width="14.1" height="14.1"/>
		<rect x="206.3" y="181.7" class="st1" width="14.1" height="14.1"/>
		<rect x="206.3" y="167.6" class="st1" width="14.1" height="14.1"/>
		<rect x="206.3" y="153.5" class="st2" width="14.1" height="14.1"/>
		<rect x="206.3" y="139.4" width="14.1" height="14.1"/>
		<rect x="206.3" y="125.3" width="14.1" height="14.1"/>
		<rect x="206.3" y="111.2" width="14.1" height="14.1"/>
		<rect x="206.3" y="97.2" width="14.1" height="14.1"/>
		<rect x="206.3" y="84.5" class="st0" width="14.1" height="12.7"/>
		<rect x="206.3" y="70.4" class="st0" width="14.1" height="14.1"/>
		<rect x="206.3" y="56.3" class="st0" width="14.1" height="14.1"/>
		<rect x="206.3" y="42.2" class="st3" width="14.1" height="14.1"/>
		<rect x="206.3" y="28.2" class="st2" width="14.1" height="14.1"/>
		<rect x="206.3" y="14.1" class="st2" width="14.1" height="14.1"/>
		<rect x="206.3" width="14.1" height="14.1"/>
		<rect x="192.2" y="238" width="14.1" height="14.1"/>
		<rect x="192.2" y="223.9" class="st1" width="14.1" height="14.1"/>
		<rect x="192.2" y="209.8" width="14.1" height="14.1"/>
		<rect x="192.2" y="195.7" class="st2" width="14.1" height="14.1"/>
		<rect x="192.2" y="181.7" width="14.1" height="14.1"/>
		<rect x="192.2" y="167.6" class="st1" width="14.1" height="14.1"/>
		<rect x="192.2" y="153.5" class="st1" width="14.1" height="14.1"/>
		<rect x="192.2" y="139.4" width="14.1" height="14.1"/>
		<rect x="192.2" y="125.3" width="14.1" height="14.1"/>
		<rect x="192.2" y="111.2" width="14.1" height="14.1"/>
		<rect x="192.2" y="97.2" width="14.1" height="14.1"/>
		<rect x="192.2" y="84.5" class="st0" width="14.1" height="12.7"/>
		<rect x="192.2" y="70.4" class="st0" width="14.1" height="14.1"/>
		<rect x="192.2" y="56.3" class="st3" width="14.1" height="14.1"/>
		<rect x="192.2" y="42.2" class="st2" width="14.1" height="14.1"/>
		<rect x="192.2" y="28.2" class="st2" width="14.1" height="14.1"/>
		<rect x="192.2" y="14.1" width="14.1" height="14.1"/>
		<rect x="178.1" y="223.9" width="14.1" height="14.1"/>
		<rect x="178.1" y="209.8" width="14.1" height="14.1"/>
		<rect x="178.1" y="195.7" width="14.1" height="14.1"/>
		<rect x="178.1" y="181.7" width="14.1" height="14.1"/>
		<rect x="178.1" y="167.6" width="14.1" height="14.1"/>
		<rect x="178.1" y="153.5" width="14.1" height="14.1"/>
		<rect x="178.1" y="139.4" class="st1" width="14.1" height="14.1"/>
		<rect x="178.1" y="125.3" width="14.1" height="14.1"/>
		<rect x="178.1" y="111.2" width="14.1" height="14.1"/>
		<rect x="178.1" y="97.2" width="14.1" height="14.1"/>
		<rect x="178.1" y="84.5" class="st3" width="14.1" height="12.7"/>
		<rect x="178.1" y="70.4" class="st3" width="14.1" height="14.1"/>
		<rect x="178.1" y="56.3" class="st2" width="14.1" height="14.1"/>
		<rect x="178.1" y="42.2" class="st2" width="14.1" height="14.1"/>
		<rect x="178.1" y="28.2" width="14.1" height="14.1"/>
		<rect x="164" y="139.4" width="14.1" height="14.1"/>
		<rect x="164" y="125.3" class="st1" width="14.1" height="14.1"/>
		<rect x="164" y="111.2" class="st2" width="14.1" height="14.1"/>
		<rect x="164" y="97.2" class="st2" width="14.1" height="14.1"/>
		<rect x="164" y="84.5" class="st2" width="14.1" height="12.7"/>
		<rect x="164" y="70.4" class="st2" width="14.1" height="14.1"/>
		<rect x="164" y="56.3" class="st2" width="14.1" height="14.1"/>
		<rect x="164" y="42.2" width="14.1" height="14.1"/>
		<rect x="149.9" y="125.3" width="14.1" height="14.1"/>
		<rect x="149.9" y="111.2" width="14.1" height="14.1"/>
		<rect x="149.9" y="97.2" width="14.1" height="14.1"/>
		<rect x="149.9" y="84.5" width="14.1" height="12.7"/>
		<rect x="149.9" y="70.4" width="14.1" height="14.1"/>
		<rect x="149.9" y="56.3" width="14.1" height="14.1"/>
	</g>
</g>
</svg>
