<?xml version="1.0" encoding="utf-8"?>
<!-- Generator: Adobe Illustrator 26.0.1, SVG Export Plug-In . SVG Version: 6.00 Build 0)  -->
<svg version="1.1" id="Layer_1" xmlns="http://www.w3.org/2000/svg" xmlns:xlink="http://www.w3.org/1999/xlink" x="0px" y="0px"
	 viewBox="0 0 512 512" style="enable-background:new 0 0 512 512;" xml:space="preserve">
<style type="text/css">
	.st0{fill:none;}
	.st1{fill:#FFBF00;}
	.st2{fill:#FFFFFF;}
	.st3{fill:#D48200;}
	.st4{fill:url(#SVGID_1_);}
	.st5{fill:#383838;}
	.st6{fill:#FFC800;}
	.st7{fill:#D9D9D9;}
	.st8{fill:#E8E8E8;}
</style>
<pattern  width="9" height="10" patternUnits="userSpaceOnUse" id="New_Pattern_Swatch_1" viewBox="0 -10 9 10" style="overflow:visible;">
	<g>
		<rect y="-10" class="st0" width="9" height="10"/>
		<rect x="2.6" y="-6.9" width="3.8" height="3.8"/>
	</g>
</pattern>
<g>
	<rect x="502.4" y="312.3" width="8.1" height="8.1"/>
	<rect x="502.4" y="304.2" width="8.1" height="8.1"/>
	<rect x="502.4" y="296" width="8.1" height="8.1"/>
	<rect x="502.4" y="287.9" width="8.1" height="8.1"/>
	<rect x="502.4" y="279.8" width="8.1" height="8.1"/>
	<rect x="502.4" y="271.7" width="8.1" height="8.1"/>
	<rect x="502.4" y="263.6" width="8.1" height="8.1"/>
	<rect x="494.3" y="320.4" width="8.1" height="8.1"/>
	<rect x="494.3" y="312.3" class="st1" width="8.1" height="8.1"/>
	<rect x="494.3" y="304.2" class="st2" width="8.1" height="8.1"/>
	<rect x="494.3" y="296" class="st1" width="8.1" height="8.1"/>
	<rect x="494.3" y="287.9" class="st1" width="8.1" height="8.1"/>
	<rect x="494.3" y="279.8" class="st1" width="8.1" height="8.1"/>
	<rect x="494.3" y="271.7" class="st1" width="8.1" height="8.1"/>
	<rect x="494.3" y="263.6" class="st1" width="8.1" height="8.1"/>
	<rect x="494.3" y="255.5" width="8.1" height="8.1"/>
	<rect x="486.2" y="328.5" width="8.1" height="8.1"/>
	<rect x="486.2" y="320.4" class="st1" width="8.1" height="8.1"/>
	<rect x="486.2" y="312.3" class="st2" width="8.1" height="8.1"/>
	<rect x="486.2" y="304.2" class="st1" width="8.1" height="8.1"/>
	<rect x="486.2" y="296" class="st3" width="8.1" height="8.1"/>
	<rect x="486.2" y="287.9" class="st3" width="8.1" height="8.1"/>
	<rect x="486.2" y="279.8" class="st3" width="8.1" height="8.1"/>
	<rect x="486.2" y="271.7" class="st3" width="8.1" height="8.1"/>
	<rect x="486.2" y="263.6" class="st1" width="8.1" height="8.1"/>
	<rect x="486.2" y="255.5" class="st1" width="8.1" height="8.1"/>
	<rect x="486.2" y="247.4" width="8.1" height="8.1"/>
	<rect x="478.1" y="328.5" width="8.1" height="8.1"/>
	<rect x="478.1" y="320.4" width="8.1" height="8.1"/>
	<rect x="478.1" y="312.3" class="st1" width="8.1" height="8.1"/>
	<rect x="478.1" y="304.2" class="st1" width="8.1" height="8.1"/>
	<rect x="478.1" y="296" class="st1" width="8.1" height="8.1"/>
	<rect x="478.1" y="287.9" class="st1" width="8.1" height="8.1"/>
	<rect x="478.1" y="279.8" class="st1" width="8.1" height="8.1"/>
	<rect x="478.1" y="271.7" class="st1" width="8.1" height="8.1"/>
	<rect x="478.1" y="263.6" class="st1" width="8.1" height="8.1"/>
	<rect x="478.1" y="255.5" width="8.1" height="8.1"/>
	<rect x="478.1" y="247.4" width="8.1" height="8.1"/>
	<rect x="470" y="328.5" width="8.1" height="8.1"/>
	<rect x="470" y="320.4" class="st1" width="8.1" height="8.1"/>
	<rect x="470" y="312.3" width="8.1" height="8.1"/>
	<rect x="470" y="304.2" width="8.1" height="8.1"/>
	<rect x="470" y="296" width="8.1" height="8.1"/>
	<rect x="470" y="287.9" width="8.1" height="8.1"/>
	<rect x="470" y="279.8" width="8.1" height="8.1"/>
	<rect x="470" y="271.7" width="8.1" height="8.1"/>
	<rect x="470" y="263.6" width="8.1" height="8.1"/>
	<rect x="470" y="255.5" class="st1" width="8.1" height="8.1"/>
	<rect x="470" y="247.4" width="8.1" height="8.1"/>
	<rect x="461.9" y="320.4" width="8.1" height="8.1"/>
	<rect x="461.9" y="312.3" class="st1" width="8.1" height="8.1"/>
	<rect x="461.9" y="304.2" class="st1" width="8.1" height="8.1"/>
	<rect x="461.9" y="296" class="st1" width="8.1" height="8.1"/>
	<rect x="461.9" y="287.9" class="st1" width="8.1" height="8.1"/>
	<rect x="461.9" y="279.8" class="st2" width="8.1" height="8.1"/>
	<rect x="461.9" y="271.7" class="st2" width="8.1" height="8.1"/>
	<rect x="461.9" y="263.6" class="st1" width="8.1" height="8.1"/>
	<rect x="461.9" y="255.5" width="8.1" height="8.1"/>
	<rect x="453.8" y="312.3" width="8.1" height="8.1"/>
	<rect x="453.8" y="304.2" width="8.1" height="8.1"/>
	<rect x="453.8" y="296" width="8.1" height="8.1"/>
	<rect x="453.8" y="287.9" width="8.1" height="8.1"/>
	<rect x="453.8" y="279.8" width="8.1" height="8.1"/>
	<rect x="453.8" y="271.7" width="8.1" height="8.1"/>
	<rect x="453.8" y="263.6" width="8.1" height="8.1"/>
</g>
<g>
	<rect x="436.8" y="242.4" width="8.1" height="8.1"/>
	<rect x="436.8" y="234.2" width="8.1" height="8.1"/>
	<rect x="436.8" y="226.1" width="8.1" height="8.1"/>
	<rect x="436.8" y="218" width="8.1" height="8.1"/>
	<rect x="436.8" y="209.9" width="8.1" height="8.1"/>
	<rect x="436.8" y="201.8" width="8.1" height="8.1"/>
	<rect x="436.8" y="193.7" width="8.1" height="8.1"/>
	<rect x="444.9" y="250.5" width="8.1" height="8.1"/>
	<rect x="444.9" y="242.4" class="st1" width="8.1" height="8.1"/>
	<rect x="444.9" y="234.2" class="st2" width="8.1" height="8.1"/>
	<rect x="444.9" y="226.1" class="st1" width="8.1" height="8.1"/>
	<rect x="444.9" y="218" class="st1" width="8.1" height="8.1"/>
	<rect x="444.9" y="209.9" class="st1" width="8.1" height="8.1"/>
	<rect x="444.9" y="201.8" class="st1" width="8.1" height="8.1"/>
	<rect x="444.9" y="193.7" class="st1" width="8.1" height="8.1"/>
	<rect x="444.9" y="185.6" width="8.1" height="8.1"/>
	<rect x="453" y="258.6" width="8.1" height="8.1"/>
	<rect x="453" y="250.5" class="st1" width="8.1" height="8.1"/>
	<rect x="453" y="242.4" class="st2" width="8.1" height="8.1"/>
	<rect x="453" y="234.2" class="st1" width="8.1" height="8.1"/>
	<rect x="453" y="226.1" class="st3" width="8.1" height="8.1"/>
	<rect x="453" y="218" class="st3" width="8.1" height="8.1"/>
	<rect x="453" y="209.9" class="st3" width="8.1" height="8.1"/>
	<rect x="453" y="201.8" class="st3" width="8.1" height="8.1"/>
	<rect x="453" y="193.7" class="st1" width="8.1" height="8.1"/>
	<rect x="453" y="185.6" class="st1" width="8.1" height="8.1"/>
	<rect x="453" y="177.5" width="8.1" height="8.1"/>
	<rect x="461.1" y="258.6" width="8.1" height="8.1"/>
	<rect x="461.1" y="250.5" width="8.1" height="8.1"/>
	<rect x="461.1" y="242.4" class="st1" width="8.1" height="8.1"/>
	<rect x="461.1" y="234.2" class="st1" width="8.1" height="8.1"/>
	<rect x="461.1" y="226.1" class="st1" width="8.1" height="8.1"/>
	<rect x="461.1" y="218" class="st1" width="8.1" height="8.1"/>
	<rect x="461.1" y="209.9" class="st1" width="8.1" height="8.1"/>
	<rect x="461.1" y="201.8" class="st1" width="8.1" height="8.1"/>
	<rect x="461.1" y="193.7" class="st1" width="8.1" height="8.1"/>
	<rect x="461.1" y="185.6" width="8.1" height="8.1"/>
	<rect x="461.1" y="177.5" width="8.1" height="8.1"/>
	<rect x="469.2" y="258.6" width="8.1" height="8.1"/>
	<rect x="469.2" y="250.5" class="st1" width="8.1" height="8.1"/>
	<rect x="469.2" y="242.4" width="8.1" height="8.1"/>
	<rect x="469.2" y="234.2" width="8.1" height="8.1"/>
	<rect x="469.2" y="226.1" width="8.1" height="8.1"/>
	<rect x="469.2" y="218" width="8.1" height="8.1"/>
	<rect x="469.2" y="209.9" width="8.1" height="8.1"/>
	<rect x="469.2" y="201.8" width="8.1" height="8.1"/>
	<rect x="469.2" y="193.7" width="8.1" height="8.1"/>
	<rect x="469.2" y="185.6" class="st1" width="8.1" height="8.1"/>
	<rect x="469.2" y="177.5" width="8.1" height="8.1"/>
	<rect x="477.3" y="250.5" width="8.1" height="8.1"/>
	<rect x="477.3" y="242.4" class="st1" width="8.1" height="8.1"/>
	<rect x="477.3" y="234.2" class="st1" width="8.1" height="8.1"/>
	<rect x="477.3" y="226.1" class="st1" width="8.1" height="8.1"/>
	<rect x="477.3" y="218" class="st1" width="8.1" height="8.1"/>
	<rect x="477.3" y="209.9" class="st2" width="8.1" height="8.1"/>
	<rect x="477.3" y="201.8" class="st2" width="8.1" height="8.1"/>
	<rect x="477.3" y="193.7" class="st1" width="8.1" height="8.1"/>
	<rect x="477.3" y="185.6" width="8.1" height="8.1"/>
	<rect x="485.4" y="242.4" width="8.1" height="8.1"/>
	<rect x="485.4" y="234.2" width="8.1" height="8.1"/>
	<rect x="485.4" y="226.1" width="8.1" height="8.1"/>
	<rect x="485.4" y="218" width="8.1" height="8.1"/>
	<rect x="485.4" y="209.9" width="8.1" height="8.1"/>
	<rect x="485.4" y="201.8" width="8.1" height="8.1"/>
	<rect x="485.4" y="193.7" width="8.1" height="8.1"/>
</g>
<g>
	<rect x="403.2" y="350.3" width="6.4" height="7.1"/>
	<rect x="403.2" y="343.2" width="6.4" height="7.1"/>
	<rect x="403.2" y="336.1" width="6.4" height="7.1"/>
	<rect x="403.2" y="329" width="6.4" height="7.1"/>
	<rect x="403.2" y="322" width="6.4" height="7.1"/>
	<rect x="409.6" y="357.4" width="7.1" height="7.1"/>
	<rect x="409.6" y="350.3" class="st1" width="7.1" height="7.1"/>
	<rect x="409.6" y="343.2" class="st1" width="7.1" height="7.1"/>
	<rect x="409.6" y="336.1" class="st1" width="7.1" height="7.1"/>
	<rect x="409.6" y="329" class="st1" width="7.1" height="7.1"/>
	<rect x="409.6" y="322" class="st1" width="7.1" height="7.1"/>
	<rect x="409.6" y="314.9" width="7.1" height="7.1"/>
	<rect x="416.6" y="364.5" width="7.1" height="7.1"/>
	<rect x="416.6" y="357.4" class="st1" width="7.1" height="7.1"/>
	<rect x="416.6" y="350.3" class="st1" width="7.1" height="7.1"/>
	<rect x="416.6" y="343.2" class="st2" width="7.1" height="7.1"/>
	<rect x="416.6" y="336.1" class="st1" width="7.1" height="7.1"/>
	<rect x="416.6" y="329" class="st1" width="7.1" height="7.1"/>
	<rect x="416.6" y="322" class="st3" width="7.1" height="7.1"/>
	<rect x="416.6" y="314.9" class="st1" width="7.1" height="7.1"/>
	<rect x="416.6" y="307.8" width="7.1" height="7.1"/>
	<rect x="423.7" y="371.6" width="7.1" height="7.1"/>
	<rect x="423.7" y="364.5" class="st1" width="7.1" height="7.1"/>
	<rect x="423.7" y="357.4" class="st1" width="7.1" height="7.1"/>
	<rect x="423.7" y="350.3" class="st2" width="7.1" height="7.1"/>
	<rect x="423.7" y="343.2" class="st1" width="7.1" height="7.1"/>
	<rect x="423.7" y="336.1" class="st3" width="7.1" height="7.1"/>
	<rect x="423.7" y="329" class="st1" width="7.1" height="7.1"/>
	<rect x="423.7" y="322" class="st3" width="7.1" height="7.1"/>
	<rect x="423.7" y="314.9" class="st3" width="7.1" height="7.1"/>
	<rect x="423.7" y="307.8" class="st1" width="7.1" height="7.1"/>
	<rect x="423.7" y="300.7" width="7.1" height="7.1"/>
	<rect x="430.8" y="371.6" width="7.1" height="7.1"/>
	<rect x="430.8" y="364.5" class="st1" width="7.1" height="7.1"/>
	<rect x="430.8" y="357.4" class="st1" width="7.1" height="7.1"/>
	<rect x="430.8" y="350.3" class="st1" width="7.1" height="7.1"/>
	<rect x="430.8" y="343.2" class="st1" width="7.1" height="7.1"/>
	<rect x="430.8" y="336.1" class="st1" width="7.1" height="7.1"/>
	<rect x="430.8" y="329" class="st3" width="7.1" height="7.1"/>
	<rect x="430.8" y="322" class="st3" width="7.1" height="7.1"/>
	<rect x="430.8" y="314.9" class="st2" width="7.1" height="7.1"/>
	<rect x="430.8" y="307.8" class="st1" width="7.1" height="7.1"/>
	<rect x="430.8" y="300.7" width="7.1" height="7.1"/>
	<rect x="437.9" y="371.6" width="7.1" height="7.1"/>
	<rect x="437.9" y="364.5" width="7.1" height="7.1"/>
	<rect x="437.9" y="357.4" class="st1" width="7.1" height="7.1"/>
	<rect x="437.9" y="350.3" class="st1" width="7.1" height="7.1"/>
	<rect x="437.9" y="343.2" class="st3" width="7.1" height="7.1"/>
	<rect x="437.9" y="336.1" class="st3" width="7.1" height="7.1"/>
	<rect x="437.9" y="329" class="st3" width="7.1" height="7.1"/>
	<rect x="437.9" y="322" class="st2" width="7.1" height="7.1"/>
	<rect x="437.9" y="314.9" class="st1" width="7.1" height="7.1"/>
	<rect x="437.9" y="307.8" width="7.1" height="7.1"/>
	<rect x="437.9" y="300.7" width="7.1" height="7.1"/>
	<rect x="445" y="371.6" width="7.1" height="7.1"/>
	<rect x="445" y="364.5" class="st1" width="7.1" height="7.1"/>
	<rect x="445" y="357.4" width="7.1" height="7.1"/>
	<rect x="445" y="350.3" class="st1" width="7.1" height="7.1"/>
	<rect x="445" y="343.2" class="st1" width="7.1" height="7.1"/>
	<rect x="445" y="336.1" class="st1" width="7.1" height="7.1"/>
	<rect x="445" y="329" class="st1" width="7.1" height="7.1"/>
	<rect x="445" y="322" class="st1" width="7.1" height="7.1"/>
	<rect x="445" y="314.9" width="7.1" height="7.1"/>
	<rect x="445" y="307.8" class="st1" width="7.1" height="7.1"/>
	<rect x="445" y="300.7" width="7.1" height="7.1"/>
	<rect x="452.1" y="364.5" width="7.1" height="7.1"/>
	<rect x="452.1" y="357.4" class="st1" width="7.1" height="7.1"/>
	<rect x="452.1" y="350.3" width="7.1" height="7.1"/>
	<rect x="452.1" y="343.2" width="7.1" height="7.1"/>
	<rect x="452.1" y="336.1" width="7.1" height="7.1"/>
	<rect x="452.1" y="329" width="7.1" height="7.1"/>
	<rect x="452.1" y="322" width="7.1" height="7.1"/>
	<rect x="452.1" y="314.9" class="st1" width="7.1" height="7.1"/>
	<rect x="452.1" y="307.8" width="7.1" height="7.1"/>
	<rect x="459.2" y="357.4" width="7.1" height="7.1"/>
	<rect x="459.2" y="350.3" class="st1" width="7.1" height="7.1"/>
	<rect x="459.2" y="343.2" class="st1" width="7.1" height="7.1"/>
	<rect x="459.2" y="336.1" class="st1" width="7.1" height="7.1"/>
	<rect x="459.2" y="329" class="st2" width="7.1" height="7.1"/>
	<rect x="459.2" y="322" class="st2" width="7.1" height="7.1"/>
	<rect x="459.2" y="314.9" width="7.1" height="7.1"/>
	<rect x="466.3" y="350.3" width="7.1" height="7.1"/>
	<rect x="466.3" y="343.2" width="7.1" height="7.1"/>
	<rect x="466.3" y="336.1" width="7.1" height="7.1"/>
	<rect x="466.3" y="329" width="7.1" height="7.1"/>
	<rect x="466.3" y="322" width="7.1" height="7.1"/>
</g>
<g>
	<rect x="407.2" y="280.6" width="11.3" height="11.3"/>
	<rect x="407.2" y="269.3" width="11.3" height="11.3"/>
	<rect x="407.2" y="258" width="11.3" height="11.3"/>
	<rect x="395.9" y="292" width="11.3" height="11.3"/>
	<rect x="395.9" y="280.6" class="st1" width="11.3" height="11.3"/>
	<rect x="395.9" y="269.3" class="st1" width="11.3" height="11.3"/>
	<rect x="395.9" y="258" class="st1" width="11.3" height="11.3"/>
	<rect x="395.9" y="246.6" width="11.3" height="11.3"/>
	<rect x="384.5" y="303.3" width="11.3" height="11.3"/>
	<rect x="384.5" y="292" class="st1" width="11.3" height="11.3"/>
	<rect x="384.5" y="280.6" class="st1" width="11.3" height="11.3"/>
	<rect x="384.5" y="269.3" class="st3" width="11.3" height="11.3"/>
	<rect x="384.5" y="258" class="st1" width="11.3" height="11.3"/>
	<rect x="384.5" y="246.6" class="st1" width="11.3" height="11.3"/>
	<rect x="384.5" y="235.3" width="11.3" height="11.3"/>
	<rect x="373.2" y="314.7" width="11.3" height="11.3"/>
	<rect x="373.2" y="303.3" class="st1" width="11.3" height="11.3"/>
	<rect x="373.2" y="292" class="st1" width="11.3" height="11.3"/>
	<rect x="373.2" y="280.6" class="st2" width="11.3" height="11.3"/>
	<rect x="373.2" y="269.3" class="st1" width="11.3" height="11.3"/>
	<rect x="373.2" y="258" class="st3" width="11.3" height="11.3"/>
	<rect x="373.2" y="246.6" class="st1" width="11.3" height="11.3"/>
	<rect x="373.2" y="235.3" class="st1" width="11.3" height="11.3"/>
	<rect x="373.2" y="223.9" width="11.3" height="11.3"/>
	<rect x="363" y="326" width="10.2" height="11.3"/>
	<rect x="363" y="314.7" class="st1" width="10.2" height="11.3"/>
	<rect x="363" y="303.3" class="st1" width="10.2" height="11.3"/>
	<rect x="363" y="292" class="st2" width="10.2" height="11.3"/>
	<rect x="363" y="280.6" class="st1" width="10.2" height="11.3"/>
	<rect x="363" y="269.3" class="st1" width="10.2" height="11.3"/>
	<rect x="363" y="258" class="st1" width="10.2" height="11.3"/>
	<rect x="363" y="246.6" class="st3" width="10.2" height="11.3"/>
	<rect x="363" y="235.3" class="st1" width="10.2" height="11.3"/>
	<rect x="363" y="223.9" class="st1" width="10.2" height="11.3"/>
	<rect x="363" y="212.6" width="10.2" height="11.3"/>
	<rect x="351.6" y="326" width="11.3" height="11.3"/>
	<rect x="351.6" y="314.7" class="st1" width="11.3" height="11.3"/>
	<rect x="351.6" y="303.3" class="st2" width="11.3" height="11.3"/>
	<rect x="351.6" y="292" class="st1" width="11.3" height="11.3"/>
	<rect x="351.6" y="280.6" class="st1" width="11.3" height="11.3"/>
	<rect x="351.6" y="269.3" class="st3" width="11.3" height="11.3"/>
	<rect x="351.6" y="258" class="st1" width="11.3" height="11.3"/>
	<rect x="351.6" y="246.6" class="st3" width="11.3" height="11.3"/>
	<rect x="351.6" y="235.3" class="st3" width="11.3" height="11.3"/>
	<rect x="351.6" y="223.9" class="st1" width="11.3" height="11.3"/>
	<rect x="351.6" y="212.6" width="11.3" height="11.3"/>
	<rect x="340.3" y="326" width="11.3" height="11.3"/>
	<rect x="340.3" y="314.7" class="st1" width="11.3" height="11.3"/>
	<rect x="340.3" y="303.3" class="st1" width="11.3" height="11.3"/>
	<rect x="340.3" y="292" class="st1" width="11.3" height="11.3"/>
	<rect x="340.3" y="280.6" class="st3" width="11.3" height="11.3"/>
	<rect x="340.3" y="269.3" class="st3" width="11.3" height="11.3"/>
	<rect x="340.3" y="258" class="st3" width="11.3" height="11.3"/>
	<rect x="340.3" y="246.6" class="st3" width="11.3" height="11.3"/>
	<rect x="340.3" y="235.3" class="st2" width="11.3" height="11.3"/>
	<rect x="340.3" y="223.9" class="st1" width="11.3" height="11.3"/>
	<rect x="340.3" y="212.6" width="11.3" height="11.3"/>
	<rect x="328.9" y="314.7" width="11.3" height="11.3"/>
	<rect x="328.9" y="303.3" class="st1" width="11.3" height="11.3"/>
	<rect x="328.9" y="292" class="st1" width="11.3" height="11.3"/>
	<rect x="328.9" y="280.6" class="st1" width="11.3" height="11.3"/>
	<rect x="328.9" y="269.3" class="st3" width="11.3" height="11.3"/>
	<rect x="328.9" y="258" class="st3" width="11.3" height="11.3"/>
	<rect x="328.9" y="246.6" class="st2" width="11.3" height="11.3"/>
	<rect x="328.9" y="235.3" class="st1" width="11.3" height="11.3"/>
	<rect x="328.9" y="223.9" width="11.3" height="11.3"/>
	<rect x="317.6" y="303.3" width="11.3" height="11.3"/>
	<rect x="317.6" y="292" class="st1" width="11.3" height="11.3"/>
	<rect x="317.6" y="280.6" class="st1" width="11.3" height="11.3"/>
	<rect x="317.6" y="269.3" class="st3" width="11.3" height="11.3"/>
	<rect x="317.6" y="258" class="st2" width="11.3" height="11.3"/>
	<rect x="317.6" y="246.6" class="st1" width="11.3" height="11.3"/>
	<rect x="317.6" y="235.3" width="11.3" height="11.3"/>
	<rect x="306.2" y="292" width="11.3" height="11.3"/>
	<rect x="306.2" y="280.6" class="st1" width="11.3" height="11.3"/>
	<rect x="306.2" y="269.3" class="st1" width="11.3" height="11.3"/>
	<rect x="306.2" y="258" class="st1" width="11.3" height="11.3"/>
	<rect x="306.2" y="246.6" width="11.3" height="11.3"/>
	<rect x="294.9" y="280.6" width="11.3" height="11.3"/>
	<rect x="294.9" y="269.3" width="11.3" height="11.3"/>
	<rect x="294.9" y="258" width="11.3" height="11.3"/>
</g>
<g>
	<rect x="389.9" y="212.9" width="8.7" height="9.7"/>
	<rect x="389.9" y="203.2" width="8.7" height="9.7"/>
	<rect x="389.9" y="193.5" width="8.7" height="9.7"/>
	<rect x="389.9" y="183.9" width="8.7" height="9.7"/>
	<rect x="389.9" y="174.2" width="8.7" height="9.7"/>
	<rect x="380.2" y="222.6" width="9.7" height="9.7"/>
	<rect x="380.2" y="212.9" class="st1" width="9.7" height="9.7"/>
	<rect x="380.2" y="203.2" class="st1" width="9.7" height="9.7"/>
	<rect x="380.2" y="193.5" class="st1" width="9.7" height="9.7"/>
	<rect x="380.2" y="183.9" class="st1" width="9.7" height="9.7"/>
	<rect x="380.2" y="174.2" class="st1" width="9.7" height="9.7"/>
	<rect x="380.2" y="164.5" width="9.7" height="9.7"/>
	<rect x="370.5" y="232.3" width="9.7" height="9.7"/>
	<rect x="370.5" y="222.6" class="st1" width="9.7" height="9.7"/>
	<rect x="370.5" y="212.9" class="st1" width="9.7" height="9.7"/>
	<rect x="370.5" y="203.2" class="st2" width="9.7" height="9.7"/>
	<rect x="370.5" y="193.5" class="st1" width="9.7" height="9.7"/>
	<rect x="370.5" y="183.9" class="st1" width="9.7" height="9.7"/>
	<rect x="370.5" y="174.2" class="st3" width="9.7" height="9.7"/>
	<rect x="370.5" y="164.5" class="st1" width="9.7" height="9.7"/>
	<rect x="370.5" y="154.8" width="9.7" height="9.7"/>
	<rect x="360.8" y="242" width="9.7" height="9.7"/>
	<rect x="360.8" y="232.3" class="st1" width="9.7" height="9.7"/>
	<rect x="360.8" y="222.6" class="st1" width="9.7" height="9.7"/>
	<rect x="360.8" y="212.9" class="st2" width="9.7" height="9.7"/>
	<rect x="360.8" y="203.2" class="st1" width="9.7" height="9.7"/>
	<rect x="360.8" y="193.5" class="st3" width="9.7" height="9.7"/>
	<rect x="360.8" y="183.9" class="st1" width="9.7" height="9.7"/>
	<rect x="360.8" y="174.2" class="st3" width="9.7" height="9.7"/>
	<rect x="360.8" y="164.5" class="st3" width="9.7" height="9.7"/>
	<rect x="360.8" y="154.8" class="st1" width="9.7" height="9.7"/>
	<rect x="360.8" y="145.1" width="9.7" height="9.7"/>
	<rect x="351.1" y="242" width="9.7" height="9.7"/>
	<rect x="351.1" y="232.3" class="st1" width="9.7" height="9.7"/>
	<rect x="351.1" y="222.6" class="st1" width="9.7" height="9.7"/>
	<rect x="351.1" y="212.9" class="st1" width="9.7" height="9.7"/>
	<rect x="351.1" y="203.2" class="st1" width="9.7" height="9.7"/>
	<rect x="351.1" y="193.5" class="st1" width="9.7" height="9.7"/>
	<rect x="351.1" y="183.9" class="st3" width="9.7" height="9.7"/>
	<rect x="351.1" y="174.2" class="st3" width="9.7" height="9.7"/>
	<rect x="351.1" y="164.5" class="st2" width="9.7" height="9.7"/>
	<rect x="351.1" y="154.8" class="st1" width="9.7" height="9.7"/>
	<rect x="351.1" y="145.1" width="9.7" height="9.7"/>
	<rect x="341.5" y="242" width="9.7" height="9.7"/>
	<rect x="341.5" y="232.3" width="9.7" height="9.7"/>
	<rect x="341.5" y="222.6" class="st1" width="9.7" height="9.7"/>
	<rect x="341.5" y="212.9" class="st1" width="9.7" height="9.7"/>
	<rect x="341.5" y="203.2" class="st3" width="9.7" height="9.7"/>
	<rect x="341.5" y="193.5" class="st3" width="9.7" height="9.7"/>
	<rect x="341.5" y="183.9" class="st3" width="9.7" height="9.7"/>
	<rect x="341.5" y="174.2" class="st2" width="9.7" height="9.7"/>
	<rect x="341.5" y="164.5" class="st1" width="9.7" height="9.7"/>
	<rect x="341.5" y="154.8" width="9.7" height="9.7"/>
	<rect x="341.5" y="145.1" width="9.7" height="9.7"/>
	<rect x="331.8" y="242" width="9.7" height="9.7"/>
	<rect x="331.8" y="232.3" class="st1" width="9.7" height="9.7"/>
	<rect x="331.8" y="222.6" width="9.7" height="9.7"/>
	<rect x="331.8" y="212.9" class="st1" width="9.7" height="9.7"/>
	<rect x="331.8" y="203.2" class="st1" width="9.7" height="9.7"/>
	<rect x="331.8" y="193.5" class="st1" width="9.7" height="9.7"/>
	<rect x="331.8" y="183.9" class="st1" width="9.7" height="9.7"/>
	<rect x="331.8" y="174.2" class="st1" width="9.7" height="9.7"/>
	<rect x="331.8" y="164.5" width="9.7" height="9.7"/>
	<rect x="331.8" y="154.8" class="st1" width="9.7" height="9.7"/>
	<rect x="331.8" y="145.1" width="9.7" height="9.7"/>
	<rect x="322.1" y="232.3" width="9.7" height="9.7"/>
	<rect x="322.1" y="222.6" class="st1" width="9.7" height="9.7"/>
	<rect x="322.1" y="212.9" width="9.7" height="9.7"/>
	<rect x="322.1" y="203.2" width="9.7" height="9.7"/>
	<rect x="322.1" y="193.5" width="9.7" height="9.7"/>
	<rect x="322.1" y="183.9" width="9.7" height="9.7"/>
	<rect x="322.1" y="174.2" width="9.7" height="9.7"/>
	<rect x="322.1" y="164.5" class="st1" width="9.7" height="9.7"/>
	<rect x="322.1" y="154.8" width="9.7" height="9.7"/>
	<rect x="312.4" y="222.6" width="9.7" height="9.7"/>
	<rect x="312.4" y="212.9" class="st1" width="9.7" height="9.7"/>
	<rect x="312.4" y="203.2" class="st1" width="9.7" height="9.7"/>
	<rect x="312.4" y="193.5" class="st1" width="9.7" height="9.7"/>
	<rect x="312.4" y="183.9" class="st2" width="9.7" height="9.7"/>
	<rect x="312.4" y="174.2" class="st2" width="9.7" height="9.7"/>
	<rect x="312.4" y="164.5" width="9.7" height="9.7"/>
	<rect x="302.7" y="212.9" width="9.7" height="9.7"/>
	<rect x="302.7" y="203.2" width="9.7" height="9.7"/>
	<rect x="302.7" y="193.5" width="9.7" height="9.7"/>
	<rect x="302.7" y="183.9" width="9.7" height="9.7"/>
	<rect x="302.7" y="174.2" width="9.7" height="9.7"/>
</g>
<g>
	<rect x="449.2" y="81.3" width="5.5" height="6.2"/>
	<rect x="449.2" y="75.2" width="5.5" height="6.2"/>
	<rect x="449.2" y="69" width="5.5" height="6.2"/>
	<rect x="449.2" y="62.9" width="5.5" height="6.2"/>
	<rect x="449.2" y="56.7" width="5.5" height="6.2"/>
	<rect x="443" y="87.5" width="6.2" height="6.2"/>
	<rect x="443" y="81.3" class="st1" width="6.2" height="6.2"/>
	<rect x="443" y="75.2" class="st1" width="6.2" height="6.2"/>
	<rect x="443" y="69" class="st1" width="6.2" height="6.2"/>
	<rect x="443" y="62.9" class="st1" width="6.2" height="6.2"/>
	<rect x="443" y="56.7" class="st1" width="6.2" height="6.2"/>
	<rect x="443" y="50.5" width="6.2" height="6.2"/>
	<rect x="436.9" y="93.7" width="6.2" height="6.2"/>
	<rect x="436.9" y="87.5" class="st1" width="6.2" height="6.2"/>
	<rect x="436.9" y="81.3" class="st1" width="6.2" height="6.2"/>
	<rect x="436.9" y="75.2" class="st2" width="6.2" height="6.2"/>
	<rect x="436.9" y="69" class="st1" width="6.2" height="6.2"/>
	<rect x="436.9" y="62.9" class="st1" width="6.2" height="6.2"/>
	<rect x="436.9" y="56.7" class="st3" width="6.2" height="6.2"/>
	<rect x="436.9" y="50.5" class="st1" width="6.2" height="6.2"/>
	<rect x="436.9" y="44.4" width="6.2" height="6.2"/>
	<rect x="430.7" y="99.8" width="6.2" height="6.2"/>
	<rect x="430.7" y="93.7" class="st1" width="6.2" height="6.2"/>
	<rect x="430.7" y="87.5" class="st1" width="6.2" height="6.2"/>
	<rect x="430.7" y="81.3" class="st2" width="6.2" height="6.2"/>
	<rect x="430.7" y="75.2" class="st1" width="6.2" height="6.2"/>
	<rect x="430.7" y="69" class="st3" width="6.2" height="6.2"/>
	<rect x="430.7" y="62.9" class="st1" width="6.2" height="6.2"/>
	<rect x="430.7" y="56.7" class="st3" width="6.2" height="6.2"/>
	<rect x="430.7" y="50.5" class="st3" width="6.2" height="6.2"/>
	<rect x="430.7" y="44.4" class="st1" width="6.2" height="6.2"/>
	<rect x="430.7" y="38.2" width="6.2" height="6.2"/>
	<rect x="424.5" y="99.8" width="6.2" height="6.2"/>
	<rect x="424.5" y="93.7" class="st1" width="6.2" height="6.2"/>
	<rect x="424.5" y="87.5" class="st1" width="6.2" height="6.2"/>
	<rect x="424.5" y="81.3" class="st1" width="6.2" height="6.2"/>
	<rect x="424.5" y="75.2" class="st1" width="6.2" height="6.2"/>
	<rect x="424.5" y="69" class="st1" width="6.2" height="6.2"/>
	<rect x="424.5" y="62.9" class="st3" width="6.2" height="6.2"/>
	<rect x="424.5" y="56.7" class="st3" width="6.2" height="6.2"/>
	<rect x="424.5" y="50.5" class="st2" width="6.2" height="6.2"/>
	<rect x="424.5" y="44.4" class="st1" width="6.2" height="6.2"/>
	<rect x="424.5" y="38.2" width="6.2" height="6.2"/>
	<rect x="418.4" y="99.8" width="6.2" height="6.2"/>
	<rect x="418.4" y="93.7" width="6.2" height="6.2"/>
	<rect x="418.4" y="87.5" class="st1" width="6.2" height="6.2"/>
	<rect x="418.4" y="81.3" class="st1" width="6.2" height="6.2"/>
	<rect x="418.4" y="75.2" class="st3" width="6.2" height="6.2"/>
	<rect x="418.4" y="69" class="st3" width="6.2" height="6.2"/>
	<rect x="418.4" y="62.9" class="st3" width="6.2" height="6.2"/>
	<rect x="418.4" y="56.7" class="st2" width="6.2" height="6.2"/>
	<rect x="418.4" y="50.5" class="st1" width="6.2" height="6.2"/>
	<rect x="418.4" y="44.4" width="6.2" height="6.2"/>
	<rect x="418.4" y="38.2" width="6.2" height="6.2"/>
	<rect x="412.2" y="99.8" width="6.2" height="6.2"/>
	<rect x="412.2" y="93.7" class="st1" width="6.2" height="6.2"/>
	<rect x="412.2" y="87.5" width="6.2" height="6.2"/>
	<rect x="412.2" y="81.3" class="st1" width="6.2" height="6.2"/>
	<rect x="412.2" y="75.2" class="st1" width="6.2" height="6.2"/>
	<rect x="412.2" y="69" class="st1" width="6.2" height="6.2"/>
	<rect x="412.2" y="62.9" class="st1" width="6.2" height="6.2"/>
	<rect x="412.2" y="56.7" class="st1" width="6.2" height="6.2"/>
	<rect x="412.2" y="50.5" width="6.2" height="6.2"/>
	<rect x="412.2" y="44.4" class="st1" width="6.2" height="6.2"/>
	<rect x="412.2" y="38.2" width="6.2" height="6.2"/>
	<rect x="406" y="93.7" width="6.2" height="6.2"/>
	<rect x="406" y="87.5" class="st1" width="6.2" height="6.2"/>
	<rect x="406" y="81.3" width="6.2" height="6.2"/>
	<rect x="406" y="75.2" width="6.2" height="6.2"/>
	<rect x="406" y="69" width="6.2" height="6.2"/>
	<rect x="406" y="62.9" width="6.2" height="6.2"/>
	<rect x="406" y="56.7" width="6.2" height="6.2"/>
	<rect x="406" y="50.5" class="st1" width="6.2" height="6.2"/>
	<rect x="406" y="44.4" width="6.2" height="6.2"/>
	<rect x="399.9" y="87.5" width="6.2" height="6.2"/>
	<rect x="399.9" y="81.3" class="st1" width="6.2" height="6.2"/>
	<rect x="399.9" y="75.2" class="st1" width="6.2" height="6.2"/>
	<rect x="399.9" y="69" class="st1" width="6.2" height="6.2"/>
	<rect x="399.9" y="62.9" class="st2" width="6.2" height="6.2"/>
	<rect x="399.9" y="56.7" class="st2" width="6.2" height="6.2"/>
	<rect x="399.9" y="50.5" width="6.2" height="6.2"/>
	<rect x="393.7" y="81.3" width="6.2" height="6.2"/>
	<rect x="393.7" y="75.2" width="6.2" height="6.2"/>
	<rect x="393.7" y="69" width="6.2" height="6.2"/>
	<rect x="393.7" y="62.9" width="6.2" height="6.2"/>
	<rect x="393.7" y="56.7" width="6.2" height="6.2"/>
</g>
<g>
	<path d="M56,274.7H8v-72.2h9.7v64.1H56V274.7z"/>
	<path d="M74.7,211.2v20.1H66v-28.9h43.5v8.8H74.7z M66,239.9h8.7V266h34.8v8.7H66V239.9z M74.7,239.9v-8.7h26.1v8.7H74.7z"/>
	<path d="M177.4,202.4v8.8h-26.1v28.8h-8.7v-28.8h-26.1v-8.8H177.4z M142.6,274.7v-17.4h8.7v17.4H142.6z M160,257.3h-8.7v-17.4h8.7
		V257.3z"/>
	<path d="M187.6,231.2v-20.1h8.7v20.1H187.6z M187.6,266v-8.7h8.7v8.7H187.6z M231.1,202.5v8.7h-34.8v-8.7H231.1z M196.3,239.9v-8.7
		h34.8v8.7H196.3z M231.1,266v8.7h-34.8V266H231.1z M239.8,211.2v8.7h-8.7v-8.7H239.8z M231.1,266v-26.1h8.7V266H231.1z"/>
	<path d="M63,299v8.8H36.9v28.8h-8.7v-28.8H2.1V299H63z M28.2,371.3v-17.4h8.7v17.4H28.2z M45.6,353.9h-8.7v-17.4h8.7V353.9z"/>
	<path d="M105.8,325.2h8.7v46.2h-8.7v-17.4H71v17.4h-8.7v-46.2H71v20.1h34.8V325.2z M79.7,307.8v17.4H71v-17.4H79.7z M97.1,299v8.8
		H79.7V299H97.1z M105.8,325.2h-8.7v-17.4h8.7V325.2z"/>
	<path d="M139.2,336.5h-8.7v-37.5h8.7V336.5z M130.5,345.2h8.7v17.4h-8.7V345.2z M139.2,336.5h8.7v8.7h-8.7V336.5z M174,362.6v8.7
		h-34.8v-8.7H174z"/>
	<path d="M194.9,333.9h8.7v8.7h-8.7v28.8h-8.7v-72.2h8.7V333.9z M203.6,333.9v-8.7h8.7v8.7H203.6z M212.3,316.5h8.7v8.7h-8.7V316.5z
		 M221,333.9v8.7h-8.7v-8.7H221z M221,307.8h8.7v8.7H221V307.8z M229.7,362.6H221v-20.1h8.7V362.6z M229.7,299h8.7v8.8h-8.7V299z
		 M238.4,362.6v8.7h-8.7v-8.7H238.4z"/>
</g>
<g>
	<path d="M17,472.3c-5.8-3.2-9.6-8.2-11.5-14.8l10.1-3.6c1.2,4.8,3.8,8.4,7.9,10.5c4.1,2.2,9,3.3,14.8,3.3c6.2,0,11.4-1.2,15.6-3.6
		c4.1-2.4,6.2-6,6.2-10.8c0-3.4-1.1-6.1-3.2-8.2s-4.8-3.7-8.1-4.9c-3.3-1.2-7.5-2.3-12.5-3.3c-5.9-1.2-10.8-2.5-14.7-4
		c-3.9-1.5-7.3-3.7-10-6.8c-2.7-3-4-7.1-4-12.1c0-5,1.4-9.2,4.2-12.8c2.8-3.5,6.5-6.1,11.2-7.9c4.7-1.8,9.9-2.6,15.6-2.6
		c7.3,0,13.5,1.6,18.6,4.7c5.1,3.2,8.6,8.1,10.5,14.8l-10,3.7c-1.2-5.2-3.5-8.8-6.8-10.8c-3.4-2.1-7.7-3.1-12.8-3.1
		c-5.6,0-10.3,1.1-14.1,3.2c-3.8,2.1-5.7,5.4-5.7,9.9c0,3,1,5.3,2.9,7.1c1.9,1.8,4.4,3.2,7.3,4.2c3,1,6.8,1.9,11.4,2.6
		c6,1.1,11.2,2.5,15.5,4.1s8,4.2,10.9,7.7c2.9,3.5,4.4,8.1,4.4,13.8c0,7.9-3,13.9-9.1,18.1s-13.9,6.3-23.5,6.3
		C29.7,477.2,22.8,475.6,17,472.3z"/>
	<path d="M147.5,392.5v10.1h-29.9v13h-10v-13H77.9v-10.1H147.5z M107.7,425.5h-10v-10h10V425.5z M107.7,425.5h10v49.8h-10V425.5z"/>
	<path d="M146.7,435.5v-13h10v13H146.7z M146.7,475.3v-19.9h10v19.9H146.7z M166.6,402.6v19.9h-10v-19.9H166.6z M206.4,445.4v-10h10
		v19.9h-10v19.9h-10v-19.9h-39.8v-19.9h10v10H206.4z M186.5,392.5v10.1h-19.9v-10.1H186.5z M196.5,422.5h-10v-19.9h10V422.5z
		 M206.4,422.5v13h-10v-13H206.4z"/>
	<path d="M262.2,424.1l27.3,41.9h7.1v9.2h-15L254,432.1l-15,14.4v28.8h-11.1v-82.7H239v41l41.8-41h14.2L262.2,424.1z"/>
	<path d="M349.4,392.6v8h10v10h-10v24.9h-10v-42.9H349.4z M339.4,475.3v-19.9h10v19.9H339.4z M359.3,455.4h-10v-19.9h10V455.4z
		 M359.3,420.5v-10h10v10H359.3z M369.3,435.5v-15h10v15H369.3z M379.2,445.4v-10h10v10H379.2z M389.2,445.4h10v10h10v19.9h-10v-10
		h-10V445.4z M409.1,392.6v42.9h-10v-42.9H409.1z M409.1,435.5h10v19.9h-10V435.5z"/>
	<path d="M466.7,430.2h34.7v33.7c-4.1,4.1-9.1,7.3-14.9,9.7c-5.8,2.4-12.1,3.6-18.9,3.6c-8,0-15.1-1.9-21.5-5.6
		c-6.4-3.7-11.3-8.9-14.9-15.5c-3.6-6.6-5.4-14-5.4-22.2c0-8,1.7-15.2,5.1-21.8s8.2-11.7,14.5-15.6c6.3-3.8,13.6-5.7,21.8-5.7
		c7.5,0,14.1,1.5,19.7,4.4c5.6,3,10.1,8,13.6,15.1l-10,3.7c-2.1-4.8-5.1-8.4-8.9-10.6c-3.8-2.2-8.5-3.3-14.1-3.3
		c-6.4,0-11.9,1.5-16.6,4.4c-4.6,2.9-8.2,6.9-10.5,12.1c-2.4,5.1-3.6,10.9-3.6,17.3c0,6.6,1.3,12.5,3.8,17.6
		c2.5,5.1,6.2,9.1,10.9,12c4.8,2.9,10.4,4.3,16.9,4.3c4.4,0,8.5-0.7,12.4-2.2c3.9-1.4,7.3-3.4,10.3-5.8v-20.3h-24.6V430.2z"/>
</g>
<g>
	<path d="M312.6,354.9h-7.5v3.8h7.5V354.9z"/>
	<path d="M305.1,351.1h-3.8v3.8h3.8V351.1z"/>
	<path d="M301.3,343.6h-3.8v7.5h3.8V343.6z"/>
	<path d="M305.1,339.8h-3.8v3.8h3.8V339.8z"/>
	<path d="M312.6,336.1h-7.5v3.8h7.5V336.1z"/>
	<path d="M316.4,339.8h-3.8v3.8h3.8V339.8z"/>
	<path d="M320.1,343.6h-3.8v7.5h3.8V343.6z"/>
	<path d="M316.4,351.1h-3.8v3.8h3.8V351.1z"/>
	<path d="M305.1,448.8h-3.8v3.8h3.8V448.8z"/>
	<path d="M323.9,445.1h-3.8v3.8h3.8V445.1z"/>
	<path d="M327.6,448.8h-3.8v3.8h3.8V448.8z"/>
	<path d="M327.6,437.6h-7.5v3.8h7.5V437.6z"/>
	<path d="M331.4,441.3h-3.8v3.8h3.8V441.3z"/>
	<path d="M301.3,441.3h-3.8v3.8h3.8V441.3z"/>
	<path d="M297.6,433.8h-3.8v3.8h3.8V433.8z"/>
	<path d="M331.4,430.1h-11.3v3.8h11.3V430.1z"/>
	<path d="M335.2,433.8h-3.8v3.8h3.8V433.8z"/>
	<path d="M312.6,415h-3.8v3.8h3.8V415z"/>
	<path d="M323.9,467.6v-3.8h-3.8v-3.8h-3.8v-3.8h3.8v-3.8h-3.8v-3.8v-3.8v-18.8h18.8V415h-3.8v-3.8h-3.8v-3.8h-3.8v-3.8h-7.5v3.8
		h3.8v3.8h3.8v3.8h-3.8v-3.8h-3.8v3.8v3.8v3.8h-3.8h-7.5V415v-3.8h11.3v-3.8h-3.8v-3.8h-7.5v3.8h-3.8v3.8h-3.8v3.8h-3.8v7.5v3.8
		h18.8v3.8h-15v3.8h15v3.8h-11.3v3.8h11.3v3.8h-7.5v3.8h7.5v3.8h-3.8v3.8h3.8v3.8h-3.8v3.8h-3.8v3.8h-3.8v7.5h7.5v-3.8h3.8v-3.8h3.8
		v3.8h3.8v3.8h7.5v-7.5H323.9z"/>
	<path d="M316.4,392.5h-3.8v3.8h3.8V392.5z"/>
	<path d="M308.9,384.9h-3.8v3.8h3.8V384.9z"/>
	<path d="M305.1,381.2h-3.8v3.8h3.8V381.2z"/>
	<path d="M308.9,377.4h-3.8v3.8h3.8V377.4z"/>
	<path d="M312.6,381.2h-3.8v3.8h3.8V381.2z"/>
	<path d="M323.9,373.7h-7.5v3.8h7.5V373.7z"/>
	<path d="M316.4,366.1h-3.8v7.5h3.8V366.1z"/>
	<path d="M323.9,362.4h-7.5v3.8h7.5V362.4z"/>
	<path d="M327.6,366.1h-3.8v7.5h3.8V366.1z"/>
</g>
<g>
	<path d="M385.3,238.8l-8.9,34.9l34.9,8.9l-1.1,4.4l-39.3-10l10-39.4L385.3,238.8z"/>
	<path d="M488,274.3l10.3,8.2l6.7,60.6l-4.5,0.5l-6.5-58.7l-8.8-7L488,274.3z"/>
	<path class="st2" d="M407.2,208.6h86.9v137.3h-86.9V208.6z"/>
	<path d="M466.7,249.8h4.6v4.6h-4.6V249.8z"/>
	<path d="M462.1,254.4h4.6v4.6h-4.6V254.4z"/>
	<path d="M457.5,259h4.6v4.6h-4.6V259z"/>
	<path d="M466.7,259h4.6v4.6h-4.6V259z"/>
	<path d="M457.5,249.8h4.6v4.6h-4.6V249.8z"/>
	<path d="M439.2,249.8h4.6v4.6h-4.6V249.8z"/>
	<path d="M434.7,254.4h4.6v4.6h-4.6V254.4z"/>
	<path d="M430.1,259h4.6v4.6h-4.6V259z"/>
	<path d="M439.2,259h4.6v4.6h-4.6V259z"/>
	<path d="M430.1,249.8h4.6v4.6h-4.6V249.8z"/>
	<path d="M430.1,272.7h41.2v4.6h-41.2V272.7z"/>
	<path d="M457.5,345.9h4.6v54.9h-4.6V345.9z"/>
	<path d="M439.2,345.9h4.6v54.9h-4.6V345.9z"/>
</g>
<g>
	<g>
		<polygon class="st2" points="305.7,98.2 339.6,247 346.5,250.1 442.9,227.5 447.3,222.6 413.1,74.1 		"/>
		<g>
			<polygon class="st2" points="305.3,98.7 302,84.3 303,84 302.6,82.2 303.5,82 303.2,80.7 304.1,80.5 303.9,79.7 306.2,79.1 
				305.9,78 403.6,55.4 403.9,56.7 405.9,56.2 406.2,57.2 407.2,56.9 407.4,57.9 408.6,57.6 409.1,59.6 409.9,59.4 413.4,74.3 			
				"/>
			<g>
				
					<pattern  id="SVGID_1_" xlink:href="#New_Pattern_Swatch_1" patternTransform="matrix(0.1923 -4.439485e-02 4.439485e-02 0.1923 -6060.501 -6385.272)">
				</pattern>
				<polygon class="st4" points="448.2,226.3 340,251.3 304.8,99.1 413.1,74.1 				"/>
				
					<rect x="316.8" y="94.9" transform="matrix(0.9744 -0.225 0.225 0.9744 -14.2899 84.0166)" class="st2" width="89.5" height="19.7"/>
				
					<rect x="323.8" y="128.6" transform="matrix(0.9744 -0.225 0.225 0.9744 -22.1417 78.3218)" class="st2" width="17.6" height="15.5"/>
				
					<rect x="346.7" y="123.3" transform="matrix(0.9744 -0.225 0.225 0.9744 -20.3675 83.3316)" class="st2" width="17.6" height="15.5"/>
				
					<rect x="369.6" y="118" transform="matrix(0.9744 -0.225 0.225 0.9744 -18.5865 88.3606)" class="st2" width="17.6" height="15.5"/>
				
					<rect x="392.9" y="112.6" transform="matrix(0.9744 -0.225 0.225 0.9744 -16.7782 93.4666)" class="st2" width="17.6" height="15.5"/>
				
					<rect x="329.3" y="152.4" transform="matrix(0.9744 -0.225 0.225 0.9744 -27.3531 80.1674)" class="st2" width="17.6" height="15.5"/>
				
					<rect x="352.2" y="147.1" transform="matrix(0.9744 -0.225 0.225 0.9744 -25.5789 85.1772)" class="st2" width="17.6" height="15.5"/>
				
					<rect x="375.1" y="141.8" transform="matrix(0.9744 -0.225 0.225 0.9744 -23.7979 90.2062)" class="st2" width="17.6" height="15.5"/>
				
					<rect x="398.4" y="136.4" transform="matrix(0.9744 -0.225 0.225 0.9744 -21.9896 95.3122)" class="st2" width="17.6" height="15.5"/>
				
					<rect x="334.8" y="176.4" transform="matrix(0.9744 -0.225 0.225 0.9744 -32.6251 82.0345)" class="st2" width="17.6" height="15.5"/>
				
					<rect x="357.7" y="171.2" transform="matrix(0.9744 -0.225 0.225 0.9744 -30.8509 87.0442)" class="st2" width="17.6" height="15.5"/>
				
					<rect x="380.7" y="165.9" transform="matrix(0.9744 -0.225 0.225 0.9744 -29.0699 92.0732)" class="st2" width="17.6" height="15.5"/>
				
					<rect x="404" y="160.5" transform="matrix(0.9744 -0.225 0.225 0.9744 -27.2616 97.1793)" class="st2" width="17.6" height="15.5"/>
				
					<rect x="340.4" y="200.5" transform="matrix(0.9744 -0.225 0.225 0.9744 -37.8912 83.8995)" class="st2" width="17.6" height="15.5"/>
				
					<rect x="363.3" y="195.2" transform="matrix(0.9744 -0.225 0.225 0.9744 -36.117 88.9092)" class="st2" width="17.6" height="15.5"/>
				
					<rect x="386.2" y="189.9" transform="matrix(0.9744 -0.225 0.225 0.9744 -34.336 93.9382)" class="st2" width="17.6" height="15.5"/>
				
					<rect x="391.5" y="212.9" transform="matrix(0.9744 -0.225 0.225 0.9744 -39.3731 95.7221)" class="st2" width="17.6" height="15.5"/>
				
					<rect x="345.1" y="220.9" transform="matrix(0.9744 -0.225 0.225 0.9744 -42.0675 88.114)" class="st2" width="41.1" height="15.5"/>
				
					<rect x="412.3" y="184.2" transform="matrix(0.9744 -0.225 0.225 0.9744 -35.1242 99.9639)" class="st2" width="17.6" height="39.8"/>
				<g>
					<path d="M336.2,83.8l2.4-0.5l0.5,2.4l3.5-0.8l-0.8-3.5l-4.7,1.1l-0.3-1.2l-1.2,0.3l-0.8-3.5l1.2-0.3l-0.3-1.2l4.7-1.1l0.3,1.2
						l1.2-0.3l0.5,2.4l-1.2,0.3l-0.5-2.4l-3.5,0.8l0.8,3.5l3.5-0.8l0.3,1.2L343,81l0.8,3.5l-1.2,0.3l0.3,1.2l-4.7,1.1l-0.3-1.2
						l-1.2,0.3L336.2,83.8z"/>
					<path d="M351.1,72.9l0.3,1.2l-2.4,0.5l2.2,9.4l-2.4,0.5l-2.2-9.4l-2.4,0.5l-0.3-1.2L351.1,72.9z"/>
					<path d="M359.3,71l0.3,1.2l1.2-0.3l2.2,9.4l-1.2,0.3l-1.1-4.7l-3.5,0.8l1.1,4.7l-2.4,0.5l-2.2-9.4l1.2-0.3l-0.3-1.2L359.3,71z
						 M356.1,73l0.8,3.5l3.5-0.8l-0.8-3.5L356.1,73z"/>
					<path d="M365.2,69.7l0.8,3.5l1.2-0.3l-0.3-1.2l1.2-0.3l-0.3-1.2L369,70l-0.3-1.2l1.2-0.3l0.5,2.4l-1.2,0.3l0.3,1.2l-1.2,0.3
						l0.3,1.2l-1.2,0.3l0.3,1.2l1.2-0.3l0.3,1.2l1.2-0.3l0.3,1.2l1.2-0.3l0.5,2.4l-1.2,0.3l-0.3-1.2l-1.2,0.3l-0.3-1.2l-1.2,0.3
						l-0.3-1.2l-1.2,0.3l0.8,3.5l-2.4,0.5l-2.5-10.6L365.2,69.7z"/>
					<path d="M377,66.9l2.5,10.6l-2.4,0.5l-2.5-10.6L377,66.9z"/>
					<path d="M384.1,65.3l0.3,1.2l1.2-0.3l0.5,2.4l1.2-0.3l0.5,2.4l1.2-0.3l-1.4-5.9l1.2-0.3l2.5,10.6l-1.2,0.3l-0.3-1.2l-1.2,0.3
						l-0.5-2.4l-1.2,0.3l-0.5-2.4l-1.2,0.3l1.4,5.9l-2.4,0.5l-2.5-10.6L384.1,65.3z"/>
					<path d="M397.1,62.3l0.3,1.2l1.2-0.3l0.5,2.4l-1.2,0.3l-0.5-2.4l-3.5,0.8l1.9,8.3l3.5-0.8l-0.5-2.4l-1.2,0.3l-0.3-1.2l2.4-0.5
						l1.1,4.7l-5.9,1.4l-0.3-1.2l-1.2,0.3l-1.9-8.3l1.2-0.3l-0.3-1.2L397.1,62.3z"/>
				</g>
				<g>
					<path d="M447.6,220.2L447.6,220.2l-33.7-146l0,0l-3.3-14.5l0,0l-0.2-0.9l-1,0.2l-0.2-1l0-0.2l-0.2-0.9l-1,0.2l-0.2-1l-1,0.2
						l-0.2-1l-2.1,0.5l-0.2-1l-98.8,22.8l0.2,1l-2,0.5l0.2,1l-1,0.2l0.2,1l-1,0.2l0.2,0.9l0,0.2l0.2,1l-1,0.2l0.2,1l0,0l37,160.4
						l0.1,0l0.7,3.1l0.9-0.2l0.2,1l1-0.2l0.2,1l1-0.2l0.2,1.1l1.1-0.2l0.2,1l99.7-23l-0.2-1l3.1-0.7l-0.2-1.1l1-0.2l-0.2-1l0.2,0
						l-0.2-1l0.9-0.2L447.6,220.2z M445.7,220.6l0.7,3.1l-2,0.5l0.2,1l-100.9,23.3l-0.2-1l-2,0.5l-0.7-3.1l-1.1,0.2L306,99.6
						l106.1-24.5L445.7,220.6L445.7,220.6z M303.6,84.5l-0.2-1l0,0l-0.2-1l1-0.2l-0.2-1l1-0.2l-0.2-1l2.1-0.5l-0.2-1l96.7-22.3
						l0.2,1l2.1-0.5l0.2,1l1-0.2l0.2,1l1-0.2l0.2,1l0,0l0.2,1l0.8-0.2l3.1,13.4l-0.6,0.1l0,0L305.7,98.2l-3.1-13.4L303.6,84.5z"/>
					<path d="M403.1,84.5l-88.2,20.4l4.7,20.2l88.2-20.4L403.1,84.5z M406.6,104l-86.2,19.9l-4.2-18.3l86.2-19.9L406.6,104z"/>
					<path d="M343.9,128.9l-2.8,0.7l-0.9-3.7l-18.6,4.3l3.8,16.3l3.8-0.9l0.6,2.7l17.6-4.1L343.9,128.9z M342.8,141.5l-16.7,3.8
						l-3.3-14.4l16.7-3.8L342.8,141.5z"/>
					<polygon points="331.7,140.9 335.2,140.1 335,139.3 332.4,139.9 331,133.9 333.6,133.3 333.4,132.5 330,133.3 330.2,134.1 
						329.3,134.3 330.7,140.3 331.6,140.1 					"/>
					<rect x="333.8" y="133.2" transform="matrix(0.9744 -0.225 0.225 0.9744 -21.5959 78.6234)" width="0.9" height="1.7"/>
					<rect x="334.8" y="137.5" transform="matrix(0.9744 -0.225 0.225 0.9744 -22.5287 78.9538)" width="0.9" height="1.7"/>
					<path d="M363.2,120.6l-18.6,4.3l3.8,16.3l3.8-0.9l0.6,2.7l17.6-4.1l-3.5-15.3l-2.8,0.7L363.2,120.6z M365.7,136.2l-16.7,3.8
						l-3.3-14.4l16.7-3.8L365.7,136.2z"/>
					<polygon points="359.3,133.7 355.9,134.5 355.3,131.9 357.9,131.3 357.7,130.5 355.1,131 354.5,128.5 357.9,127.7 357.7,126.8 
						352.6,128 354.4,135.7 359.5,134.5 					"/>
					<path d="M386.1,115.3l-18.6,4.3l3.8,16.3l3.8-0.9l0.6,2.7l17.6-4.1l-3.5-15.3L387,119L386.1,115.3z M388.7,130.9l-16.7,3.8
						l-3.3-14.4l16.7-3.8L388.7,130.9z"/>
					<rect x="375.8" y="124.8" transform="matrix(0.9744 -0.225 0.225 0.9744 -18.4719 88.334)" width="5.2" height="0.9"/>
					<rect x="376.2" y="126.5" transform="matrix(0.9744 -0.225 0.225 0.9744 -18.8448 88.466)" width="5.2" height="0.9"/>
					<path d="M390.5,114.3l3.8,16.3l3.8-0.9l0.6,2.7l17.6-4.1l-3.5-15.3l-2.8,0.7l-0.9-3.7L390.5,114.3z M411.6,125.6l-16.7,3.8
						l-3.3-14.4l16.7-3.8L411.6,125.6z"/>
					<rect x="402.4" y="116.5" transform="matrix(0.9744 -0.225 0.225 0.9744 -16.0711 93.6292)" width="0.9" height="1.7"/>
					<rect x="399" y="117.2" transform="matrix(0.9744 -0.225 0.225 0.9744 -16.3355 92.8829)" width="0.9" height="1.7"/>
					<polygon points="401.7,122.1 402.5,121.9 402.7,122.7 403.6,122.5 403.2,120.8 402.3,121 402.1,120.2 403,120 402.6,118.3 
						401.7,118.5 401.9,119.3 401.1,119.5 400.9,118.7 400,118.9 400.4,120.6 401.3,120.4 401.5,121.2 400.6,121.4 401,123.1 
						401.9,122.9 					"/>
					<rect x="400.4" y="123.2" transform="matrix(0.9744 -0.225 0.225 0.9744 -17.6422 93.3457)" width="0.9" height="1.7"/>
					<rect x="403.8" y="122.4" transform="matrix(0.9744 -0.225 0.225 0.9744 -17.3779 94.092)" width="0.9" height="1.7"/>
					<path d="M349.4,153.1l-2.8,0.7l-0.9-3.7l-18.6,4.3l3.8,16.3l3.8-0.9l0.6,2.7l17.6-4.1L349.4,153.1z M348.3,165.6l-16.7,3.8
						l-3.3-14.4l16.7-3.8L348.3,165.6z"/>
					<polygon points="336.6,158.1 338.3,157.7 338.7,159.4 337.9,159.6 338.4,162.1 337.6,162.3 338.2,164.9 339.9,164.5 
						339.3,161.9 340.1,161.7 339.6,159.2 340.4,159 339.8,156.4 334.7,157.6 335.3,160.2 337,159.8 					"/>
					<path d="M368.7,144.7l-18.6,4.3l3.8,16.3l3.8-0.9l0.6,2.7l17.6-4.1l-3.5-15.3l-2.8,0.7L368.7,144.7z M371.3,160.3l-16.7,3.8
						l-3.3-14.4l16.7-3.8L371.3,160.3z"/>
					<path d="M360.8,159.6l3.4-0.8L364,158l0.9-0.2l-0.6-2.6l-0.9,0.2l-0.2-0.8l0.9-0.2l-0.6-2.6l-0.9,0.2l-0.2-0.9L359,152l0.2,0.9
						l-0.8,0.2l0.6,2.6l0.8-0.2l0.2,0.8l-0.8,0.2l0.6,2.6l0.8-0.2L360.8,159.6z M360.1,152.6l1.7-0.4l0.6,2.6l-1.7,0.4L360.1,152.6z
						 M360.9,156l1.7-0.4l0.6,2.6l-1.7,0.4L360.9,156z"/>
					<path d="M391.7,139.4l-18.6,4.3l3.8,16.3l3.8-0.9l0.6,2.7l17.6-4.1l-3.5-15.3l-2.8,0.7L391.7,139.4z M394.3,155l-16.7,3.8
						l-3.3-14.4l16.7-3.8L394.3,155z"/>
					<path d="M383.3,154.4l3.4-0.8l-0.2-0.9l0.9-0.2l-1.4-6l-0.9,0.2L385,146l-3.4,0.8l0.2,0.9l-0.8,0.2l0.6,2.6l0.8-0.2l0.2,0.8
						l2.6-0.6l0.6,2.6l-1.7,0.4l-0.4-1.7l-1.7,0.4l0.4,1.7l0.8-0.2L383.3,154.4z M383.2,150l-0.6-2.6l1.7-0.4l0.6,2.6L383.2,150z"/>
					<path d="M418.3,137.2l-2.8,0.7l-0.9-3.7l-18.6,4.3l3.8,16.3l3.8-0.9l0.6,2.7l17.6-4.1L418.3,137.2z M417.2,149.7l-16.7,3.8
						l-3.3-14.4l16.7-3.8L417.2,149.7z"/>
					<polygon points="407.4,147.1 408.3,146.9 407.9,145.2 408.8,145 408.4,143.3 409.2,143.1 408.8,141.4 407.1,141.8 407.5,143.5 
						406.7,143.7 407.1,145.4 406.2,145.6 406.6,147.3 405.7,147.5 406.1,149.2 407.8,148.8 					"/>
					<path d="M355.1,177.4l-2.8,0.7l-0.9-3.7l-18.6,4.3l3.8,16.3l3.8-0.9l0.6,2.7l17.6-4.1L355.1,177.4z M354,189.9l-16.7,3.8
						l-3.3-14.4l16.7-3.8L354,189.9z"/>
					<polygon points="344.6,189 346.3,188.6 345.8,186.1 346.6,185.9 346.4,185 345.6,185.2 344.8,181.8 343.9,182 344.1,182.8 
						343.3,183 343.9,185.6 343,185.8 342.4,183.2 343.3,183 342.9,181.3 341.2,181.7 341.6,183.4 340.7,183.6 341.5,187 
						344.1,186.4 					"/>
					<path d="M374.3,169.1l-18.6,4.3l3.8,16.3l3.8-0.9l0.6,2.7l17.6-4.1l-3.5-15.3l-2.8,0.7L374.3,169.1z M376.9,184.6l-16.7,3.8
						l-3.3-14.4l16.7-3.8L376.9,184.6z"/>
					<polygon points="366.4,184 369.8,183.2 369.6,182.3 370.5,182.1 369.7,178.8 368.9,178.9 368.7,178.1 366.1,178.7 365.7,177 
						369.1,176.2 368.9,175.3 363.8,176.5 364.8,180.8 366.5,180.4 366.3,179.5 368,179.1 368.8,182.5 367.1,182.9 366.9,182.1 
						365.2,182.5 365.4,183.3 366.2,183.1 					"/>
					<path d="M397.3,163.8l-18.6,4.3l3.8,16.3l3.8-0.9l0.6,2.7l17.6-4.1l-3.5-15.3l-2.8,0.7L397.3,163.8z M399.9,179.3l-16.7,3.8
						l-3.3-14.4l16.7-3.8L399.9,179.3z"/>
					<path d="M388.9,178.8l3.4-0.8l-0.2-0.9l0.9-0.2l-0.6-2.6l-0.9,0.2l-0.2-0.8l-2.6,0.6l-0.6-2.6l1.7-0.4l0.4,1.7l1.7-0.4
						l-0.4-1.7l-0.9,0.2l-0.2-0.9l-3.4,0.8l0.2,0.9l-0.8,0.2l1.4,6l0.8-0.2L388.9,178.8z M389,175.2l1.7-0.4l0.6,2.6l-1.7,0.4
						L389,175.2z"/>
					<path d="M427.5,176.9l-3.5-15.3l-2.8,0.7l-0.9-3.7l-18.6,4.3l3.8,16.3l3.8-0.9l0.6,2.7L427.5,176.9z M406.2,177.9l-3.3-14.4
						l16.7-3.8l3.3,14.4L406.2,177.9z"/>
					<rect x="410.1" y="168.8" transform="matrix(0.9744 -0.225 0.225 0.9744 -27.494 97.1903)" width="5.2" height="0.9"/>
					<polygon points="424,214 422.2,214.4 422.6,216.1 420.9,216.5 421.1,217.3 422.8,216.9 423.2,218.6 424.9,218.2 424.5,216.5 
						426.2,216.1 426.1,215.3 424.3,215.7 					"/>
					<path d="M364.1,216.5l-3.5-15.3l-2.8,0.7l-0.9-3.7l-18.6,4.3l3.8,16.3l3.8-0.9l0.6,2.7L364.1,216.5z M342.8,217.5l-3.3-14.4
						l16.7-3.8l3.3,14.4L342.8,217.5z"/>
					<polygon points="349.2,204.8 347.5,205.2 347.7,206.1 346.8,206.3 347,207.1 347.9,206.9 349.1,212 348.2,212.2 348.4,213.1 
						351.8,212.3 351.6,211.5 350.8,211.7 					"/>
					<path d="M355.2,226.7l-3.4,0.8l0.2,0.9l-0.8,0.2l1.4,6l0.8-0.2l0.2,0.9l3.4-0.8l-0.2-0.9l0.9-0.2l-1.4-5.9l-0.9,0.2
						L355.2,226.7z M355.9,233.8l-1.7,0.4l-1.4-6l1.7-0.4L355.9,233.8z"/>
					<path d="M379.8,192.8l-18.6,4.3l3.8,16.3l3.8-0.9l0.6,2.7l17.6-4.1l-3.5-15.3l-2.8,0.7L379.8,192.8z M382.4,208.3l-16.7,3.8
						l-3.3-14.4l16.7-3.8L382.4,208.3z"/>
					<polygon points="376,205.8 373.4,206.4 373.2,205.6 374.1,205.4 373.9,204.5 374.7,204.3 374.5,203.5 375.4,203.3 374.6,199.9 
						373.7,200.1 373.5,199.2 370.1,200 370.3,200.9 369.5,201.1 370.1,203.6 371.8,203.2 371.2,200.7 372.9,200.3 373.7,203.7 
						372.8,203.9 373,204.7 372.2,204.9 372.4,205.8 371.5,206 371.7,206.8 370.9,207 371.1,207.9 376.2,206.7 					"/>
					<path d="M402.8,187.5l-18.6,4.3l3.8,16.3l3.8-0.9l0.6,2.7l17.6-4.1l-3.5-15.3l-2.8,0.7L402.8,187.5z M405.3,203l-16.7,3.8
						l-3.3-14.4l16.7-3.8L405.3,203z"/>
					<polygon points="394.4,202.5 397.8,201.7 397.6,200.8 398.5,200.6 397.9,198.1 397,198.3 396.8,197.4 397.7,197.2 397.1,194.7 
						396.3,194.9 396.1,194 392.6,194.8 392.8,195.7 392,195.9 392.4,197.6 394.1,197.2 393.7,195.5 395.4,195.1 396,197.6 
						395.1,197.8 395.3,198.7 396.2,198.5 396.8,201 395.1,201.4 394.7,199.7 393,200.1 393.4,201.8 394.2,201.6 					"/>
					<path d="M408.1,210.5l-18.6,4.3l3.8,16.3l3.8-0.9l0.6,2.7l17.6-4.1l-3.5-15.3l-2.8,0.7L408.1,210.5z M410.7,226.1l-16.7,3.8
						l-3.3-14.4l16.7-3.8L410.7,226.1z"/>
					<rect x="400.9" y="223.3" transform="matrix(0.9744 -0.225 0.225 0.9744 -40.1226 96.1335)" width="1.7" height="1.7"/>
					<path d="M426.2,182.1l-19.1,4.4l9.2,40l3.7-0.9l0.6,2.8l18-4.2l-9-38.9l-2.7,0.6L426.2,182.1z M408.4,187.3l17-3.9l8.7,37.9
						l-17,3.9L408.4,187.3z"/>
					<path d="M384.3,216.1l-41,9.5l3.6,15.7l3.8-0.9l0.8,3.3l40-9.2l-3.4-14.7l-2.8,0.6L384.3,216.1z M344.5,226.3l39-9l3.2,13.7
						l-39,9L344.5,226.3z"/>
				</g>
			</g>
		</g>
	</g>
	<g>
		<path d="M368.3,98.7l0.5,2l1-0.2l-0.2-1l1-0.2l0.9,4l1-0.2l0.2,1l-1,0.2l0.7,3l-2,0.5l-0.7-3l-3,0.7l-0.9-4l1-0.2l-0.5-2
			L368.3,98.7z M367.8,100.9l0.7,3l1-0.2l-0.7-3L367.8,100.9z"/>
		<path d="M373,101.8l-0.7-3l1-0.2l-0.2-1l4-0.9l0.2,1l1-0.2l0.9,4l-1,0.2l0.2,1l-1,0.2l0.2,1l-1,0.2l0.2,1l3-0.7l0.2,1l-6,1.4
			l-0.2-1l1-0.2l-0.2-1l1-0.2l-0.2-1l1-0.2l-0.2-1l1-0.2l-0.9-4l-2,0.5l0.7,3L373,101.8z"/>
		<path d="M383.8,95.1l0.2,1l1-0.2l1.6,6.9l-1,0.2l0.2,1l-4,0.9l-0.2-1l-1,0.2l-1.6-6.9l1-0.2l-0.2-1L383.8,95.1z M381.1,96.8
			l1.6,6.9l2-0.5l-1.6-6.9L381.1,96.8z"/>
		<path d="M390.6,93.6l0.2,1l1-0.2l0.5,2l-2,0.5l-0.5-2l-2,0.5l0.7,3l3-0.7l0.2,1l1-0.2l0.7,3l-1,0.2l0.2,1l-4,0.9l-0.2-1l-1,0.2
			l-1.6-6.9l1-0.2l-0.2-1L390.6,93.6z M388.7,99.2l0.7,3l2-0.5l-0.7-3L388.7,99.2z"/>
		<path d="M393.7,99.1l2-0.5l0.5,2l2-0.5l-0.7-3l-3,0.7l-0.2-1l-1,0.2l-0.7-3l1-0.2l-0.2-1l4-0.9l0.2,1l1-0.2l1.6,6.9l-1,0.2l0.2,1
			l-4,0.9l-0.2-1l-1,0.2L393.7,99.1z M394.6,93.7l0.7,3l2-0.5l-0.7-3L394.6,93.7z"/>
	</g>
</g>
<g>
	<rect x="87.8" y="475.3" width="3.6" height="3.6"/>
	<rect x="87.8" y="471.7" width="3.6" height="3.6"/>
	<rect x="87.8" y="468.1" width="3.6" height="3.6"/>
	<rect x="87.8" y="464.5" width="3.6" height="3.6"/>
	<rect x="87.8" y="460.9" width="3.6" height="3.6"/>
	<rect x="87.8" y="457.4" width="3.6" height="3.6"/>
	<rect x="87.8" y="453.8" width="3.6" height="3.6"/>
	<rect x="87.8" y="450.2" width="3.6" height="3.6"/>
	<rect x="87.8" y="446.6" width="3.6" height="3.6"/>
	<rect x="87.8" y="443" width="3.6" height="3.6"/>
	<rect x="87.8" y="439.4" width="3.6" height="3.6"/>
	<rect x="84.2" y="475.3" width="3.6" height="3.6"/>
	<rect x="84.2" y="471.7" class="st3" width="3.6" height="3.6"/>
	<rect x="84.2" y="468.1" class="st3" width="3.6" height="3.6"/>
	<rect x="84.2" y="464.5" class="st1" width="3.6" height="3.6"/>
	<rect x="84.2" y="460.9" class="st1" width="3.6" height="3.6"/>
	<rect x="84.2" y="457.4" class="st1" width="3.6" height="3.6"/>
	<rect x="84.2" y="453.8" class="st2" width="3.6" height="3.6"/>
	<rect x="84.2" y="450.2" class="st2" width="3.6" height="3.6"/>
	<rect x="84.2" y="446.6" class="st1" width="3.6" height="3.6"/>
	<rect x="84.2" y="443" class="st1" width="3.6" height="3.6"/>
	<rect x="84.2" y="439.4" width="3.6" height="3.6"/>
	<rect x="81" y="475.3" width="3.2" height="3.6"/>
	<rect x="81" y="471.7" class="st3" width="3.2" height="3.6"/>
	<rect x="81" y="468.1" class="st3" width="3.2" height="3.6"/>
	<rect x="81" y="464.5" class="st1" width="3.2" height="3.6"/>
	<rect x="81" y="460.9" class="st1" width="3.2" height="3.6"/>
	<rect x="81" y="457.4" class="st1" width="3.2" height="3.6"/>
	<rect x="81" y="453.8" class="st2" width="3.2" height="3.6"/>
	<rect x="81" y="450.2" class="st2" width="3.2" height="3.6"/>
	<rect x="81" y="446.6" class="st1" width="3.2" height="3.6"/>
	<rect x="81" y="443" class="st1" width="3.2" height="3.6"/>
	<rect x="81" y="439.4" width="3.2" height="3.6"/>
	<rect x="77.4" y="475.3" width="3.6" height="3.6"/>
	<rect x="77.4" y="471.7" width="3.6" height="3.6"/>
	<rect x="77.4" y="468.1" width="3.6" height="3.6"/>
	<rect x="77.4" y="464.5" width="3.6" height="3.6"/>
	<rect x="77.4" y="460.9" width="3.6" height="3.6"/>
	<rect x="77.4" y="457.4" width="3.6" height="3.6"/>
	<rect x="77.4" y="453.8" width="3.6" height="3.6"/>
	<rect x="77.4" y="450.2" width="3.6" height="3.6"/>
	<rect x="77.4" y="446.6" width="3.6" height="3.6"/>
	<rect x="77.4" y="443" width="3.6" height="3.6"/>
	<rect x="77.4" y="439.4" width="3.6" height="3.6"/>
</g>
<g>
	<rect x="180.8" y="182.5" width="4.8" height="4.8"/>
	<rect x="180.8" y="177.7" width="4.8" height="4.8"/>
	<rect x="180.8" y="172.9" width="4.8" height="4.8"/>
	<rect x="180.8" y="168.1" width="4.8" height="4.8"/>
	<rect x="180.8" y="163.2" width="4.8" height="4.8"/>
	<rect x="180.8" y="158.9" width="4.8" height="4.3"/>
	<rect x="180.8" y="154.1" width="4.8" height="4.8"/>
	<rect x="175.9" y="187.4" width="4.8" height="4.8"/>
	<rect x="175.9" y="182.5" class="st5" width="4.8" height="4.8"/>
	<rect x="175.9" y="177.7" class="st5" width="4.8" height="4.8"/>
	<rect x="175.9" y="172.9" class="st5" width="4.8" height="4.8"/>
	<rect x="175.9" y="168.1" class="st5" width="4.8" height="4.8"/>
	<rect x="175.9" y="163.2" class="st5" width="4.8" height="4.8"/>
	<rect x="175.9" y="158.9" class="st5" width="4.8" height="4.3"/>
	<rect x="175.9" y="154.1" class="st5" width="4.8" height="4.8"/>
	<rect x="175.9" y="149.2" width="4.8" height="4.8"/>
	<rect x="171.1" y="192.2" width="4.8" height="4.8"/>
	<rect x="171.1" y="187.4" class="st5" width="4.8" height="4.8"/>
	<rect x="171.1" y="182.5" class="st2" width="4.8" height="4.8"/>
	<rect x="171.1" y="177.7" class="st2" width="4.8" height="4.8"/>
	<rect x="171.1" y="172.9" class="st2" width="4.8" height="4.8"/>
	<rect x="171.1" y="168.1" class="st6" width="4.8" height="4.8"/>
	<rect x="171.1" y="163.2" class="st2" width="4.8" height="4.8"/>
	<rect x="171.1" y="158.9" class="st2" width="4.8" height="4.3"/>
	<rect x="171.1" y="154.1" class="st2" width="4.8" height="4.8"/>
	<rect x="171.1" y="149.2" class="st5" width="4.8" height="4.8"/>
	<rect x="171.1" y="144.4" width="4.8" height="4.8"/>
	<rect x="166.3" y="197" width="4.8" height="4.8"/>
	<rect x="166.3" y="192.2" class="st5" width="4.8" height="4.8"/>
	<rect x="166.3" y="187.4" class="st2" width="4.8" height="4.8"/>
	<rect x="166.3" y="182.5" class="st2" width="4.8" height="4.8"/>
	<rect x="166.3" y="177.7" class="st2" width="4.8" height="4.8"/>
	<rect x="166.3" y="172.9" class="st2" width="4.8" height="4.8"/>
	<rect x="166.3" y="168.1" class="st2" width="4.8" height="4.8"/>
	<rect x="166.3" y="163.2" class="st2" width="4.8" height="4.8"/>
	<rect x="166.3" y="158.9" class="st2" width="4.8" height="4.3"/>
	<rect x="166.3" y="154.1" class="st2" width="4.8" height="4.8"/>
	<rect x="166.3" y="149.2" class="st2" width="4.8" height="4.8"/>
	<rect x="166.3" y="144.4" class="st5" width="4.8" height="4.8"/>
	<rect x="166.3" y="139.6" width="4.8" height="4.8"/>
	<rect x="161.5" y="201.8" width="4.8" height="4.8"/>
	<rect x="161.5" y="197" class="st5" width="4.8" height="4.8"/>
	<rect x="161.5" y="192.2" class="st2" width="4.8" height="4.8"/>
	<rect x="161.5" y="187.4" class="st2" width="4.8" height="4.8"/>
	<rect x="161.5" y="182.5" class="st2" width="4.8" height="4.8"/>
	<rect x="161.5" y="177.7" class="st2" width="4.8" height="4.8"/>
	<rect x="161.5" y="172.9" class="st2" width="4.8" height="4.8"/>
	<rect x="161.5" y="168.1" class="st2" width="4.8" height="4.8"/>
	<rect x="161.5" y="163.2" class="st2" width="4.8" height="4.8"/>
	<rect x="161.5" y="158.9" class="st2" width="4.8" height="4.3"/>
	<rect x="161.5" y="154.1" class="st5" width="4.8" height="4.8"/>
	<rect x="161.5" y="149.2" class="st2" width="4.8" height="4.8"/>
	<rect x="161.5" y="144.4" class="st7" width="4.8" height="4.8"/>
	<rect x="161.5" y="139.6" class="st5" width="4.8" height="4.8"/>
	<rect x="161.5" y="134.8" width="4.8" height="4.8"/>
	<rect x="156.6" y="201.8" width="4.8" height="4.8"/>
	<rect x="156.6" y="197" class="st5" width="4.8" height="4.8"/>
	<rect x="156.6" y="192.2" class="st2" width="4.8" height="4.8"/>
	<rect x="156.6" y="187.4" class="st2" width="4.8" height="4.8"/>
	<rect x="156.6" y="182.5" class="st2" width="4.8" height="4.8"/>
	<rect x="156.6" y="177.7" class="st2" width="4.8" height="4.8"/>
	<rect x="156.6" y="172.9" class="st2" width="4.8" height="4.8"/>
	<rect x="156.6" y="168.1" class="st2" width="4.8" height="4.8"/>
	<rect x="156.6" y="163.2" class="st2" width="4.8" height="4.8"/>
	<rect x="156.6" y="158.9" class="st5" width="4.8" height="4.3"/>
	<rect x="156.6" y="154.1" class="st2" width="4.8" height="4.8"/>
	<rect x="156.6" y="149.2" class="st2" width="4.8" height="4.8"/>
	<rect x="156.6" y="144.4" class="st7" width="4.8" height="4.8"/>
	<rect x="156.6" y="139.6" class="st5" width="4.8" height="4.8"/>
	<rect x="156.6" y="134.8" width="4.8" height="4.8"/>
	<rect x="151.8" y="201.8" width="4.8" height="4.8"/>
	<rect x="151.8" y="197" class="st5" width="4.8" height="4.8"/>
	<rect x="151.8" y="192.2" class="st2" width="4.8" height="4.8"/>
	<rect x="151.8" y="187.4" class="st2" width="4.8" height="4.8"/>
	<rect x="151.8" y="182.5" class="st2" width="4.8" height="4.8"/>
	<rect x="151.8" y="177.7" class="st2" width="4.8" height="4.8"/>
	<rect x="151.8" y="172.9" class="st2" width="4.8" height="4.8"/>
	<rect x="151.8" y="168.1" class="st2" width="4.8" height="4.8"/>
	<rect x="151.8" y="163.2" class="st5" width="4.8" height="4.8"/>
	<rect x="151.8" y="158.9" class="st2" width="4.8" height="4.3"/>
	<rect x="151.8" y="154.1" class="st2" width="4.8" height="4.8"/>
	<rect x="151.8" y="149.2" class="st2" width="4.8" height="4.8"/>
	<rect x="151.8" y="144.4" class="st7" width="4.8" height="4.8"/>
	<rect x="151.8" y="139.6" class="st5" width="4.8" height="4.8"/>
	<rect x="151.8" y="134.8" width="4.8" height="4.8"/>
	<rect x="147" y="201.8" width="4.8" height="4.8"/>
	<rect x="147" y="197" class="st5" width="4.8" height="4.8"/>
	<rect x="147" y="192.2" class="st6" width="4.8" height="4.8"/>
	<rect x="147" y="187.4" class="st2" width="4.8" height="4.8"/>
	<rect x="147" y="182.5" class="st2" width="4.8" height="4.8"/>
	<rect x="147" y="177.7" class="st2" width="4.8" height="4.8"/>
	<rect x="147" y="172.9" class="st2" width="4.8" height="4.8"/>
	<rect x="147" y="168.1" class="st5" width="4.8" height="4.8"/>
	<rect x="147" y="163.2" class="st2" width="4.8" height="4.8"/>
	<rect x="147" y="158.9" class="st2" width="4.8" height="4.3"/>
	<rect x="147" y="154.1" class="st2" width="4.8" height="4.8"/>
	<rect x="147" y="149.2" class="st2" width="4.8" height="4.8"/>
	<rect x="147" y="144.4" class="st6" width="4.8" height="4.8"/>
	<rect x="147" y="139.6" class="st5" width="4.8" height="4.8"/>
	<rect x="147" y="134.8" width="4.8" height="4.8"/>
	<rect x="142.2" y="201.8" width="4.8" height="4.8"/>
	<rect x="142.2" y="197" class="st5" width="4.8" height="4.8"/>
	<rect x="142.2" y="192.2" class="st2" width="4.8" height="4.8"/>
	<rect x="142.2" y="187.4" class="st2" width="4.8" height="4.8"/>
	<rect x="142.2" y="182.5" class="st2" width="4.8" height="4.8"/>
	<rect x="142.2" y="177.7" class="st2" width="4.8" height="4.8"/>
	<rect x="142.2" y="172.9" class="st2" width="4.8" height="4.8"/>
	<rect x="142.2" y="168.1" class="st5" width="4.8" height="4.8"/>
	<rect x="142.2" y="163.2" class="st2" width="4.8" height="4.8"/>
	<rect x="142.2" y="158.9" class="st2" width="4.8" height="4.3"/>
	<rect x="142.2" y="154.1" class="st2" width="4.8" height="4.8"/>
	<rect x="142.2" y="149.2" class="st8" width="4.8" height="4.8"/>
	<rect x="142.2" y="144.4" class="st7" width="4.8" height="4.8"/>
	<rect x="142.2" y="139.6" class="st5" width="4.8" height="4.8"/>
	<rect x="142.2" y="134.8" width="4.8" height="4.8"/>
	<rect x="137.3" y="201.8" width="4.8" height="4.8"/>
	<rect x="137.3" y="197" class="st5" width="4.8" height="4.8"/>
	<rect x="137.3" y="192.2" class="st2" width="4.8" height="4.8"/>
	<rect x="137.3" y="187.4" class="st2" width="4.8" height="4.8"/>
	<rect x="137.3" y="182.5" class="st2" width="4.8" height="4.8"/>
	<rect x="137.3" y="177.7" class="st2" width="4.8" height="4.8"/>
	<rect x="137.3" y="172.9" class="st2" width="4.8" height="4.8"/>
	<rect x="137.3" y="168.1" class="st5" width="4.8" height="4.8"/>
	<rect x="137.3" y="163.2" class="st2" width="4.8" height="4.8"/>
	<rect x="137.3" y="158.9" class="st2" width="4.8" height="4.3"/>
	<rect x="137.3" y="154.1" class="st2" width="4.8" height="4.8"/>
	<rect x="137.3" y="149.2" class="st8" width="4.8" height="4.8"/>
	<rect x="137.3" y="144.4" class="st7" width="4.8" height="4.8"/>
	<rect x="137.3" y="139.6" class="st5" width="4.8" height="4.8"/>
	<rect x="137.3" y="134.8" width="4.8" height="4.8"/>
	<rect x="132.5" y="201.8" width="4.8" height="4.8"/>
	<rect x="132.5" y="197" class="st5" width="4.8" height="4.8"/>
	<rect x="132.5" y="192.2" class="st2" width="4.8" height="4.8"/>
	<rect x="132.5" y="187.4" class="st2" width="4.8" height="4.8"/>
	<rect x="132.5" y="182.5" class="st2" width="4.8" height="4.8"/>
	<rect x="132.5" y="177.7" class="st2" width="4.8" height="4.8"/>
	<rect x="132.5" y="172.9" class="st2" width="4.8" height="4.8"/>
	<rect x="132.5" y="168.1" class="st5" width="4.8" height="4.8"/>
	<rect x="132.5" y="163.2" class="st2" width="4.8" height="4.8"/>
	<rect x="132.5" y="158.9" class="st2" width="4.8" height="4.3"/>
	<rect x="132.5" y="154.1" class="st8" width="4.8" height="4.8"/>
	<rect x="132.5" y="149.2" class="st7" width="4.8" height="4.8"/>
	<rect x="132.5" y="144.4" class="st7" width="4.8" height="4.8"/>
	<rect x="132.5" y="139.6" class="st5" width="4.8" height="4.8"/>
	<rect x="132.5" y="134.8" width="4.8" height="4.8"/>
	<rect x="127.7" y="197" width="4.8" height="4.8"/>
	<rect x="127.7" y="192.2" class="st5" width="4.8" height="4.8"/>
	<rect x="127.7" y="187.4" class="st2" width="4.8" height="4.8"/>
	<rect x="127.7" y="182.5" class="st2" width="4.8" height="4.8"/>
	<rect x="127.7" y="177.7" class="st2" width="4.8" height="4.8"/>
	<rect x="127.7" y="172.9" class="st2" width="4.8" height="4.8"/>
	<rect x="127.7" y="168.1" class="st2" width="4.8" height="4.8"/>
	<rect x="127.7" y="163.2" class="st2" width="4.8" height="4.8"/>
	<rect x="127.7" y="158.9" class="st8" width="4.8" height="4.3"/>
	<rect x="127.7" y="154.1" class="st7" width="4.8" height="4.8"/>
	<rect x="127.7" y="149.2" class="st7" width="4.8" height="4.8"/>
	<rect x="127.7" y="144.4" class="st5" width="4.8" height="4.8"/>
	<rect x="127.7" y="139.6" width="4.8" height="4.8"/>
	<rect x="122.9" y="192.2" width="4.8" height="4.8"/>
	<rect x="122.9" y="187.4" class="st5" width="4.8" height="4.8"/>
	<rect x="122.9" y="182.5" class="st7" width="4.8" height="4.8"/>
	<rect x="122.9" y="177.7" class="st7" width="4.8" height="4.8"/>
	<rect x="122.9" y="172.9" class="st7" width="4.8" height="4.8"/>
	<rect x="122.9" y="168.1" class="st6" width="4.8" height="4.8"/>
	<rect x="122.9" y="163.2" class="st7" width="4.8" height="4.8"/>
	<rect x="122.9" y="158.9" class="st7" width="4.8" height="4.3"/>
	<rect x="122.9" y="154.1" class="st7" width="4.8" height="4.8"/>
	<rect x="122.9" y="149.2" class="st5" width="4.8" height="4.8"/>
	<rect x="122.9" y="144.4" width="4.8" height="4.8"/>
	<rect x="118.5" y="187.4" width="4.3" height="4.8"/>
	<rect x="118.5" y="182.5" class="st5" width="4.3" height="4.8"/>
	<rect x="118.5" y="177.7" class="st5" width="4.3" height="4.8"/>
	<rect x="118.5" y="172.9" class="st5" width="4.3" height="4.8"/>
	<rect x="118.5" y="168.1" class="st5" width="4.3" height="4.8"/>
	<rect x="118.5" y="163.2" class="st5" width="4.3" height="4.8"/>
	<rect x="118.5" y="158.9" class="st5" width="4.3" height="4.3"/>
	<rect x="118.5" y="154.1" class="st5" width="4.3" height="4.8"/>
	<rect x="118.5" y="149.2" width="4.3" height="4.8"/>
	<rect x="113.7" y="182.5" width="4.8" height="4.8"/>
	<rect x="113.7" y="177.7" width="4.8" height="4.8"/>
	<rect x="113.7" y="172.9" width="4.8" height="4.8"/>
	<rect x="113.7" y="168.1" width="4.8" height="4.8"/>
	<rect x="113.7" y="163.2" width="4.8" height="4.8"/>
	<rect x="113.7" y="158.9" width="4.8" height="4.3"/>
	<rect x="113.7" y="154.1" width="4.8" height="4.8"/>
</g>
<g>
	<rect x="311.2" y="178" width="7.4" height="8.3"/>
	<rect x="311.2" y="169.7" width="7.4" height="8.3"/>
	<rect x="311.2" y="161.5" width="7.4" height="8.3"/>
	<rect x="311.2" y="153.2" width="7.4" height="8.3"/>
	<rect x="311.2" y="145" width="7.4" height="8.3"/>
	<rect x="303" y="186.2" width="8.3" height="8.3"/>
	<rect x="303" y="178" class="st1" width="8.3" height="8.3"/>
	<rect x="303" y="169.7" class="st1" width="8.3" height="8.3"/>
	<rect x="303" y="161.5" class="st1" width="8.3" height="8.3"/>
	<rect x="303" y="153.2" class="st1" width="8.3" height="8.3"/>
	<rect x="303" y="145" class="st1" width="8.3" height="8.3"/>
	<rect x="303" y="136.7" width="8.3" height="8.3"/>
	<rect x="294.7" y="194.5" width="8.3" height="8.3"/>
	<rect x="294.7" y="186.2" class="st1" width="8.3" height="8.3"/>
	<rect x="294.7" y="178" class="st1" width="8.3" height="8.3"/>
	<rect x="294.7" y="169.7" class="st2" width="8.3" height="8.3"/>
	<rect x="294.7" y="161.5" class="st1" width="8.3" height="8.3"/>
	<rect x="294.7" y="153.2" class="st1" width="8.3" height="8.3"/>
	<rect x="294.7" y="145" class="st3" width="8.3" height="8.3"/>
	<rect x="294.7" y="136.7" class="st1" width="8.3" height="8.3"/>
	<rect x="294.7" y="128.5" width="8.3" height="8.3"/>
	<rect x="286.5" y="202.7" width="8.3" height="8.3"/>
	<rect x="286.5" y="194.5" class="st1" width="8.3" height="8.3"/>
	<rect x="286.5" y="186.2" class="st1" width="8.3" height="8.3"/>
	<rect x="286.5" y="178" class="st2" width="8.3" height="8.3"/>
	<rect x="286.5" y="169.7" class="st1" width="8.3" height="8.3"/>
	<rect x="286.5" y="161.5" class="st3" width="8.3" height="8.3"/>
	<rect x="286.5" y="153.2" class="st1" width="8.3" height="8.3"/>
	<rect x="286.5" y="145" class="st3" width="8.3" height="8.3"/>
	<rect x="286.5" y="136.7" class="st3" width="8.3" height="8.3"/>
	<rect x="286.5" y="128.5" class="st1" width="8.3" height="8.3"/>
	<rect x="286.5" y="120.2" width="8.3" height="8.3"/>
	<rect x="278.2" y="202.7" width="8.3" height="8.3"/>
	<rect x="278.2" y="194.5" class="st1" width="8.3" height="8.3"/>
	<rect x="278.2" y="186.2" class="st1" width="8.3" height="8.3"/>
	<rect x="278.2" y="178" class="st1" width="8.3" height="8.3"/>
	<rect x="278.2" y="169.7" class="st1" width="8.3" height="8.3"/>
	<rect x="278.2" y="161.5" class="st1" width="8.3" height="8.3"/>
	<rect x="278.2" y="153.2" class="st3" width="8.3" height="8.3"/>
	<rect x="278.2" y="145" class="st3" width="8.3" height="8.3"/>
	<rect x="278.2" y="136.7" class="st2" width="8.3" height="8.3"/>
	<rect x="278.2" y="128.5" class="st1" width="8.3" height="8.3"/>
	<rect x="278.2" y="120.2" width="8.3" height="8.3"/>
	<rect x="270" y="202.7" width="8.3" height="8.3"/>
	<rect x="270" y="194.5" width="8.3" height="8.3"/>
	<rect x="270" y="186.2" class="st1" width="8.3" height="8.3"/>
	<rect x="270" y="178" class="st1" width="8.3" height="8.3"/>
	<rect x="270" y="169.7" class="st3" width="8.3" height="8.3"/>
	<rect x="270" y="161.5" class="st3" width="8.3" height="8.3"/>
	<rect x="270" y="153.2" class="st3" width="8.3" height="8.3"/>
	<rect x="270" y="145" class="st2" width="8.3" height="8.3"/>
	<rect x="270" y="136.7" class="st1" width="8.3" height="8.3"/>
	<rect x="270" y="128.5" width="8.3" height="8.3"/>
	<rect x="270" y="120.2" width="8.3" height="8.3"/>
	<rect x="261.7" y="202.7" width="8.3" height="8.3"/>
	<rect x="261.7" y="194.5" class="st1" width="8.3" height="8.3"/>
	<rect x="261.7" y="186.2" width="8.3" height="8.3"/>
	<rect x="261.7" y="178" class="st1" width="8.3" height="8.3"/>
	<rect x="261.7" y="169.7" class="st1" width="8.3" height="8.3"/>
	<rect x="261.7" y="161.5" class="st1" width="8.3" height="8.3"/>
	<rect x="261.7" y="153.2" class="st1" width="8.3" height="8.3"/>
	<rect x="261.7" y="145" class="st1" width="8.3" height="8.3"/>
	<rect x="261.7" y="136.7" width="8.3" height="8.3"/>
	<rect x="261.7" y="128.5" class="st1" width="8.3" height="8.3"/>
	<rect x="261.7" y="120.2" width="8.3" height="8.3"/>
	<rect x="253.5" y="194.5" width="8.3" height="8.3"/>
	<rect x="253.5" y="186.2" class="st1" width="8.3" height="8.3"/>
	<rect x="253.5" y="178" width="8.3" height="8.3"/>
	<rect x="253.5" y="169.7" width="8.3" height="8.3"/>
	<rect x="253.5" y="161.5" width="8.3" height="8.3"/>
	<rect x="253.5" y="153.2" width="8.3" height="8.3"/>
	<rect x="253.5" y="145" width="8.3" height="8.3"/>
	<rect x="253.5" y="136.7" class="st1" width="8.3" height="8.3"/>
	<rect x="253.5" y="128.5" width="8.3" height="8.3"/>
	<rect x="245.2" y="186.2" width="8.3" height="8.3"/>
	<rect x="245.2" y="178" class="st1" width="8.3" height="8.3"/>
	<rect x="245.2" y="169.7" class="st1" width="8.3" height="8.3"/>
	<rect x="245.2" y="161.5" class="st1" width="8.3" height="8.3"/>
	<rect x="245.2" y="153.2" class="st2" width="8.3" height="8.3"/>
	<rect x="245.2" y="145" class="st2" width="8.3" height="8.3"/>
	<rect x="245.2" y="136.7" width="8.3" height="8.3"/>
	<rect x="237" y="178" width="8.3" height="8.3"/>
	<rect x="237" y="169.7" width="8.3" height="8.3"/>
	<rect x="237" y="161.5" width="8.3" height="8.3"/>
	<rect x="237" y="153.2" width="8.3" height="8.3"/>
	<rect x="237" y="145" width="8.3" height="8.3"/>
</g>
<g>
	<rect x="325.2" y="54.1" width="7.1" height="7.1"/>
	<rect x="325.2" y="47" width="7.1" height="7.1"/>
	<rect x="325.2" y="39.9" width="7.1" height="7.1"/>
	<rect x="318.1" y="61.2" width="7.1" height="7.1"/>
	<rect x="318.1" y="54.1" class="st1" width="7.1" height="7.1"/>
	<rect x="318.1" y="47" class="st1" width="7.1" height="7.1"/>
	<rect x="318.1" y="39.9" class="st1" width="7.1" height="7.1"/>
	<rect x="318.1" y="32.8" width="7.1" height="7.1"/>
	<rect x="311" y="68.3" width="7.1" height="7.1"/>
	<rect x="311" y="61.2" class="st1" width="7.1" height="7.1"/>
	<rect x="311" y="54.1" class="st1" width="7.1" height="7.1"/>
	<rect x="311" y="47" class="st3" width="7.1" height="7.1"/>
	<rect x="311" y="39.9" class="st1" width="7.1" height="7.1"/>
	<rect x="311" y="32.8" class="st1" width="7.1" height="7.1"/>
	<rect x="311" y="25.7" width="7.1" height="7.1"/>
	<rect x="303.9" y="75.3" width="7.1" height="7.1"/>
	<rect x="303.9" y="68.3" class="st1" width="7.1" height="7.1"/>
	<rect x="303.9" y="61.2" class="st1" width="7.1" height="7.1"/>
	<rect x="303.9" y="54.1" class="st2" width="7.1" height="7.1"/>
	<rect x="303.9" y="47" class="st1" width="7.1" height="7.1"/>
	<rect x="303.9" y="39.9" class="st3" width="7.1" height="7.1"/>
	<rect x="303.9" y="32.8" class="st1" width="7.1" height="7.1"/>
	<rect x="303.9" y="25.7" class="st1" width="7.1" height="7.1"/>
	<rect x="303.9" y="18.6" width="7.1" height="7.1"/>
	<rect x="297.5" y="82.4" width="6.4" height="7.1"/>
	<rect x="297.5" y="75.3" class="st1" width="6.4" height="7.1"/>
	<rect x="297.5" y="68.3" class="st1" width="6.4" height="7.1"/>
	<rect x="297.5" y="61.2" class="st2" width="6.4" height="7.1"/>
	<rect x="297.5" y="54.1" class="st1" width="6.4" height="7.1"/>
	<rect x="297.5" y="47" class="st1" width="6.4" height="7.1"/>
	<rect x="297.5" y="39.9" class="st1" width="6.4" height="7.1"/>
	<rect x="297.5" y="32.8" class="st3" width="6.4" height="7.1"/>
	<rect x="297.5" y="25.7" class="st1" width="6.4" height="7.1"/>
	<rect x="297.5" y="18.6" class="st1" width="6.4" height="7.1"/>
	<rect x="297.5" y="11.5" width="6.4" height="7.1"/>
	<rect x="290.4" y="82.4" width="7.1" height="7.1"/>
	<rect x="290.4" y="75.3" class="st1" width="7.1" height="7.1"/>
	<rect x="290.4" y="68.3" class="st2" width="7.1" height="7.1"/>
	<rect x="290.4" y="61.2" class="st1" width="7.1" height="7.1"/>
	<rect x="290.4" y="54.1" class="st1" width="7.1" height="7.1"/>
	<rect x="290.4" y="47" class="st3" width="7.1" height="7.1"/>
	<rect x="290.4" y="39.9" class="st1" width="7.1" height="7.1"/>
	<rect x="290.4" y="32.8" class="st3" width="7.1" height="7.1"/>
	<rect x="290.4" y="25.7" class="st3" width="7.1" height="7.1"/>
	<rect x="290.4" y="18.6" class="st1" width="7.1" height="7.1"/>
	<rect x="290.4" y="11.5" width="7.1" height="7.1"/>
	<rect x="283.3" y="82.4" width="7.1" height="7.1"/>
	<rect x="283.3" y="75.3" class="st1" width="7.1" height="7.1"/>
	<rect x="283.3" y="68.3" class="st1" width="7.1" height="7.1"/>
	<rect x="283.3" y="61.2" class="st1" width="7.1" height="7.1"/>
	<rect x="283.3" y="54.1" class="st3" width="7.1" height="7.1"/>
	<rect x="283.3" y="47" class="st3" width="7.1" height="7.1"/>
	<rect x="283.3" y="39.9" class="st3" width="7.1" height="7.1"/>
	<rect x="283.3" y="32.8" class="st3" width="7.1" height="7.1"/>
	<rect x="283.3" y="25.7" class="st2" width="7.1" height="7.1"/>
	<rect x="283.3" y="18.6" class="st1" width="7.1" height="7.1"/>
	<rect x="283.3" y="11.5" width="7.1" height="7.1"/>
	<rect x="276.2" y="75.3" width="7.1" height="7.1"/>
	<rect x="276.2" y="68.3" class="st1" width="7.1" height="7.1"/>
	<rect x="276.2" y="61.2" class="st1" width="7.1" height="7.1"/>
	<rect x="276.2" y="54.1" class="st1" width="7.1" height="7.1"/>
	<rect x="276.2" y="47" class="st3" width="7.1" height="7.1"/>
	<rect x="276.2" y="39.9" class="st3" width="7.1" height="7.1"/>
	<rect x="276.2" y="32.8" class="st2" width="7.1" height="7.1"/>
	<rect x="276.2" y="25.7" class="st1" width="7.1" height="7.1"/>
	<rect x="276.2" y="18.6" width="7.1" height="7.1"/>
	<rect x="269.1" y="68.3" width="7.1" height="7.1"/>
	<rect x="269.1" y="61.2" class="st1" width="7.1" height="7.1"/>
	<rect x="269.1" y="54.1" class="st1" width="7.1" height="7.1"/>
	<rect x="269.1" y="47" class="st3" width="7.1" height="7.1"/>
	<rect x="269.1" y="39.9" class="st2" width="7.1" height="7.1"/>
	<rect x="269.1" y="32.8" class="st1" width="7.1" height="7.1"/>
	<rect x="269.1" y="25.7" width="7.1" height="7.1"/>
	<rect x="262" y="61.2" width="7.1" height="7.1"/>
	<rect x="262" y="54.1" class="st1" width="7.1" height="7.1"/>
	<rect x="262" y="47" class="st1" width="7.1" height="7.1"/>
	<rect x="262" y="39.9" class="st1" width="7.1" height="7.1"/>
	<rect x="262" y="32.8" width="7.1" height="7.1"/>
	<rect x="254.9" y="54.1" width="7.1" height="7.1"/>
	<rect x="254.9" y="47" width="7.1" height="7.1"/>
	<rect x="254.9" y="39.9" width="7.1" height="7.1"/>
</g>
</svg>
