<?xml version="1.0" encoding="utf-8"?>
<!-- Generator: Adobe Illustrator 26.0.1, SVG Export Plug-In . SVG Version: 6.00 Build 0)  -->
<svg version="1.1" id="Layer_1" xmlns="http://www.w3.org/2000/svg" xmlns:xlink="http://www.w3.org/1999/xlink" x="0px" y="0px"
	 viewBox="0 0 512 512" style="enable-background:new 0 0 512 512;" xml:space="preserve">
<style type="text/css">
	.st0{fill:#DFFF0D;}
	.st1{fill:#FF0580;}
	.st2{opacity:0.8256;fill:#DFFF0D;enable-background:new    ;}
	.st3{opacity:0.7908;fill:#DFFF0D;enable-background:new    ;}
	.st4{opacity:0.8337;fill:#DFFF0D;enable-background:new    ;}
	.st5{opacity:0.7236;fill:#DFFF0D;enable-background:new    ;}
	.st6{opacity:0.7374;fill:#DFFF0D;enable-background:new    ;}
	.st7{opacity:0.7309;fill:#DFFF0D;enable-background:new    ;}
	.st8{opacity:0.898;fill:#DFFF0D;enable-background:new    ;}
	.st9{opacity:0.9714;fill:#DFFF0D;enable-background:new    ;}
	.st10{opacity:0.8592;fill:#DFFF0D;enable-background:new    ;}
	.st11{opacity:0.7463;fill:#DFFF0D;enable-background:new    ;}
	.st12{opacity:0.8105;fill:#DFFF0D;enable-background:new    ;}
	.st13{opacity:0.9048;fill:#DFFF0D;enable-background:new    ;}
	.st14{opacity:0.8211;fill:#DFFF0D;enable-background:new    ;}
	.st15{opacity:0.921;fill:#DFFF0D;enable-background:new    ;}
	.st16{opacity:0.8399;fill:#DFFF0D;enable-background:new    ;}
	.st17{opacity:0.9186;fill:#DFFF0D;enable-background:new    ;}
	.st18{opacity:0.7133;fill:#DFFF0D;enable-background:new    ;}
	.st19{opacity:0.8676;fill:#DFFF0D;enable-background:new    ;}
	.st20{opacity:0.9843;fill:#DFFF0D;enable-background:new    ;}
	.st21{opacity:0.9737;fill:#DFFF0D;enable-background:new    ;}
	.st22{opacity:0.8119;fill:#DFFF0D;enable-background:new    ;}
	.st23{opacity:0.9563;fill:#DFFF0D;enable-background:new    ;}
	.st24{opacity:0.7496;fill:#DFFF0D;enable-background:new    ;}
	.st25{opacity:0.9086;fill:#DFFF0D;enable-background:new    ;}
	.st26{opacity:0.8631;fill:#DFFF0D;enable-background:new    ;}
	.st27{opacity:0.891;fill:#DFFF0D;enable-background:new    ;}
	.st28{opacity:0.7113;fill:#DFFF0D;enable-background:new    ;}
	.st29{opacity:0.7556;fill:#DFFF0D;enable-background:new    ;}
	.st30{opacity:0.8646;fill:#DFFF0D;enable-background:new    ;}
	.st31{opacity:0.9864;fill:#DFFF0D;enable-background:new    ;}
	.st32{opacity:0.9767;fill:#DFFF0D;enable-background:new    ;}
	.st33{opacity:0.7918;fill:#DFFF0D;enable-background:new    ;}
	.st34{opacity:0.9365;fill:#DFFF0D;enable-background:new    ;}
	.st35{opacity:0.8482;fill:#DFFF0D;enable-background:new    ;}
	.st36{opacity:0.8118;fill:#DFFF0D;enable-background:new    ;}
	.st37{opacity:0.9001;fill:#DFFF0D;enable-background:new    ;}
	.st38{opacity:0.7216;fill:#DFFF0D;enable-background:new    ;}
	.st39{opacity:0.8109;fill:#DFFF0D;enable-background:new    ;}
	.st40{opacity:0.8501;fill:#DFFF0D;enable-background:new    ;}
	.st41{opacity:0.7711;fill:#DFFF0D;enable-background:new    ;}
	.st42{opacity:0.7059;fill:#DFFF0D;enable-background:new    ;}
	.st43{opacity:0.8348;fill:#DFFF0D;enable-background:new    ;}
	.st44{opacity:0.7472;fill:#DFFF0D;enable-background:new    ;}
	.st45{opacity:0.822;fill:#DFFF0D;enable-background:new    ;}
	.st46{opacity:0.7994;fill:#DFFF0D;enable-background:new    ;}
	.st47{opacity:0.717;fill:#DFFF0D;enable-background:new    ;}
	.st48{opacity:0.8986;fill:#DFFF0D;enable-background:new    ;}
	.st49{opacity:0.862;fill:#DFFF0D;enable-background:new    ;}
	.st50{opacity:0.55;fill:#DFFF0D;enable-background:new    ;}
	.st51{opacity:0.7;fill:#FF077F;enable-background:new    ;}
	.st52{opacity:0.9643;fill:#DFFF0D;enable-background:new    ;}
	.st53{opacity:0.9267;fill:#DFFF0D;enable-background:new    ;}
	.st54{opacity:0.8855;fill:#DFFF0D;enable-background:new    ;}
	.st55{opacity:0.9103;fill:#DFFF0D;enable-background:new    ;}
	.st56{opacity:0.9506;fill:#DFFF0D;enable-background:new    ;}
	.st57{opacity:0.8869;fill:#DFFF0D;enable-background:new    ;}
	.st58{opacity:0.864;fill:#DFFF0D;enable-background:new    ;}
	.st59{opacity:0.8344;fill:#DFFF0D;enable-background:new    ;}
	.st60{opacity:0.9129;fill:#DFFF0D;enable-background:new    ;}
	.st61{opacity:0.7951;fill:#DFFF0D;enable-background:new    ;}
	.st62{opacity:0.96;fill:#DFFF0D;enable-background:new    ;}
	.st63{opacity:0.8704;fill:#DFFF0D;enable-background:new    ;}
	.st64{opacity:0.7594;fill:#DFFF0D;enable-background:new    ;}
	.st65{opacity:0.9775;fill:#DFFF0D;enable-background:new    ;}
	.st66{opacity:0.9164;fill:#DFFF0D;enable-background:new    ;}
	.st67{opacity:0.87;fill:#DFFF0D;enable-background:new    ;}
	.st68{opacity:0.7009;fill:#DFFF0D;enable-background:new    ;}
	.st69{opacity:0.709;fill:#DFFF0D;enable-background:new    ;}
	.st70{opacity:0.9521;fill:#DFFF0D;enable-background:new    ;}
	.st71{opacity:0.8442;fill:#DFFF0D;enable-background:new    ;}
	.st72{opacity:0.9415;fill:#DFFF0D;enable-background:new    ;}
	.st73{opacity:0.7434;fill:#DFFF0D;enable-background:new    ;}
	.st74{opacity:0.8741;fill:#DFFF0D;enable-background:new    ;}
	.st75{opacity:0.7891;fill:#DFFF0D;enable-background:new    ;}
	.st76{opacity:0.9657;fill:#DFFF0D;enable-background:new    ;}
	.st77{opacity:0.7182;fill:#DFFF0D;enable-background:new    ;}
	.st78{opacity:0.8489;fill:#DFFF0D;enable-background:new    ;}
	.st79{opacity:0.9441;fill:#DFFF0D;enable-background:new    ;}
	.st80{opacity:0.82;fill:#DFFF0D;enable-background:new    ;}
	.st81{opacity:0.7464;fill:#DFFF0D;enable-background:new    ;}
	.st82{opacity:0.9079;fill:#DFFF0D;enable-background:new    ;}
	.st83{opacity:0.8255;fill:#DFFF0D;enable-background:new    ;}
	.st84{opacity:0.8401;fill:#DFFF0D;enable-background:new    ;}
	.st85{opacity:0.9748;fill:#DFFF0D;enable-background:new    ;}
	.st86{opacity:0.8661;fill:#DFFF0D;enable-background:new    ;}
	.st87{opacity:0.8571;fill:#DFFF0D;enable-background:new    ;}
	.st88{opacity:0.9473;fill:#DFFF0D;enable-background:new    ;}
	.st89{opacity:0.8919;fill:#DFFF0D;enable-background:new    ;}
	.st90{opacity:0.9898;fill:#DFFF0D;enable-background:new    ;}
	.st91{opacity:0.7981;fill:#DFFF0D;enable-background:new    ;}
	.st92{opacity:0.8662;fill:#DFFF0D;enable-background:new    ;}
	.st93{opacity:0.9216;fill:#DFFF0D;enable-background:new    ;}
	.st94{opacity:0.9726;fill:#DFFF0D;enable-background:new    ;}
	.st95{opacity:0.7729;fill:#DFFF0D;enable-background:new    ;}
	.st96{opacity:0.8036;fill:#DFFF0D;enable-background:new    ;}
	.st97{opacity:0.8653;fill:#DFFF0D;enable-background:new    ;}
	.st98{opacity:0.7952;fill:#DFFF0D;enable-background:new    ;}
	.st99{opacity:0.9825;fill:#DFFF0D;enable-background:new    ;}
	.st100{opacity:0.8663;fill:#DFFF0D;enable-background:new    ;}
	.st101{opacity:0.7838;fill:#DFFF0D;enable-background:new    ;}
	.st102{opacity:0.8925;fill:#DFFF0D;enable-background:new    ;}
	.st103{opacity:0.7211;fill:#DFFF0D;enable-background:new    ;}
	.st104{opacity:0.9427;fill:#DFFF0D;enable-background:new    ;}
	.st105{opacity:0.7131;fill:#DFFF0D;enable-background:new    ;}
	.st106{opacity:0.703;fill:#DFFF0D;enable-background:new    ;}
	.st107{opacity:0.9426;fill:#DFFF0D;enable-background:new    ;}
	.st108{opacity:0.8093;fill:#DFFF0D;enable-background:new    ;}
	.st109{opacity:0.9464;fill:#DFFF0D;enable-background:new    ;}
	.st110{opacity:0.9393;fill:#DFFF0D;enable-background:new    ;}
	.st111{opacity:0.789;fill:#DFFF0D;enable-background:new    ;}
	.st112{opacity:0.9755;fill:#DFFF0D;enable-background:new    ;}
	.st113{opacity:0.9893;fill:#DFFF0D;enable-background:new    ;}
	.st114{opacity:0.8244;fill:#DFFF0D;enable-background:new    ;}
	.st115{opacity:0.95;fill:#DFFF0D;enable-background:new    ;}
	.st116{opacity:0.7511;fill:#DFFF0D;enable-background:new    ;}
	.st117{opacity:0.842;fill:#DFFF0D;enable-background:new    ;}
	.st118{opacity:0.8516;fill:#DFFF0D;enable-background:new    ;}
	.st119{opacity:0.9802;fill:#DFFF0D;enable-background:new    ;}
	.st120{opacity:0.7284;fill:#DFFF0D;enable-background:new    ;}
	.st121{opacity:0.8092;fill:#DFFF0D;enable-background:new    ;}
	.st122{opacity:0.9354;fill:#DFFF0D;enable-background:new    ;}
	.st123{opacity:0.9527;fill:#DFFF0D;enable-background:new    ;}
	.st124{opacity:0.8181;fill:#DFFF0D;enable-background:new    ;}
	.st125{opacity:0.9923;fill:#DFFF0D;enable-background:new    ;}
	.st126{opacity:0.7679;fill:#DFFF0D;enable-background:new    ;}
	.st127{opacity:0.8781;fill:#DFFF0D;enable-background:new    ;}
	.st128{opacity:0.7307;fill:#DFFF0D;enable-background:new    ;}
	.st129{opacity:0.948;fill:#DFFF0D;enable-background:new    ;}
	.st130{opacity:0.7655;fill:#DFFF0D;enable-background:new    ;}
	.st131{opacity:0.9435;fill:#DFFF0D;enable-background:new    ;}
	.st132{opacity:0.9955;fill:#DFFF0D;enable-background:new    ;}
	.st133{opacity:0.8965;fill:#DFFF0D;enable-background:new    ;}
	.st134{opacity:0.7549;fill:#DFFF0D;enable-background:new    ;}
	.st135{opacity:0.9891;fill:#DFFF0D;enable-background:new    ;}
	.st136{opacity:0.8252;fill:#DFFF0D;enable-background:new    ;}
	.st137{opacity:0.7912;fill:#DFFF0D;enable-background:new    ;}
	.st138{opacity:0.8524;fill:#DFFF0D;enable-background:new    ;}
	.st139{opacity:0.7743;fill:#DFFF0D;enable-background:new    ;}
	.st140{opacity:0.9193;fill:#DFFF0D;enable-background:new    ;}
	.st141{opacity:0.8814;fill:#DFFF0D;enable-background:new    ;}
	.st142{opacity:0.735;fill:#DFFF0D;enable-background:new    ;}
	.st143{opacity:0.9831;fill:#DFFF0D;enable-background:new    ;}
	.st144{opacity:0.7312;fill:#DFFF0D;enable-background:new    ;}
	.st145{opacity:0.9226;fill:#DFFF0D;enable-background:new    ;}
	.st146{opacity:0.7675;fill:#DFFF0D;enable-background:new    ;}
	.st147{opacity:0.9438;fill:#DFFF0D;enable-background:new    ;}
	.st148{opacity:0.7732;fill:#DFFF0D;enable-background:new    ;}
	.st149{opacity:0.9963;fill:#DFFF0D;enable-background:new    ;}
	.st150{opacity:0.8513;fill:#DFFF0D;enable-background:new    ;}
	.st151{opacity:0.9005;fill:#DFFF0D;enable-background:new    ;}
	.st152{opacity:0.9414;fill:#DFFF0D;enable-background:new    ;}
	.st153{opacity:0.9728;fill:#DFFF0D;enable-background:new    ;}
	.st154{opacity:0.9204;fill:#DFFF0D;enable-background:new    ;}
	.st155{opacity:0.7997;fill:#DFFF0D;enable-background:new    ;}
	.st156{opacity:0.9423;fill:#DFFF0D;enable-background:new    ;}
	.st157{opacity:0.9474;fill:#DFFF0D;enable-background:new    ;}
	.st158{opacity:0.927;fill:#DFFF0D;enable-background:new    ;}
	.st159{opacity:0.946;fill:#DFFF0D;enable-background:new    ;}
	.st160{opacity:0.8947;fill:#DFFF0D;enable-background:new    ;}
	.st161{opacity:0.8833;fill:#DFFF0D;enable-background:new    ;}
	.st162{opacity:0.7215;fill:#DFFF0D;enable-background:new    ;}
	.st163{opacity:0.726;fill:#DFFF0D;enable-background:new    ;}
	.st164{opacity:0.9689;fill:#DFFF0D;enable-background:new    ;}
	.st165{opacity:0.936;fill:#DFFF0D;enable-background:new    ;}
	.st166{opacity:0.7489;fill:#DFFF0D;enable-background:new    ;}
	.st167{opacity:0.988;fill:#DFFF0D;enable-background:new    ;}
	.st168{opacity:0.8958;fill:#DFFF0D;enable-background:new    ;}
	.st169{opacity:0.8319;fill:#DFFF0D;enable-background:new    ;}
	.st170{opacity:0.8566;fill:#DFFF0D;enable-background:new    ;}
	.st171{opacity:0.7733;fill:#DFFF0D;enable-background:new    ;}
	.st172{opacity:0.8785;fill:#DFFF0D;enable-background:new    ;}
	.st173{opacity:0.8279;fill:#DFFF0D;enable-background:new    ;}
	.st174{opacity:0.9632;fill:#DFFF0D;enable-background:new    ;}
	.st175{opacity:0.8576;fill:#DFFF0D;enable-background:new    ;}
	.st176{opacity:0.7457;fill:#DFFF0D;enable-background:new    ;}
	.st177{opacity:0.8478;fill:#DFFF0D;enable-background:new    ;}
	.st178{opacity:0.8514;fill:#DFFF0D;enable-background:new    ;}
	.st179{opacity:0.8454;fill:#DFFF0D;enable-background:new    ;}
	.st180{opacity:0.7076;fill:#DFFF0D;enable-background:new    ;}
	.st181{opacity:0.8639;fill:#DFFF0D;enable-background:new    ;}
	.st182{opacity:0.9037;fill:#DFFF0D;enable-background:new    ;}
	.st183{opacity:0.9558;fill:#DFFF0D;enable-background:new    ;}
	.st184{opacity:0.8124;fill:#DFFF0D;enable-background:new    ;}
	.st185{opacity:0.7314;fill:#DFFF0D;enable-background:new    ;}
	.st186{opacity:0.8194;fill:#DFFF0D;enable-background:new    ;}
	.st187{opacity:0.8248;fill:#DFFF0D;enable-background:new    ;}
	.st188{opacity:0.7986;fill:#DFFF0D;enable-background:new    ;}
	.st189{opacity:0.9142;fill:#DFFF0D;enable-background:new    ;}
	.st190{opacity:0.8016;fill:#DFFF0D;enable-background:new    ;}
	.st191{opacity:0.8822;fill:#DFFF0D;enable-background:new    ;}
	.st192{opacity:0.7404;fill:#DFFF0D;enable-background:new    ;}
	.st193{opacity:0.8651;fill:#DFFF0D;enable-background:new    ;}
	.st194{opacity:0.9569;fill:#DFFF0D;enable-background:new    ;}
	.st195{opacity:0.7343;fill:#DFFF0D;enable-background:new    ;}
	.st196{opacity:0.8717;fill:#DFFF0D;enable-background:new    ;}
	.st197{opacity:0.8218;fill:#DFFF0D;enable-background:new    ;}
	.st198{opacity:0.7841;fill:#DFFF0D;enable-background:new    ;}
	.st199{opacity:0.7722;fill:#DFFF0D;enable-background:new    ;}
	.st200{opacity:0.9276;fill:#DFFF0D;enable-background:new    ;}
	.st201{opacity:0.855;fill:#DFFF0D;enable-background:new    ;}
	.st202{opacity:0.9488;fill:#DFFF0D;enable-background:new    ;}
	.st203{opacity:0.8888;fill:#DFFF0D;enable-background:new    ;}
	.st204{opacity:0.74;fill:#DFFF0D;enable-background:new    ;}
	.st205{opacity:0.7036;fill:#DFFF0D;enable-background:new    ;}
	.st206{opacity:0.9776;fill:#DFFF0D;enable-background:new    ;}
	.st207{opacity:0.7287;fill:#DFFF0D;enable-background:new    ;}
	.st208{opacity:0.8876;fill:#DFFF0D;enable-background:new    ;}
	.st209{opacity:0.8515;fill:#DFFF0D;enable-background:new    ;}
	.st210{opacity:0.9827;fill:#DFFF0D;enable-background:new    ;}
	.st211{opacity:0.7632;fill:#DFFF0D;enable-background:new    ;}
	.st212{opacity:0.7347;fill:#DFFF0D;enable-background:new    ;}
	.st213{opacity:0.8148;fill:#DFFF0D;enable-background:new    ;}
	.st214{opacity:0.8246;fill:#DFFF0D;enable-background:new    ;}
	.st215{opacity:0.9947;fill:#DFFF0D;enable-background:new    ;}
	.st216{opacity:0.9906;fill:#DFFF0D;enable-background:new    ;}
	.st217{opacity:0.9765;fill:#DFFF0D;enable-background:new    ;}
	.st218{opacity:0.8307;fill:#DFFF0D;enable-background:new    ;}
	.st219{opacity:0.914;fill:#DFFF0D;enable-background:new    ;}
	.st220{opacity:0.704;fill:#DFFF0D;enable-background:new    ;}
	.st221{opacity:0.8913;fill:#DFFF0D;enable-background:new    ;}
	.st222{opacity:0.7028;fill:#DFFF0D;enable-background:new    ;}
	.st223{opacity:0.8866;fill:#DFFF0D;enable-background:new    ;}
	.st224{opacity:0.8198;fill:#DFFF0D;enable-background:new    ;}
	.st225{opacity:0.7379;fill:#DFFF0D;enable-background:new    ;}
	.st226{opacity:0.7075;fill:#DFFF0D;enable-background:new    ;}
	.st227{opacity:0.751;fill:#DFFF0D;enable-background:new    ;}
	.st228{opacity:0.9151;fill:#DFFF0D;enable-background:new    ;}
	.st229{opacity:0.9321;fill:#DFFF0D;enable-background:new    ;}
	.st230{opacity:0.7754;fill:#DFFF0D;enable-background:new    ;}
	.st231{opacity:0.9148;fill:#DFFF0D;enable-background:new    ;}
	.st232{opacity:0.8881;fill:#DFFF0D;enable-background:new    ;}
	.st233{opacity:0.7196;fill:#DFFF0D;enable-background:new    ;}
	.st234{opacity:0.7668;fill:#DFFF0D;enable-background:new    ;}
	.st235{opacity:0.8021;fill:#DFFF0D;enable-background:new    ;}
	.st236{opacity:0.9042;fill:#DFFF0D;enable-background:new    ;}
	.st237{opacity:0.7787;fill:#DFFF0D;enable-background:new    ;}
	.st238{opacity:0.8306;fill:#DFFF0D;enable-background:new    ;}
	.st239{opacity:0.8445;fill:#DFFF0D;enable-background:new    ;}
	.st240{opacity:0.9235;fill:#DFFF0D;enable-background:new    ;}
	.st241{opacity:0.7324;fill:#DFFF0D;enable-background:new    ;}
	.st242{opacity:0.8689;fill:#DFFF0D;enable-background:new    ;}
	.st243{opacity:0.8209;fill:#DFFF0D;enable-background:new    ;}
	.st244{opacity:0.7804;fill:#DFFF0D;enable-background:new    ;}
	.st245{opacity:0.8152;fill:#DFFF0D;enable-background:new    ;}
	.st246{opacity:0.9773;fill:#DFFF0D;enable-background:new    ;}
	.st247{opacity:0.9917;fill:#DFFF0D;enable-background:new    ;}
	.st248{opacity:0.772;fill:#DFFF0D;enable-background:new    ;}
	.st249{opacity:0.9238;fill:#DFFF0D;enable-background:new    ;}
	.st250{opacity:0.7392;fill:#DFFF0D;enable-background:new    ;}
	.st251{opacity:0.8562;fill:#DFFF0D;enable-background:new    ;}
	.st252{opacity:0.7241;fill:#DFFF0D;enable-background:new    ;}
	.st253{opacity:0.792;fill:#DFFF0D;enable-background:new    ;}
	.st254{opacity:0.9687;fill:#DFFF0D;enable-background:new    ;}
	.st255{opacity:0.8283;fill:#DFFF0D;enable-background:new    ;}
	.st256{opacity:0.9277;fill:#DFFF0D;enable-background:new    ;}
	.st257{opacity:0.7562;fill:#DFFF0D;enable-background:new    ;}
	.st258{opacity:0.8276;fill:#DFFF0D;enable-background:new    ;}
	.st259{opacity:0.7708;fill:#DFFF0D;enable-background:new    ;}
	.st260{opacity:0.7712;fill:#DFFF0D;enable-background:new    ;}
	.st261{opacity:0.9926;fill:#DFFF0D;enable-background:new    ;}
	.st262{opacity:0.8565;fill:#DFFF0D;enable-background:new    ;}
	.st263{opacity:0.9577;fill:#DFFF0D;enable-background:new    ;}
	.st264{opacity:0.7548;fill:#DFFF0D;enable-background:new    ;}
	.st265{opacity:0.7013;fill:#DFFF0D;enable-background:new    ;}
	.st266{opacity:0.8538;fill:#DFFF0D;enable-background:new    ;}
	.st267{opacity:0.756;fill:#DFFF0D;enable-background:new    ;}
	.st268{opacity:0.9008;fill:#DFFF0D;enable-background:new    ;}
	.st269{opacity:0.7893;fill:#DFFF0D;enable-background:new    ;}
	.st270{opacity:0.7506;fill:#DFFF0D;enable-background:new    ;}
	.st271{opacity:0.8044;fill:#DFFF0D;enable-background:new    ;}
	.st272{opacity:0.8398;fill:#DFFF0D;enable-background:new    ;}
	.st273{opacity:0.8268;fill:#DFFF0D;enable-background:new    ;}
	.st274{opacity:0.7427;fill:#DFFF0D;enable-background:new    ;}
	.st275{opacity:0.8657;fill:#DFFF0D;enable-background:new    ;}
	.st276{opacity:0.8465;fill:#DFFF0D;enable-background:new    ;}
	.st277{opacity:0.7589;fill:#DFFF0D;enable-background:new    ;}
	.st278{opacity:0.9783;fill:#DFFF0D;enable-background:new    ;}
	.st279{opacity:0.8166;fill:#DFFF0D;enable-background:new    ;}
	.st280{opacity:0.7473;fill:#DFFF0D;enable-background:new    ;}
	.st281{opacity:0.8597;fill:#DFFF0D;enable-background:new    ;}
	.st282{opacity:0.7692;fill:#DFFF0D;enable-background:new    ;}
	.st283{opacity:0.7808;fill:#DFFF0D;enable-background:new    ;}
	.st284{opacity:0.9768;fill:#DFFF0D;enable-background:new    ;}
	.st285{opacity:0.8303;fill:#DFFF0D;enable-background:new    ;}
	.st286{opacity:0.7055;fill:#DFFF0D;enable-background:new    ;}
	.st287{opacity:0.7359;fill:#DFFF0D;enable-background:new    ;}
	.st288{opacity:0.8259;fill:#DFFF0D;enable-background:new    ;}
	.st289{opacity:0.7907;fill:#DFFF0D;enable-background:new    ;}
	.st290{opacity:0.7815;fill:#DFFF0D;enable-background:new    ;}
	.st291{opacity:0.7535;fill:#DFFF0D;enable-background:new    ;}
	.st292{opacity:0.92;fill:#DFFF0D;enable-background:new    ;}
	.st293{opacity:0.8466;fill:#DFFF0D;enable-background:new    ;}
	.st294{opacity:0.8669;fill:#DFFF0D;enable-background:new    ;}
	.st295{opacity:0.8266;fill:#DFFF0D;enable-background:new    ;}
	.st296{opacity:0.9782;fill:#DFFF0D;enable-background:new    ;}
	.st297{fill:#2EF897;}
	.st298{fill-rule:evenodd;clip-rule:evenodd;}
</style>
<g>
	<g>
		<g>
			<path class="st0" d="M89.7,149h5V69.2h-5V149z M19.9,24.4v5h104.7v24.9h-5v5h10V24.4H19.9z"/>
			<polygon class="st1" points="14.9,49.3 9.9,49.3 9.9,64.3 44.8,64.3 44.8,154 84.7,154 84.7,64.3 114.6,64.3 114.6,49.3 
				119.6,49.3 119.6,34.3 14.9,34.3 			"/>
			<g>
				<rect x="49.8" y="144" class="st2" width="5" height="5"/>
				<rect x="54.8" y="139" class="st3" width="5" height="5"/>
				<rect x="59.8" y="139" class="st4" width="5" height="5"/>
				<rect x="64.8" y="139" class="st5" width="5" height="5"/>
				<rect x="69.8" y="139" class="st6" width="5" height="5"/>
				<rect x="74.7" y="139" class="st7" width="5" height="5"/>
				<rect x="69.8" y="144" class="st8" width="5" height="5"/>
				<rect x="64.8" y="144" class="st9" width="5" height="5"/>
				<rect x="59.8" y="144" class="st10" width="5" height="5"/>
				<rect x="59.8" y="134.1" class="st11" width="5" height="5"/>
				<rect x="69.8" y="134.1" class="st12" width="5" height="5"/>
				<rect x="49.8" y="134.1" class="st13" width="5" height="5"/>
				<rect x="49.8" y="124.1" class="st14" width="5" height="5"/>
				<rect x="49.8" y="129.1" class="st15" width="5" height="5"/>
				<rect x="54.8" y="129.1" class="st16" width="5" height="5"/>
				<rect x="59.8" y="124.1" class="st17" width="5" height="5"/>
				<rect x="64.8" y="129.1" class="st18" width="5" height="5"/>
				<rect x="69.8" y="129.1" class="st19" width="5" height="5"/>
				<rect x="74.7" y="129.1" class="st20" width="5" height="5"/>
				<rect x="69.8" y="124.1" class="st21" width="5" height="5"/>
				<rect x="74.7" y="119.1" class="st22" width="5" height="5"/>
				<rect x="64.8" y="119.1" class="st23" width="5" height="5"/>
				<rect x="54.8" y="119.1" class="st24" width="5" height="5"/>
				<rect x="49.8" y="114.1" class="st25" width="5" height="5"/>
				<rect x="49.8" y="109.1" class="st26" width="5" height="5"/>
				<rect x="49.8" y="104.1" class="st27" width="5" height="5"/>
				<rect x="54.8" y="109.1" class="st28" width="5" height="5"/>
				<rect x="59.8" y="114.1" class="st29" width="5" height="5"/>
				<rect x="64.8" y="109.1" class="st30" width="5" height="5"/>
				<rect x="69.8" y="114.1" class="st31" width="5" height="5"/>
				<rect x="74.7" y="109.1" class="st32" width="5" height="5"/>
				<rect x="69.8" y="104.1" class="st33" width="5" height="5"/>
				<rect x="74.7" y="99.2" class="st34" width="5" height="5"/>
				<rect x="64.8" y="99.2" class="st35" width="5" height="5"/>
				<rect x="54.8" y="99.2" class="st36" width="5" height="5"/>
				<rect x="54.8" y="89.2" class="st37" width="5" height="5"/>
				<rect x="64.8" y="89.2" class="st38" width="5" height="5"/>
				<rect x="74.7" y="89.2" class="st39" width="5" height="5"/>
				<rect x="69.8" y="84.2" class="st40" width="5" height="5"/>
				<rect x="74.7" y="79.2" class="st41" width="5" height="5"/>
				<rect x="74.7" y="69.2" class="st42" width="5" height="5"/>
				<rect x="54.8" y="79.2" class="st43" width="5" height="5"/>
				<rect x="54.8" y="69.2" class="st44" width="5" height="5"/>
				<rect x="54.8" y="59.3" class="st45" width="5" height="5"/>
				<rect x="64.8" y="49.3" class="st46" width="5" height="5"/>
				<rect x="44.8" y="49.3" class="st47" width="5" height="5"/>
				<rect x="24.9" y="49.3" class="st48" width="5" height="5"/>
				<rect x="104.7" y="49.3" class="st49" width="5" height="5"/>
			</g>
			<path class="st50" d="M19.9,34.3h-5v10h5V34.3z M49.8,59.3H14.9v-10h-5v15h34.9V154h39.9v-5H49.8V59.3z M89.7,59.3v5h24.9v-5
				C114.6,59.3,89.7,59.3,89.7,59.3z"/>
			<path class="st51" d="M14.9,34.3v5h99.7v10h5v-15H14.9z M79.7,154h5V69.2h-5V154z M109.6,64.3h5v-10h-5V64.3z"/>
		</g>
		<g>
			<path class="st0" d="M432.3,150.7h5v-39.9h-5V150.7z M437.3,26h-44.9v5h39.9v49.9h15v-5h-10V26z M457.2,26v5h39.9v119.7h5V26
				H457.2z"/>
			<polygon class="st1" points="427.3,105.8 452.2,105.8 452.2,155.7 492.1,155.7 492.1,36 452.2,36 452.2,85.9 427.3,85.9 
				427.3,36 387.4,36 387.4,155.7 427.3,155.7 			"/>
			<g>
				<rect x="392.4" y="145.7" class="st52" width="5" height="5"/>
				<rect x="397.4" y="145.7" class="st53" width="5" height="5"/>
				<rect x="402.4" y="145.7" class="st54" width="5" height="5"/>
				<rect x="412.3" y="145.7" class="st55" width="5" height="5"/>
				<rect x="412.3" y="140.7" class="st56" width="5" height="5"/>
				<rect x="412.3" y="135.7" class="st57" width="5" height="5"/>
				<rect x="417.3" y="140.7" class="st58" width="5" height="5"/>
				<rect x="407.3" y="140.7" class="st59" width="5" height="5"/>
				<rect x="402.4" y="140.7" class="st60" width="5" height="5"/>
				<rect x="397.4" y="140.7" class="st61" width="5" height="5"/>
				<rect x="392.4" y="140.7" class="st62" width="5" height="5"/>
				<rect x="392.4" y="135.7" class="st63" width="5" height="5"/>
				<rect x="392.4" y="130.7" class="st64" width="5" height="5"/>
				<rect x="392.4" y="125.7" class="st65" width="5" height="5"/>
				<rect x="392.4" y="120.8" class="st66" width="5" height="5"/>
				<rect x="392.4" y="115.8" class="st67" width="5" height="5"/>
				<rect x="397.4" y="120.8" class="st68" width="5" height="5"/>
				<rect x="402.4" y="120.8" class="st62" width="5" height="5"/>
				<rect x="407.3" y="120.8" class="st69" width="5" height="5"/>
				<rect x="412.3" y="120.8" class="st70" width="5" height="5"/>
				<rect x="417.3" y="120.8" class="st71" width="5" height="5"/>
				<rect x="417.3" y="130.7" class="st72" width="5" height="5"/>
				<rect x="412.3" y="125.7" class="st73" width="5" height="5"/>
				<rect x="407.3" y="130.7" class="st74" width="5" height="5"/>
				<rect x="402.4" y="125.7" class="st75" width="5" height="5"/>
				<rect x="402.4" y="130.7" class="st76" width="5" height="5"/>
				<rect x="402.4" y="135.7" class="st77" width="5" height="5"/>
				<rect x="397.4" y="130.7" class="st78" width="5" height="5"/>
				<rect x="397.4" y="110.8" class="st79" width="5" height="5"/>
				<rect x="402.4" y="110.8" class="st80" width="5" height="5"/>
				<rect x="407.3" y="110.8" class="st81" width="5" height="5"/>
				<rect x="412.3" y="110.8" class="st82" width="5" height="5"/>
				<rect x="417.3" y="110.8" class="st83" width="5" height="5"/>
				<rect x="412.3" y="105.8" class="st84" width="5" height="5"/>
				<rect x="402.4" y="105.8" class="st85" width="5" height="5"/>
				<rect x="392.4" y="105.8" class="st86" width="5" height="5"/>
				<rect x="397.4" y="100.8" class="st87" width="5" height="5"/>
				<rect x="407.3" y="100.8" class="st88" width="5" height="5"/>
				<rect x="417.3" y="100.8" class="st89" width="5" height="5"/>
				<rect x="422.3" y="105.8" class="st90" width="5" height="5"/>
				<rect x="427.3" y="100.8" class="st43" width="5" height="5"/>
				<rect x="412.3" y="115.8" class="st91" width="5" height="5"/>
				<rect x="402.4" y="115.8" class="st92" width="5" height="5"/>
				<rect x="392.4" y="95.8" class="st93" width="5" height="5"/>
				<rect x="392.4" y="85.9" class="st94" width="5" height="5"/>
				<rect x="397.4" y="90.8" class="st95" width="5" height="5"/>
				<rect x="412.3" y="95.8" class="st96" width="5" height="5"/>
				<rect x="417.3" y="90.8" class="st97" width="5" height="5"/>
				<rect x="427.3" y="90.8" class="st98" width="5" height="5"/>
				<rect x="432.3" y="95.8" class="st99" width="5" height="5"/>
				<rect x="437.3" y="90.8" class="st100" width="5" height="5"/>
				<rect x="417.3" y="70.9" class="st101" width="5" height="5"/>
				<rect x="417.3" y="51" class="st102" width="5" height="5"/>
				<rect x="397.4" y="70.9" class="st103" width="5" height="5"/>
				<rect x="457.2" y="70.9" class="st104" width="5" height="5"/>
				<rect x="457.2" y="51" class="st105" width="5" height="5"/>
				<rect x="467.2" y="60.9" class="st106" width="5" height="5"/>
				<rect x="467.2" y="80.9" class="st107" width="5" height="5"/>
				<rect x="467.2" y="70.9" class="st108" width="5" height="5"/>
				<rect x="472.2" y="75.9" class="st109" width="5" height="5"/>
				<rect x="477.2" y="70.9" class="st110" width="5" height="5"/>
				<rect x="477.2" y="80.9" class="st111" width="5" height="5"/>
				<rect x="482.1" y="85.9" class="st112" width="5" height="5"/>
				<rect x="477.2" y="90.8" class="st113" width="5" height="5"/>
				<rect x="482.1" y="95.8" class="st114" width="5" height="5"/>
				<rect x="477.2" y="100.8" class="st115" width="5" height="5"/>
				<rect x="472.2" y="95.8" class="st116" width="5" height="5"/>
				<rect x="467.2" y="100.8" class="st117" width="5" height="5"/>
				<rect x="467.2" y="110.8" class="st118" width="5" height="5"/>
				<rect x="457.2" y="110.8" class="st119" width="5" height="5"/>
				<rect x="457.2" y="120.8" class="st120" width="5" height="5"/>
				<rect x="457.2" y="130.7" class="st121" width="5" height="5"/>
				<rect x="457.2" y="140.7" class="st122" width="5" height="5"/>
				<rect x="462.2" y="145.7" class="st123" width="5" height="5"/>
				<rect x="462.2" y="135.7" class="st124" width="5" height="5"/>
				<rect x="462.2" y="130.7" class="st125" width="5" height="5"/>
				<rect x="462.2" y="125.7" class="st126" width="5" height="5"/>
				<rect x="467.2" y="120.8" class="st127" width="5" height="5"/>
				<rect x="467.2" y="130.7" class="st128" width="5" height="5"/>
				<rect x="467.2" y="140.7" class="st100" width="5" height="5"/>
				<rect x="472.2" y="145.7" class="st129" width="5" height="5"/>
				<rect x="477.2" y="145.7" class="st130" width="5" height="5"/>
				<rect x="482.1" y="145.7" class="st131" width="5" height="5"/>
				<rect x="482.1" y="140.7" class="st132" width="5" height="5"/>
				<rect x="482.1" y="135.7" class="st133" width="5" height="5"/>
				<rect x="482.1" y="130.7" class="st134" width="5" height="5"/>
				<rect x="482.1" y="125.7" class="st71" width="5" height="5"/>
				<rect x="482.1" y="105.8" class="st135" width="5" height="5"/>
				<rect x="482.1" y="110.8" class="st136" width="5" height="5"/>
				<rect x="482.1" y="115.8" class="st48" width="5" height="5"/>
				<rect x="477.2" y="110.8" class="st137" width="5" height="5"/>
				<rect x="472.2" y="115.8" class="st138" width="5" height="5"/>
				<rect x="477.2" y="120.8" class="st139" width="5" height="5"/>
				<rect x="472.2" y="125.7" class="st140" width="5" height="5"/>
				<rect x="477.2" y="130.7" class="st141" width="5" height="5"/>
				<rect x="477.2" y="140.7" class="st142" width="5" height="5"/>
				<rect x="472.2" y="135.7" class="st143" width="5" height="5"/>
			</g>
			<path class="st50" d="M457.2,150.7v-49.9h-24.9v5h19.9v49.9h39.9v-5H457.2z M457.2,36h-5v44.9h5V36z M392.4,36h-5v119.7h39.9v-5
				h-34.9V36z"/>
			<path class="st51" d="M422.3,155.7h5v-44.9h-5V155.7z M427.3,36h-39.9v5h34.9v49.9h24.9v-5h-19.9V36z M452.2,36v5h34.9v114.7h5
				V36H452.2z"/>
		</g>
		<g>
			<path class="st0" d="M182.3,105.8h-5v10h64.8v24.9h-5v5h5h5v-34.9h-64.8V105.8z M137.4,21v5h104.7v25h-5v5h5h5V21H137.4z
				 M177.3,65.9v10h39.9v19.9h5V70.9h-39.9v-5H177.3z"/>
			<polygon class="st1" points="232.1,135.7 237.1,135.7 237.1,120.8 172.3,120.8 172.3,100.8 212.2,100.8 212.2,80.9 172.3,80.9 
				172.3,60.9 232.1,60.9 232.1,46 237.1,46 237.1,31 132.4,31 132.4,150.7 232.1,150.7 			"/>
			<g>
				<rect x="137.4" y="135.7" class="st144" width="5" height="5"/>
				<rect x="142.4" y="140.7" class="st145" width="5" height="5"/>
				<rect x="147.4" y="135.7" class="st146" width="5" height="5"/>
				<rect x="152.4" y="135.7" class="st147" width="5" height="5"/>
				<rect x="157.4" y="135.7" class="st148" width="5" height="5"/>
				<rect x="152.4" y="140.7" class="st149" width="5" height="5"/>
				<rect x="162.3" y="140.7" class="st150" width="5" height="5"/>
				<rect x="172.3" y="140.7" class="st151" width="5" height="5"/>
				<rect x="177.3" y="140.7" class="st152" width="5" height="5"/>
				<rect x="182.3" y="140.7" class="st153" width="5" height="5"/>
				<rect x="182.3" y="135.7" class="st154" width="5" height="5"/>
				<rect x="177.3" y="135.7" class="st155" width="5" height="5"/>
				<rect x="172.3" y="135.7" class="st156" width="5" height="5"/>
				<rect x="167.3" y="135.7" class="st157" width="5" height="5"/>
				<rect x="162.3" y="130.7" class="st158" width="5" height="5"/>
				<rect x="162.3" y="125.7" class="st159" width="5" height="5"/>
				<rect x="167.3" y="125.7" class="st160" width="5" height="5"/>
				<rect x="172.3" y="125.7" class="st87" width="5" height="5"/>
				<rect x="177.3" y="125.7" class="st161" width="5" height="5"/>
				<rect x="182.3" y="125.7" class="st162" width="5" height="5"/>
				<rect x="187.3" y="125.7" class="st163" width="5" height="5"/>
				<rect x="182.3" y="130.7" class="st164" width="5" height="5"/>
				<rect x="172.3" y="130.7" class="st165" width="5" height="5"/>
				<rect x="187.3" y="135.7" class="st166" width="5" height="5"/>
				<rect x="192.3" y="140.7" class="st167" width="5" height="5"/>
				<rect x="192.3" y="135.7" class="st168" width="5" height="5"/>
				<rect x="192.3" y="130.7" class="st169" width="5" height="5"/>
				<rect x="197.2" y="135.7" class="st170" width="5" height="5"/>
				<rect x="202.2" y="135.7" class="st171" width="5" height="5"/>
				<rect x="202.2" y="140.7" class="st172" width="5" height="5"/>
				<rect x="202.2" y="130.7" class="st173" width="5" height="5"/>
				<rect x="197.2" y="125.7" class="st174" width="5" height="5"/>
				<rect x="202.2" y="125.7" class="st175" width="5" height="5"/>
				<rect x="207.2" y="125.7" class="st83" width="5" height="5"/>
				<rect x="212.2" y="125.7" class="st78" width="5" height="5"/>
				<rect x="217.2" y="125.7" class="st176" width="5" height="5"/>
				<rect x="227.2" y="125.7" class="st177" width="5" height="5"/>
				<rect x="222.2" y="130.7" class="st178" width="5" height="5"/>
				<rect x="222.2" y="135.7" class="st179" width="5" height="5"/>
				<rect x="217.2" y="135.7" class="st180" width="5" height="5"/>
				<rect x="217.2" y="140.7" class="st181" width="5" height="5"/>
				<rect x="212.2" y="140.7" class="st182" width="5" height="5"/>
				<rect x="212.2" y="135.7" class="st183" width="5" height="5"/>
				<rect x="212.2" y="130.7" class="st184" width="5" height="5"/>
				<rect x="207.2" y="135.7" class="st185" width="5" height="5"/>
				<rect x="152.4" y="130.7" class="st186" width="5" height="5"/>
				<rect x="147.4" y="125.7" class="st187" width="5" height="5"/>
				<rect x="137.4" y="125.7" class="st188" width="5" height="5"/>
				<rect x="157.4" y="125.7" class="st189" width="5" height="5"/>
				<rect x="162.3" y="120.8" class="st190" width="5" height="5"/>
				<rect x="162.3" y="110.8" class="st191" width="5" height="5"/>
				<rect x="157.4" y="115.8" class="st192" width="5" height="5"/>
				<rect x="147.4" y="115.8" class="st193" width="5" height="5"/>
				<rect x="152.4" y="110.8" class="st194" width="5" height="5"/>
				<rect x="157.4" y="105.8" class="st195" width="5" height="5"/>
				<rect x="162.3" y="100.8" class="st196" width="5" height="5"/>
				<rect x="167.3" y="95.8" class="st197" width="5" height="5"/>
				<rect x="147.4" y="95.8" class="st198" width="5" height="5"/>
				<rect x="137.4" y="95.8" class="st199" width="5" height="5"/>
				<rect x="137.4" y="105.8" class="st6" width="5" height="5"/>
				<rect x="147.4" y="105.8" class="st200" width="5" height="5"/>
				<rect x="137.4" y="115.8" class="st201" width="5" height="5"/>
				<rect x="137.4" y="85.9" class="st202" width="5" height="5"/>
				<rect x="147.4" y="85.9" class="st203" width="5" height="5"/>
				<rect x="227.2" y="135.7" class="st204" width="5" height="5"/>
				<rect x="147.4" y="75.9" class="st205" width="5" height="5"/>
				<rect x="137.4" y="75.9" class="st206" width="5" height="5"/>
				<rect x="142.4" y="80.9" class="st207" width="5" height="5"/>
				<rect x="157.4" y="85.9" class="st208" width="5" height="5"/>
				<rect x="177.3" y="85.9" class="st209" width="5" height="5"/>
				<rect x="187.3" y="85.9" class="st210" width="5" height="5"/>
				<rect x="197.2" y="85.9" class="st211" width="5" height="5"/>
				<rect x="202.2" y="90.8" class="st212" width="5" height="5"/>
				<rect x="197.2" y="46" class="st213" width="5" height="5"/>
				<rect x="217.2" y="46" class="st214" width="5" height="5"/>
				<rect x="157.4" y="65.9" class="st215" width="5" height="5"/>
				<rect x="147.4" y="55.9" class="st216" width="5" height="5"/>
				<rect x="137.4" y="65.9" class="st217" width="5" height="5"/>
			</g>
			<path class="st50" d="M177.3,55.9v5h54.8v-5H177.3z M212.2,95.8h-34.9v5h34.9L212.2,95.8L212.2,95.8z M137.4,31h-5v119.7h99.7v-5
				h-94.7V31z"/>
			<path class="st51" d="M132.4,31v5h99.7v10h5V31H132.4z M172.3,105.8h-5v19.9h64.8v10h5v-15h-64.8V105.8z M227.2,150.7h5v-10h-5
				V150.7z M227.2,60.9h5V51h-5V60.9z M167.3,65.9v19.9h39.9v15h5V80.9h-39.9v-15H167.3z"/>
		</g>
		<g>
			<path class="st0" d="M309.8,82.5v-15h-5v49.9h15v-5h-10V82.5z M264.9,22.7v5h104.7v24.9h-5v15h-5v5h5l0,0h5v-15h5V22.7H264.9z
				 M329.7,102.5h39.9v24.9h-5v15h-5v5h5h5v-15h5V97.5h-44.9V102.5z"/>
			<polygon class="st1" points="259.9,152.3 354.6,152.3 354.6,137.4 359.6,137.4 359.6,122.4 364.6,122.4 364.6,107.5 324.7,107.5 
				324.7,122.4 299.8,122.4 299.8,62.6 314.8,62.6 314.8,77.5 354.6,77.5 354.6,62.6 359.6,62.6 359.6,47.6 364.6,47.6 364.6,32.7 
				259.9,32.7 			"/>
			<g>
				<rect x="264.9" y="137.4" class="st218" width="5" height="5"/>
				<rect x="269.9" y="142.4" class="st152" width="5" height="5"/>
				<rect x="279.9" y="142.4" class="st219" width="5" height="5"/>
				<rect x="284.8" y="137.4" class="st220" width="5" height="5"/>
				<rect x="274.9" y="137.4" class="st221" width="5" height="5"/>
				<rect x="269.9" y="132.4" class="st222" width="5" height="5"/>
				<rect x="279.9" y="132.4" class="st223" width="5" height="5"/>
				<rect x="274.9" y="127.4" class="st224" width="5" height="5"/>
				<rect x="269.9" y="127.4" class="st225" width="5" height="5"/>
				<rect x="264.9" y="127.4" class="st226" width="5" height="5"/>
				<rect x="269.9" y="122.4" class="st227" width="5" height="5"/>
				<rect x="264.9" y="117.4" class="st228" width="5" height="5"/>
				<rect x="264.9" y="107.5" class="st229" width="5" height="5"/>
				<rect x="269.9" y="107.5" class="st230" width="5" height="5"/>
				<rect x="274.9" y="107.5" class="st231" width="5" height="5"/>
				<rect x="269.9" y="102.5" class="st232" width="5" height="5"/>
				<rect x="269.9" y="112.4" class="st81" width="5" height="5"/>
				<rect x="274.9" y="117.4" class="st233" width="5" height="5"/>
				<rect x="279.9" y="112.4" class="st234" width="5" height="5"/>
				<rect x="279.9" y="122.4" class="st101" width="5" height="5"/>
				<rect x="284.8" y="117.4" class="st235" width="5" height="5"/>
				<rect x="284.8" y="127.4" class="st236" width="5" height="5"/>
				<rect x="289.8" y="127.4" class="st237" width="5" height="5"/>
				<rect x="289.8" y="132.4" class="st238" width="5" height="5"/>
				<rect x="294.8" y="127.4" class="st239" width="5" height="5"/>
				<rect x="289.8" y="122.4" class="st240" width="5" height="5"/>
				<rect x="289.8" y="112.4" class="st241" width="5" height="5"/>
				<rect x="289.8" y="107.5" class="st242" width="5" height="5"/>
				<rect x="289.8" y="102.5" class="st243" width="5" height="5"/>
				<rect x="284.8" y="107.5" class="st244" width="5" height="5"/>
				<rect x="279.9" y="102.5" class="st245" width="5" height="5"/>
				<rect x="284.8" y="97.5" class="st240" width="5" height="5"/>
				<rect x="274.9" y="97.5" class="st246" width="5" height="5"/>
				<rect x="264.9" y="97.5" class="st247" width="5" height="5"/>
				<rect x="264.9" y="87.5" class="st248" width="5" height="5"/>
				<rect x="274.9" y="87.5" class="st249" width="5" height="5"/>
				<rect x="279.9" y="92.5" class="st250" width="5" height="5"/>
				<rect x="284.8" y="87.5" class="st8" width="5" height="5"/>
				<rect x="289.8" y="92.5" class="st251" width="5" height="5"/>
				<rect x="284.8" y="77.5" class="st252" width="5" height="5"/>
				<rect x="274.9" y="77.5" class="st253" width="5" height="5"/>
				<rect x="264.9" y="67.6" class="st25" width="5" height="5"/>
				<rect x="284.8" y="67.6" class="st254" width="5" height="5"/>
				<rect x="284.8" y="47.6" class="st255" width="5" height="5"/>
				<rect x="304.8" y="47.6" class="st256" width="5" height="5"/>
				<rect x="294.8" y="57.6" class="st257" width="5" height="5"/>
				<rect x="264.9" y="47.6" class="st258" width="5" height="5"/>
				<rect x="344.7" y="47.6" class="st259" width="5" height="5"/>
				<rect x="344.7" y="67.6" class="st260" width="5" height="5"/>
				<rect x="324.7" y="67.6" class="st261" width="5" height="5"/>
				<rect x="329.7" y="112.4" class="st262" width="5" height="5"/>
				<rect x="339.7" y="112.4" class="st263" width="5" height="5"/>
				<rect x="344.7" y="117.4" class="st264" width="5" height="5"/>
				<rect x="354.6" y="117.4" class="st265" width="5" height="5"/>
				<rect x="349.7" y="122.4" class="st122" width="5" height="5"/>
				<rect x="349.7" y="127.4" class="st103" width="5" height="5"/>
				<rect x="349.7" y="132.4" class="st266" width="5" height="5"/>
				<rect x="349.7" y="137.4" class="st267" width="5" height="5"/>
				<rect x="344.7" y="137.4" class="st268" width="5" height="5"/>
				<rect x="344.7" y="142.4" class="st269" width="5" height="5"/>
				<rect x="339.7" y="142.4" class="st270" width="5" height="5"/>
				<rect x="339.7" y="137.4" class="st271" width="5" height="5"/>
				<rect x="339.7" y="132.4" class="st272" width="5" height="5"/>
				<rect x="344.7" y="127.4" class="st273" width="5" height="5"/>
				<rect x="339.7" y="122.4" class="st274" width="5" height="5"/>
				<rect x="334.7" y="117.4" class="st235" width="5" height="5"/>
				<rect x="324.7" y="117.4" class="st275" width="5" height="5"/>
				<rect x="329.7" y="122.4" class="st276" width="5" height="5"/>
				<rect x="329.7" y="127.4" class="st277" width="5" height="5"/>
				<rect x="329.7" y="132.4" class="st278" width="5" height="5"/>
				<rect x="334.7" y="127.4" class="st279" width="5" height="5"/>
				<rect x="324.7" y="127.4" class="st280" width="5" height="5"/>
				<rect x="319.7" y="122.4" class="st265" width="5" height="5"/>
				<rect x="314.8" y="127.4" class="st281" width="5" height="5"/>
				<rect x="309.8" y="127.4" class="st282" width="5" height="5"/>
				<rect x="304.8" y="127.4" class="st283" width="5" height="5"/>
				<rect x="319.7" y="127.4" class="st284" width="5" height="5"/>
				<rect x="319.7" y="132.4" class="st285" width="5" height="5"/>
				<rect x="319.7" y="137.4" class="st286" width="5" height="5"/>
				<rect x="319.7" y="142.4" class="st155" width="5" height="5"/>
				<rect x="324.7" y="137.4" class="st287" width="5" height="5"/>
				<rect x="334.7" y="137.4" class="st251" width="5" height="5"/>
				<rect x="329.7" y="142.4" class="st288" width="5" height="5"/>
				<rect x="314.8" y="137.4" class="st289" width="5" height="5"/>
				<rect x="309.8" y="132.4" class="st290" width="5" height="5"/>
				<rect x="299.8" y="132.4" class="st291" width="5" height="5"/>
				<rect x="299.8" y="137.4" class="st292" width="5" height="5"/>
				<rect x="294.8" y="137.4" class="st293" width="5" height="5"/>
				<rect x="304.8" y="137.4" class="st294" width="5" height="5"/>
				<rect x="309.8" y="142.4" class="st295" width="5" height="5"/>
				<rect x="304.8" y="142.4" class="st284" width="5" height="5"/>
				<rect x="299.8" y="142.4" class="st296" width="5" height="5"/>
			</g>
			<path class="st50" d="M324.7,107.5v10h5v-10H324.7z M319.7,72.6v-15h-15v5h10v15h39.9v-5H319.7z M264.9,32.7h-5v119.7h94.7v-5
				h-89.7L264.9,32.7L264.9,32.7z"/>
			<path class="st51" d="M354.6,137.4h5v-10h-5V137.4z M349.7,152.3h5v-10h-5V152.3z M299.8,67.6h-5v59.8h24.9v-5h-19.9V67.6z
				 M354.6,52.6v10h5v-10H354.6z M259.9,32.7v5h99.7v10h5v-15H259.9z M324.7,112.4h34.9v10h5v-15h-39.9V112.4z M349.7,67.6v10h5v-10
				H349.7z"/>
		</g>
	</g>
	<g>
		<polygon class="st297" points="120.6,224.6 112.3,224.6 112.3,216.3 109.5,216.3 109.5,208 106.7,208 106.7,174.7 84.6,174.7 
			84.6,208 87.3,208 87.3,216.3 90.1,216.3 90.1,224.6 92.9,224.6 92.9,232.9 95.6,232.9 95.6,241.2 142.7,241.2 142.7,174.7 
			120.6,174.7 		"/>
		<polygon class="st297" points="332.4,183.1 329.6,183.1 329.6,191.4 349,191.4 349,241.2 371.2,241.2 371.2,191.4 387.8,191.4 
			387.8,183.1 390.6,183.1 390.6,174.7 332.4,174.7 		"/>
		<path class="st297" d="M148.4,241.2h22.2v-24.9h24.9V208h2.8v-8.3h2.8v-8.3h2.8v-8.3h2.8v-8.3h-58.2v66.4H148.4z M170.6,191.4h8.3
			v8.3h-2.8v5.5h-5.5V191.4z"/>
		<polygon class="st297" points="450.3,232.9 453.1,232.9 453.1,224.6 417.1,224.6 417.1,213.5 439.2,213.5 439.2,202.5 
			417.1,202.5 417.1,191.4 450.3,191.4 450.3,183.1 453.1,183.1 453.1,174.7 394.9,174.7 394.9,241.2 450.3,241.2 		"/>
		<path class="st297" d="M210.5,241.2h47.1v-8.3h2.8v-8.3h2.8v-8.3h2.8V208h2.8v-33.3h-58.2L210.5,241.2L210.5,241.2z M232.6,191.4
			h13.9V208h-2.8v8.3h-2.8v8.3h-8.3L232.6,191.4L232.6,191.4z"/>
		<path class="st297" d="M283.8,183.1H281v8.3h-2.8v8.3h-2.8v8.3h-2.8v8.3h-2.8v8.3H267v8.3h-2.8v8.3h22.2v-8.3h2.8v-5.5H306v13.9
			h22.2v-66.5h-44.3v8.3H283.8z M294.9,208h2.8v-8.3h2.8v-8.3h5.5v24.9h-11.1L294.9,208L294.9,208z"/>
	</g>
</g>
<path d="M436.8,308.2l11.1,43.5l-43.6,11.1l1.4,5.5l49.1-12.4l-12.5-49.1L436.8,308.2z"/>
<path d="M303.8,354.1l-11.6,11.5v76h5.7V368l10-9.9L303.8,354.1z"/>
<path class="st297" d="M409.4,270.5H300.8v171.1h108.7V270.5H409.4z"/>
<path d="M335.1,321.9h-5.7v5.7h5.7V321.9z"/>
<path d="M340.8,327.6h-5.7v5.7h5.7V327.6z"/>
<path d="M346.5,333.3h-5.7v5.7h5.7V333.3z"/>
<path d="M335.1,333.3h-5.7v5.7h5.7V333.3z"/>
<path d="M346.5,321.9h-5.7v5.7h5.7V321.9z"/>
<path d="M369.4,321.9h-5.7v5.7h5.7V321.9z"/>
<path d="M375.1,327.6h-5.7v5.7h5.7V327.6z"/>
<path d="M380.8,333.3h-5.7v5.7h5.7V333.3z"/>
<path d="M369.4,333.3h-5.7v5.7h5.7V333.3z"/>
<path d="M380.8,321.9h-5.7v5.7h5.7V321.9z"/>
<path d="M346.5,441.7h-5.7v68.4h5.7V441.7z"/>
<path d="M369.4,441.7h-5.7v68.4h5.7V441.7z"/>
<g>
	<path class="st298" d="M337.5,357.7h3.9v-3.9h-3.9V357.7z M333.6,361.6h3.9v-3.9h-3.9V361.6z M329.7,365.6h3.9v-3.9h-3.9V365.6z
		 M325.7,369.5h3.9v-3.9h-3.9V369.5z M329.7,373.4h3.9v-3.9h-3.9V373.4z M333.6,377.4h3.9v-3.9h-3.9V377.4z M337.5,381.3h3.9v-3.9
		h-3.9V381.3z M345.4,381.3h3.9v-3.9h-3.9V381.3z M349.4,377.4h3.9v-3.9h-3.9V377.4z M349.4,373.4h3.9v-3.9h-3.9V373.4z
		 M353.3,369.5h3.9v-3.9h-3.9V369.5z M353.3,365.6h3.9v-3.9h-3.9V365.6z M357.2,361.6h3.9v-3.9h-3.9V361.6z M365.1,381.3h3.9v-3.9
		h-3.9V381.3z M369,377.4h3.9v-3.9H369V377.4z M373,373.4h3.9v-3.9H373V373.4z M376.9,369.5h3.9v-3.9h-3.9V369.5z M373,365.6h3.9
		v-3.9H373V365.6z M369,361.6h3.9v-3.9H369V361.6z M365.1,357.7h3.9v-3.9h-3.9V357.7z"/>
</g>
<g>
	<polyline class="st297" points="418,297.8 419.2,303 424.3,301.8 425.5,307 446.2,302.1 445,297 450.1,295.8 451.3,300.9 
		456.5,299.7 454.1,289.4 459.2,288.2 456.9,278 462,276.8 456,251 450.8,252.2 452,257.3 446.9,258.5 444.5,248.2 439.3,249.4 
		441.7,259.8 436.6,261 434.1,250.6 423.8,253.1 426.2,263.4 421.1,264.6 413.9,233.7 403.5,236.1 413.2,277.3 408,278.5 
		406.8,273.4 401.6,274.6 400.4,269.4 390.1,271.8 392.5,282.1 397.7,280.9 398.9,286.1 404.1,284.9 406.5,295.2 411.6,294 
		412.8,299 	"/>
	<g>
		<path d="M402.3,231c3.4-0.8,6.9-1.6,10.3-2.4c0.4,1.7,0.8,3.4,1.2,5.2c-3.4,0.8-6.9,1.6-10.3,2.4
			C403.1,234.4,402.7,232.7,402.3,231z"/>
		<path d="M398.4,237.4c1.7-0.4,3.4-0.8,5.2-1.2c3.2,13.7,6.4,27.4,9.6,41.2c-1.7,0.4-3.4,0.8-5.2,1.2c-0.4-1.7-0.8-3.4-1.2-5.2
			c-1.7,0.4-3.4,0.8-5.2,1.2c-0.4-1.7-0.8-3.4-1.2-5.2c1.7-0.4,3.4-0.8,5.2-1.2C403.2,257.9,400.8,247.6,398.4,237.4z"/>
		<path d="M413.9,233.7c1.7-0.4,3.4-0.8,5.2-1.2c1.2,5.1,2.4,10.2,3.6,15.4c6.9-1.6,13.8-3.2,20.6-4.8c0.4,1.7,0.8,3.4,1.2,5.2
			c-1.7,0.4-3.4,0.8-5.2,1.2c0.8,3.4,1.6,6.9,2.4,10.3c-1.7,0.4-3.4,0.8-5.2,1.2c-0.8-3.4-1.6-6.9-2.4-10.3
			c-3.4,0.8-6.9,1.6-10.3,2.4c0.8,3.4,1.6,6.9,2.4,10.3c-1.7,0.4-3.4,0.8-5.2,1.2C418.7,254.3,416.3,244,413.9,233.7z"/>
		<path d="M388.9,266.7c3.4-0.8,6.9-1.6,10.3-2.4c0.4,1.7,0.8,3.4,1.2,5.2c-3.4,0.8-6.9,1.6-10.3,2.4
			C389.7,270.1,389.3,268.4,388.9,266.7z"/>
		<path d="M456,251c1.7-0.4,3.4-0.8,5.2-1.2c2,8.6,4,17.2,6,25.8c-1.7,0.4-3.4,0.8-5.2,1.2C460,268.2,458,259.6,456,251z"/>
		<path d="M385,273c1.7-0.4,3.4-0.8,5.2-1.2c0.8,3.4,1.6,6.9,2.4,10.3c-1.7,0.4-3.4,0.8-5.2,1.2C386.6,279.9,385.8,276.5,385,273z"
			/>
		<path d="M392.5,282.1c1.7-0.4,3.4-0.8,5.2-1.2c0.4,1.7,0.8,3.4,1.2,5.2c-1.7,0.4-3.4,0.8-5.2,1.2
			C393.3,285.6,392.9,283.9,392.5,282.1z"/>
		<path d="M456.9,278c1.7-0.4,3.4-0.8,5.2-1.2c0.8,3.4,1.6,6.8,2.4,10.2c-1.7,0.4-3.4,0.8-5.2,1.2
			C458.4,284.8,457.7,281.4,456.9,278z"/>
		<path d="M412.8,299c1.7-0.4,3.4-0.8,5.2-1.2c0.4,1.7,0.8,3.4,1.2,5.2c-1.7,0.4-3.4,0.8-5.2,1.2C413.6,302.5,413.2,300.8,412.8,299
			z"/>
		<path d="M454.1,289.4c1.7-0.4,3.4-0.8,5.2-1.2c1.2,5.2,2.4,10.3,3.6,15.5c-3.4,0.8-6.9,1.6-10.3,2.4c-0.4-1.7-0.8-3.4-1.2-5.2
			c1.7-0.4,3.4-0.8,5.2-1.2C455.7,296.3,454.9,292.8,454.1,289.4z"/>
		<path d="M445,297c1.7-0.4,3.4-0.8,5.2-1.2c0.4,1.7,0.8,3.4,1.2,5.2c-1.7,0.4-3.4,0.8-5.2,1.2C445.8,300.4,445.4,298.7,445,297z"/>
		<path d="M444.5,248.2c3.4-0.8,6.9-1.6,10.3-2.4c0.4,1.7,0.8,3.4,1.2,5.2c-1.7,0.4-3.4,0.8-5.2,1.2c0.4,1.7,0.8,3.4,1.2,5.2
			c-1.7,0.4-3.4,0.8-5.2,1.2C446.1,255.1,445.3,251.7,444.5,248.2z"/>
		<path d="M398.9,286.1c1.7-0.4,3.4-0.8,5.2-1.2c0.8,3.4,1.6,6.8,2.4,10.2c1.7-0.4,3.4-0.8,5.2-1.2c0.4,1.7,0.8,3.4,1.2,5.2
			c-1.7,0.4-3.4,0.8-5.2,1.2c-0.4-1.7-0.8-3.4-1.2-5c-1.7,0.4-3.4,0.8-5.2,1.2C400.5,293,399.7,289.5,398.9,286.1z"/>
		<path d="M419.2,303c1.7-0.4,3.4-0.8,5.2-1.2c0.4,1.7,0.8,3.4,1.2,5.2c6.9-1.6,13.8-3.2,20.6-4.8c0.4,1.7,0.8,3.4,1.2,5.2
			c-8.6,2-17.2,4-25.8,6C420.8,309.9,420,306.4,419.2,303z"/>
	</g>
	<g>
		<rect x="435.1" y="294.8" transform="matrix(0.9737 -0.2277 0.2277 0.9737 -56.2076 107.4615)" width="5.1" height="5.1"/>
		<rect x="438.9" y="288.7" transform="matrix(0.9737 -0.2277 0.2277 0.9737 -54.7188 108.1682)" width="5.1" height="5.1"/>
		<rect x="447.6" y="281.4" transform="matrix(0.9737 -0.2277 0.2277 0.9737 -52.832 109.9579)" width="5.1" height="5.1"/>
		<rect x="439.8" y="262.5" transform="matrix(0.9737 -0.2277 0.2277 0.9737 -50.4714 107.886)" width="5.1" height="20.4"/>
		<rect x="428.9" y="291" transform="matrix(0.9737 -0.2277 0.2277 0.9737 -55.5086 105.9511)" width="5.1" height="5.1"/>
		<rect x="420.5" y="267.1" transform="matrix(0.9737 -0.2277 0.2277 0.9737 -52.6065 103.6802)" width="5.1" height="25.5"/>
	</g>
</g>
</svg>
