<?xml version="1.0" encoding="utf-8"?>
<!-- Generator: Adobe Illustrator 26.0.1, SVG Export Plug-In . SVG Version: 6.00 Build 0)  -->
<svg version="1.1" id="Layer_1" xmlns="http://www.w3.org/2000/svg" xmlns:xlink="http://www.w3.org/1999/xlink" x="0px" y="0px"
	 viewBox="0 0 512 512" style="enable-background:new 0 0 512 512;" xml:space="preserve">
<style type="text/css">
	.st0{fill:#FFFFFF;}
	.st1{fill:#00F780;}
	.st2{fill:#DFFF0D;}
	.st3{fill:#12100B;}
</style>
<path class="st0" d="M349.1,95.5H162v296.7h187.1V95.5z"/>
<path d="M407.6,174.4l6.3,77.4l-77.3,6.7l0.7,9.8l87.2-7.6l-7.2-87.2L407.6,174.4z"/>
<path d="M167.5,141.5l-61.8,62l61.8,62l7-7l-54.9-55l54.9-55.1L167.5,141.5z"/>
<path class="st0" d="M185.1,217.9H162v101.7h23.1V217.9z"/>
<path class="st0" d="M349.1,217.9H326v101.7h23.1V217.9z"/>
<path d="M230.9,392.3V511h9.8V392.3"/>
<path d="M270.3,392.3V511h9.8V392.3"/>
<g>
	<g id="LUCHA_LIBRE_3_1_">
		<g id="LUCHA_LIBRE_3">
			<path id="mask_8_" class="st1" d="M342.5,46.8V31.3h-15.8V15.5h-15.8V0H303h-7.9h-15.8h0h-15.8h-15.8h-3.3h-12.5H216h-15.8v15.5
				h-15.8v15.8h-15.8v15.5h-15.8v15.8v15.8v15.8v7.9v7.9v15.8v0.1v15.8V153v4.6v15.8v0v15.8h15.8v15.8v15.8h15.8v15.8h15.8v15.8H216
				h15.8h15.8h15.8h15.8h15.8h15.8v-15.8l0,0h15.8v-15.8h15.8v-15.8v-15.8h15.8v-15.8v0v-15.8v0v-15.8V126v-0.1v-15.8v-3.8v-12V78.5
				V62.7V46.8H342.5z M342.5,94.3v12v3.8v15.8v0.1v15.8h-15.8h-7.9h-7.9h0H303h-7.9v15.8v15.8h7.9h7.9h0v15.8v15.8v15.8l0,0h-15.8
				h-15.8h-7.9h-7.9h-15.8h-15.8H216h-15.8v-15.8v-15.8v-15.8H216v-15.8v-15.8h-15.8h-15.8h-15.8V126h0v-0.1h0v-15.8V94.3V78.5h15.8
				h15.8H216h15.8h12.5h3.3v15.8v15.8h15.8V94.3V78.5h15.8h0h15.8h7.9h7.9h15.8h15.8V94.3z"/>
			<g id="sides_1_">
				<polygon class="st2" points="184.4,157.6 168.6,157.6 152.8,157.6 152.8,173.4 152.8,173.4 152.8,189.2 168.6,189.2 
					168.6,205.1 168.6,220.9 184.4,220.9 184.4,236.7 200.2,236.7 200.2,220.9 200.2,205.1 200.2,189.2 200.2,173.4 216,173.4 
					216,157.6 200.2,157.6 				"/>
				<polygon class="st2" points="342.5,157.6 326.7,157.6 314.1,157.6 310.9,157.6 310.9,157.6 298.3,157.6 295.1,157.6 
					295.1,173.4 298.3,173.4 310.9,173.4 310.9,173.4 310.9,189.2 310.9,205.1 310.9,220.9 310.9,236.7 326.7,236.7 326.7,220.9 
					342.5,220.9 342.5,205.1 342.5,189.2 358.3,189.2 358.3,173.4 358.3,173.4 358.3,157.6 				"/>
			</g>
			<g id="face_2_">
				<polygon id="nose_14_" class="st3" points="231.8,157.6 231.8,157.6 231.8,173.4 247.6,173.4 263.5,173.4 279.3,173.4 
					279.3,157.6 279.3,157.6 279.3,141.8 263.5,141.8 263.5,126 247.6,126 247.6,141.8 231.8,141.8 				"/>
				<polygon id="mouth_13_" class="st3" points="263.5,189.2 247.6,189.2 231.8,189.2 216,189.2 216,205.1 231.8,205.1 247.6,205.1 
					263.5,205.1 279.3,205.1 295.1,205.1 295.1,189.2 279.3,189.2 				"/>
			</g>
		</g>
	</g>
	<g>
		<rect x="247.9" y="94.4" width="15.7" height="15.7"/>
		<rect x="263.6" y="78.7" width="15.7" height="15.7"/>
		<rect x="295.1" y="62.9" width="15.7" height="15.7"/>
		<rect x="279.3" width="15.7" height="62.9"/>
		<rect x="232.1" y="78.7" width="15.7" height="15.7"/>
		<rect x="216.4" width="15.7" height="78.7"/>
	</g>
	<g>
		<path class="st3" d="M216,125.9h15.8v-15.8H216V125.9z"/>
		<path class="st3" d="M200.2,110.1H216V94.3h-15.8V110.1z"/>
		<path class="st3" d="M184.4,125.9h15.8v-15.8h-15.8V125.9z"/>
	</g>
	<g>
		<path class="st3" d="M310.9,125.9h15.8v-15.8h-15.8V125.9z"/>
		<path class="st3" d="M295.1,110.1h15.8V94.3h-15.8V110.1z"/>
		<path class="st3" d="M279.2,125.9h15.8v-15.8h-15.8V125.9z"/>
	</g>
</g>
</svg>
