<?xml version="1.0" encoding="utf-8"?>
<!-- Generator: Adobe Illustrator 26.0.1, SVG Export Plug-In . SVG Version: 6.00 Build 0)  -->
<svg version="1.1" id="Layer_1" xmlns="http://www.w3.org/2000/svg" xmlns:xlink="http://www.w3.org/1999/xlink" x="0px" y="0px"
	 viewBox="0 0 512 512" style="enable-background:new 0 0 512 512;" xml:space="preserve">
<style type="text/css">
	.st0{fill:#FFFFFF;}
	.st1{display:none;fill:#FFFFFF;}
	.st2{fill:#020203;}
	.st3{fill:#E52521;}
	.st4{fill:#FFD008;}
	.st5{fill:#6FB62C;}
	.st6{fill:#6AC6DD;}
	.st7{fill:#3560AA;}
	.st8{fill:#F07F1A;}
	.st9{fill:#774796;}
</style>
<g>
	<rect x="291.8" y="298.9" class="st0" width="24.6" height="12.3"/>
	<rect x="254.9" y="311.2" class="st0" width="36.9" height="12.3"/>
	<polygon class="st0" points="254.9,298.9 291.8,298.9 291.8,286.6 316.4,286.6 316.4,274.3 341,274.3 341,261.9 353.4,261.9 
		353.4,249.6 365.7,249.6 365.7,212.7 378,212.7 378,200.4 378,188.1 390.3,188.1 402.6,188.1 402.6,200.4 414.9,200.4 414.9,188.1 
		439.6,188.1 439.6,175.7 427.2,175.7 427.2,151.1 353.4,151.1 353.4,163.4 328.7,163.4 328.7,175.7 316.4,175.7 316.4,188.1 
		291.8,188.1 291.8,200.4 267.2,200.4 267.2,212.7 254.9,212.7 254.9,225 242.5,225 242.5,249.6 230.2,249.6 230.2,311.2 
		254.9,311.2 	"/>
	<rect x="378" y="286.6" class="st0" width="12.3" height="24.6"/>
	<polygon class="st0" points="451.9,225 439.6,225 439.6,212.7 439.6,200.4 414.9,200.4 414.9,212.7 427.2,212.7 427.2,225 
		414.9,225 414.9,212.7 402.6,212.7 402.6,200.4 390.3,200.4 390.3,212.7 378,212.7 378,249.6 365.7,249.6 365.7,261.9 353.4,261.9 
		353.4,274.3 341,274.3 341,286.6 316.4,286.6 316.4,298.9 328.7,298.9 341,298.9 341,311.2 341,323.5 353.4,323.5 353.4,298.9 
		365.7,298.9 365.7,286.6 378,286.6 378,274.3 390.3,274.3 390.3,249.6 390.3,237.3 402.6,237.3 464.2,237.3 464.2,225 	"/>
	<rect x="230.2" y="225" class="st1" width="12.3" height="24.6"/>
	<rect x="242.5" y="212.7" class="st1" width="12.3" height="12.3"/>
	<rect x="254.9" y="200.4" class="st1" width="12.3" height="12.3"/>
	<rect x="267.2" y="188.1" class="st1" width="24.6" height="12.3"/>
	<rect x="291.8" y="175.7" class="st1" width="24.6" height="12.3"/>
	<rect x="316.4" y="163.4" class="st1" width="12.3" height="12.3"/>
	<rect x="328.7" y="151.1" class="st1" width="24.6" height="12.3"/>
	<rect x="353.4" y="138.8" class="st1" width="73.9" height="12.3"/>
	<polygon class="st1" points="439.6,175.7 439.6,188.1 451.9,188.1 451.9,163.4 439.6,163.4 439.6,151.1 427.2,151.1 427.2,175.7 	
		"/>
	<rect x="414.9" y="188.1" class="st1" width="24.6" height="12.3"/>
	<rect x="402.6" y="200.4" class="st1" width="12.3" height="12.3"/>
	<polygon class="st1" points="390.3,188.1 378,188.1 378,200.4 378,212.7 390.3,212.7 390.3,200.4 402.6,200.4 402.6,188.1 	"/>
	<rect x="414.9" y="212.7" class="st1" width="12.3" height="12.3"/>
	<rect x="365.7" y="212.7" class="st1" width="12.3" height="36.9"/>
	<rect x="353.4" y="249.6" class="st1" width="12.3" height="12.3"/>
	<rect x="341" y="261.9" class="st1" width="12.3" height="12.3"/>
	<rect x="316.4" y="274.3" class="st1" width="24.6" height="12.3"/>
	<rect x="291.8" y="286.6" class="st1" width="24.6" height="12.3"/>
	<rect x="254.9" y="298.9" class="st1" width="36.9" height="12.3"/>
	<rect x="230.2" y="311.2" class="st1" width="24.6" height="12.3"/>
	<rect x="217.9" y="249.6" class="st1" width="12.3" height="61.6"/>
	<polygon class="st1" points="291.8,323.5 254.9,323.5 254.9,335.8 304.1,335.8 304.1,323.5 316.4,323.5 316.4,311.2 291.8,311.2 	
		"/>
	<polygon class="st1" points="341,298.9 328.7,298.9 316.4,298.9 316.4,311.2 328.7,311.2 328.7,323.5 341,323.5 341,311.2 	"/>
	<polygon class="st1" points="365.7,286.6 365.7,298.9 353.4,298.9 353.4,323.5 341,323.5 341,335.8 353.4,335.8 365.7,335.8 
		365.7,323.5 365.7,311.2 378,311.2 378,286.6 	"/>
	<rect x="378" y="274.3" class="st1" width="12.3" height="12.3"/>
	<polygon class="st1" points="378,311.2 378,323.5 390.3,323.5 402.6,323.5 402.6,311.2 402.6,286.6 390.3,286.6 390.3,311.2 	"/>
	<polygon class="st1" points="451.9,200.4 439.6,200.4 439.6,212.7 439.6,225 451.9,225 464.2,225 464.2,237.3 476.5,237.3 
		476.5,225 476.5,212.7 451.9,212.7 	"/>
	<polygon class="st1" points="390.3,237.3 390.3,249.6 390.3,274.3 402.6,274.3 402.6,249.6 464.2,249.6 464.2,237.3 402.6,237.3 	
		"/>
</g>
<g>
	<rect x="230.2" y="225" width="12.3" height="24.6"/>
	<rect x="242.5" y="212.7" width="12.3" height="12.3"/>
	<rect x="254.9" y="200.4" width="12.3" height="12.3"/>
	<rect x="267.2" y="188.1" width="24.6" height="12.3"/>
	<rect x="291.8" y="175.7" width="24.6" height="12.3"/>
	<rect x="316.4" y="163.4" width="12.3" height="12.3"/>
	<rect x="328.7" y="151.1" width="24.6" height="12.3"/>
	<rect x="353.4" y="138.8" width="73.9" height="12.3"/>
	<polygon points="439.6,175.7 439.6,188.1 451.9,188.1 451.9,163.4 439.6,163.4 439.6,151.1 427.2,151.1 427.2,175.7 	"/>
	<rect x="414.9" y="188.1" width="24.6" height="12.3"/>
	<rect x="402.6" y="200.4" width="12.3" height="12.3"/>
	<polygon points="390.3,188.1 378,188.1 378,200.4 378,212.7 390.3,212.7 390.3,200.4 402.6,200.4 402.6,188.1 	"/>
	<rect x="414.9" y="212.7" width="12.3" height="12.3"/>
	<rect x="365.7" y="212.7" width="12.3" height="36.9"/>
	<rect x="353.4" y="249.6" width="12.3" height="12.3"/>
	<rect x="341" y="261.9" width="12.3" height="12.3"/>
	<rect x="316.4" y="274.3" width="24.6" height="12.3"/>
	<rect x="291.8" y="286.6" width="24.6" height="12.3"/>
	<rect x="254.9" y="298.9" width="36.9" height="12.3"/>
	<rect x="230.2" y="311.2" width="24.6" height="12.3"/>
	<rect x="217.9" y="249.6" width="12.3" height="61.6"/>
	<polygon points="291.8,323.5 254.9,323.5 254.9,335.8 304.1,335.8 304.1,323.5 316.4,323.5 316.4,311.2 291.8,311.2 	"/>
	<polygon points="341,298.9 328.7,298.9 316.4,298.9 316.4,311.2 328.7,311.2 328.7,323.5 341,323.5 341,311.2 	"/>
	<polygon points="365.7,286.6 365.7,298.9 353.4,298.9 353.4,323.5 341,323.5 341,335.8 353.4,335.8 365.7,335.8 365.7,323.5 
		365.7,311.2 378,311.2 378,286.6 	"/>
	<rect x="378" y="274.3" width="12.3" height="12.3"/>
	<polygon points="378,311.2 378,323.5 390.3,323.5 402.6,323.5 402.6,311.2 402.6,286.6 390.3,286.6 390.3,311.2 	"/>
	<polygon points="451.9,212.7 451.9,200.4 439.6,200.4 439.6,212.7 439.6,225 451.9,225 464.2,225 464.2,237.3 476.5,237.3 
		476.5,225 476.5,212.7 	"/>
	<polygon points="390.3,237.3 390.3,249.6 390.3,274.3 402.6,274.3 402.6,249.6 464.2,249.6 464.2,237.3 402.6,237.3 	"/>
</g>
<g>
	<rect x="0" y="372" class="st2" width="11" height="12.2"/>
	<rect x="0" y="359.8" class="st2" width="11" height="12.2"/>
	<rect x="0" y="347.6" class="st2" width="11" height="12.2"/>
	<rect x="11" y="396.5" class="st2" width="12.2" height="11"/>
	<rect x="11" y="384.3" class="st2" width="12.2" height="12.2"/>
	<rect x="11" y="372" class="st3" width="12.2" height="12.2"/>
	<rect x="11" y="359.8" class="st2" width="12.2" height="12.2"/>
	<rect x="23.3" y="419.8" class="st2" width="12.2" height="12.2"/>
	<rect x="23.3" y="407.6" class="st2" width="12.2" height="12.2"/>
	<rect x="23.3" y="396.5" class="st4" width="12.2" height="11"/>
	<rect x="23.3" y="384.3" class="st3" width="12.2" height="12.2"/>
	<rect x="23.3" y="372" class="st2" width="12.2" height="12.2"/>
	<rect x="35.5" y="419.8" class="st2" width="12.2" height="12.2"/>
	<rect x="35.5" y="407.6" class="st4" width="12.2" height="12.2"/>
	<rect x="35.5" y="396.5" class="st3" width="12.2" height="11"/>
	<rect x="35.5" y="384.3" class="st2" width="12.2" height="12.2"/>
	<rect x="47.8" y="432.1" class="st2" width="12.2" height="12.2"/>
	<rect x="47.8" y="419.8" class="st5" width="12.2" height="12.2"/>
	<rect x="47.8" y="407.6" class="st4" width="12.2" height="12.2"/>
	<rect x="47.8" y="396.5" class="st3" width="12.2" height="11"/>
	<rect x="47.8" y="384.3" class="st2" width="12.2" height="12.2"/>
	<rect x="60" y="444.3" class="st2" width="12.2" height="12.2"/>
	<rect x="60" y="432.1" class="st5" width="12.2" height="12.2"/>
	<rect x="60" y="419.8" class="st5" width="12.2" height="12.2"/>
	<rect x="60" y="407.6" class="st4" width="12.2" height="12.2"/>
	<rect x="60" y="396.5" class="st3" width="12.2" height="11"/>
	<rect x="60" y="384.3" class="st2" width="12.2" height="12.2"/>
	<rect x="60" y="372" class="st2" width="12.2" height="12.2"/>
	<rect x="60" y="359.8" class="st2" width="12.2" height="12.2"/>
	<rect x="60" y="347.6" class="st2" width="12.2" height="12.2"/>
	<rect x="60" y="335.3" class="st2" width="12.2" height="12.2"/>
	<rect x="60" y="323.1" class="st2" width="12.2" height="12.2"/>
	<rect x="60" y="310.8" class="st2" width="12.2" height="12.2"/>
	<rect x="60" y="298.6" class="st2" width="12.2" height="12.2"/>
	<rect x="60" y="286.3" class="st2" width="12.2" height="12.2"/>
	<rect x="72.3" y="444.3" class="st2" width="12.2" height="12.2"/>
	<rect x="72.3" y="432.1" class="st6" width="12.2" height="12.2"/>
	<rect x="72.3" y="419.8" class="st5" width="12.2" height="12.2"/>
	<rect x="72.3" y="407.6" class="st4" width="12.2" height="12.2"/>
	<rect x="72.3" y="396.5" class="st4" width="12.2" height="11"/>
	<rect x="72.3" y="384.3" class="st3" width="12.2" height="12.2"/>
	<rect x="72.3" y="372" class="st3" width="12.2" height="12.2"/>
	<rect x="72.3" y="359.8" class="st3" width="12.2" height="12.2"/>
	<rect x="72.3" y="347.6" class="st3" width="12.2" height="12.2"/>
	<rect x="72.3" y="335.3" class="st3" width="12.2" height="12.2"/>
	<rect x="72.3" y="323.1" class="st3" width="12.2" height="12.2"/>
	<rect x="72.3" y="310.8" class="st3" width="12.2" height="12.2"/>
	<rect x="72.3" y="298.6" class="st3" width="12.2" height="12.2"/>
	<rect x="72.3" y="286.3" class="st3" width="12.2" height="12.2"/>
	<rect x="72.3" y="274.1" class="st2" width="12.2" height="12.2"/>
	<rect x="72.3" y="261.8" class="st2" width="12.2" height="12.2"/>
	<rect x="84.5" y="444.3" class="st2" width="12.2" height="12.2"/>
	<rect x="84.5" y="432.1" class="st7" width="12.2" height="12.2"/>
	<rect x="84.5" y="419.8" class="st5" width="12.2" height="12.2"/>
	<rect x="84.5" y="407.6" class="st5" width="12.2" height="12.2"/>
	<rect x="84.5" y="396.5" class="st4" width="12.2" height="11"/>
	<rect x="84.5" y="384.3" class="st8" width="12.2" height="12.2"/>
	<rect x="84.5" y="372" class="st8" width="12.2" height="12.2"/>
	<rect x="84.5" y="359.8" class="st8" width="12.2" height="12.2"/>
	<rect x="84.5" y="347.6" class="st8" width="12.2" height="12.2"/>
	<rect x="84.5" y="335.3" class="st8" width="12.2" height="12.2"/>
	<rect x="84.5" y="323.1" class="st8" width="12.2" height="12.2"/>
	<rect x="84.5" y="310.8" class="st8" width="12.2" height="12.2"/>
	<rect x="84.5" y="298.6" class="st8" width="12.2" height="12.2"/>
	<rect x="84.5" y="286.3" class="st8" width="12.2" height="12.2"/>
	<rect x="84.5" y="274.1" class="st3" width="12.2" height="12.2"/>
	<rect x="84.5" y="261.8" class="st3" width="12.2" height="12.2"/>
	<rect x="84.5" y="249.6" class="st2" width="12.2" height="12.2"/>
	<rect x="96.7" y="444.3" class="st2" width="12.2" height="12.2"/>
	<rect x="96.7" y="432.1" class="st9" width="12.2" height="12.2"/>
	<rect x="96.7" y="419.8" class="st6" width="12.2" height="12.2"/>
	<rect x="96.7" y="407.6" class="st5" width="12.2" height="12.2"/>
	<rect x="96.7" y="396.5" class="st5" width="12.2" height="11"/>
	<rect x="96.7" y="384.3" class="st4" width="12.2" height="12.2"/>
	<rect x="96.7" y="372" class="st4" width="12.2" height="12.2"/>
	<rect x="96.7" y="359.8" class="st4" width="12.2" height="12.2"/>
	<rect x="96.7" y="347.6" class="st4" width="12.2" height="12.2"/>
	<rect x="96.7" y="335.3" class="st4" width="12.2" height="12.2"/>
	<rect x="96.7" y="323.1" class="st4" width="12.2" height="12.2"/>
	<rect x="96.7" y="310.8" class="st4" width="12.2" height="12.2"/>
	<rect x="96.7" y="298.6" class="st4" width="12.2" height="12.2"/>
	<rect x="96.7" y="286.3" class="st4" width="12.2" height="12.2"/>
	<rect x="96.7" y="274.1" class="st4" width="12.2" height="12.2"/>
	<rect x="96.7" y="261.8" class="st3" width="12.2" height="12.2"/>
	<rect x="96.7" y="249.6" class="st3" width="12.2" height="12.2"/>
	<rect x="96.7" y="237.3" class="st2" width="12.2" height="12.2"/>
	<rect x="109" y="444.3" class="st2" width="12.2" height="12.2"/>
	<rect x="109" y="432.1" class="st9" width="12.2" height="12.2"/>
	<rect x="109" y="419.8" class="st7" width="12.2" height="12.2"/>
	<rect x="109" y="407.6" class="st6" width="12.2" height="12.2"/>
	<rect x="109" y="396.5" class="st5" width="12.2" height="11"/>
	<rect x="109" y="384.3" class="st5" width="12.2" height="12.2"/>
	<rect x="109" y="372" class="st5" width="12.2" height="12.2"/>
	<rect x="109" y="359.8" class="st5" width="12.2" height="12.2"/>
	<rect x="109" y="347.6" class="st5" width="12.2" height="12.2"/>
	<rect x="109" y="335.3" class="st5" width="12.2" height="12.2"/>
	<rect x="109" y="323.1" class="st5" width="12.2" height="12.2"/>
	<rect x="109" y="310.8" class="st5" width="12.2" height="12.2"/>
	<rect x="109" y="298.6" class="st5" width="12.2" height="12.2"/>
	<rect x="109" y="286.3" class="st5" width="12.2" height="12.2"/>
	<rect x="109" y="274.1" class="st4" width="12.2" height="12.2"/>
	<rect x="109" y="261.8" class="st4" width="12.2" height="12.2"/>
	<rect x="109" y="249.6" class="st3" width="12.2" height="12.2"/>
	<rect x="109" y="237.3" class="st2" width="12.2" height="12.2"/>
	<rect x="121.2" y="444.3" class="st2" width="12.2" height="12.2"/>
	<rect x="121.2" y="432.1" class="st9" width="12.2" height="12.2"/>
	<rect x="121.2" y="419.8" class="st9" width="12.2" height="12.2"/>
	<rect x="121.2" y="407.6" class="st7" width="12.2" height="12.2"/>
	<rect x="121.2" y="396.5" class="st6" width="12.2" height="11"/>
	<rect x="121.2" y="384.3" class="st6" width="12.2" height="12.2"/>
	<rect x="121.2" y="372" class="st6" width="12.2" height="12.2"/>
	<rect x="121.2" y="359.8" class="st6" width="12.2" height="12.2"/>
	<rect x="121.2" y="347.6" class="st6" width="12.2" height="12.2"/>
	<rect x="121.2" y="335.3" class="st6" width="12.2" height="12.2"/>
	<rect x="121.2" y="323.1" class="st6" width="12.2" height="12.2"/>
	<rect x="121.2" y="310.8" class="st6" width="12.2" height="12.2"/>
	<rect x="121.2" y="298.6" class="st6" width="12.2" height="12.2"/>
	<rect x="121.2" y="286.3" class="st6" width="12.2" height="12.2"/>
	<rect x="121.2" y="274.1" class="st5" width="12.2" height="12.2"/>
	<rect x="121.2" y="261.8" class="st4" width="12.2" height="12.2"/>
	<rect x="121.2" y="249.6" class="st3" width="12.2" height="12.2"/>
	<rect x="121.2" y="237.3" class="st2" width="12.2" height="12.2"/>
	<rect x="133.5" y="444.3" class="st2" width="12.2" height="12.2"/>
	<rect x="133.5" y="432.1" class="st2" width="12.2" height="12.2"/>
	<rect x="133.5" y="419.8" class="st9" width="12.2" height="12.2"/>
	<rect x="133.5" y="407.6" class="st9" width="12.2" height="12.2"/>
	<rect x="133.5" y="396.5" class="st7" width="12.2" height="11"/>
	<rect x="133.5" y="384.3" class="st7" width="12.2" height="12.2"/>
	<rect x="133.5" y="372" class="st7" width="12.2" height="12.2"/>
	<rect x="133.5" y="359.8" class="st7" width="12.2" height="12.2"/>
	<rect x="133.5" y="347.6" class="st7" width="12.2" height="12.2"/>
	<rect x="133.5" y="335.3" class="st7" width="12.2" height="12.2"/>
	<rect x="133.5" y="323.1" class="st7" width="12.2" height="12.2"/>
	<rect x="133.5" y="310.8" class="st7" width="12.2" height="12.2"/>
	<rect x="133.5" y="298.6" class="st7" width="12.2" height="12.2"/>
	<rect x="133.5" y="286.3" class="st6" width="12.2" height="12.2"/>
	<rect x="133.5" y="274.1" class="st5" width="12.2" height="12.2"/>
	<rect x="133.5" y="261.8" class="st4" width="12.2" height="12.2"/>
	<rect x="133.5" y="249.6" class="st3" width="12.2" height="12.2"/>
	<rect x="133.5" y="237.3" class="st2" width="12.2" height="12.2"/>
	<rect x="145.7" y="432.1" class="st2" width="12.2" height="12.2"/>
	<rect x="145.7" y="419.8" class="st2" width="12.2" height="12.2"/>
	<rect x="145.7" y="407.6" class="st9" width="12.2" height="12.2"/>
	<rect x="145.7" y="396.5" class="st9" width="12.2" height="11"/>
	<rect x="145.7" y="384.3" class="st9" width="12.2" height="12.2"/>
	<rect x="145.7" y="372" class="st9" width="12.2" height="12.2"/>
	<rect x="145.7" y="359.8" class="st9" width="12.2" height="12.2"/>
	<rect x="145.7" y="347.6" class="st9" width="12.2" height="12.2"/>
	<rect x="145.7" y="335.3" class="st9" width="12.2" height="12.2"/>
	<rect x="145.7" y="323.1" class="st9" width="12.2" height="12.2"/>
	<rect x="145.7" y="310.8" class="st9" width="12.2" height="12.2"/>
	<rect x="145.7" y="298.6" class="st7" width="12.2" height="12.2"/>
	<rect x="145.7" y="286.3" class="st6" width="12.2" height="12.2"/>
	<rect x="145.7" y="274.1" class="st5" width="12.2" height="12.2"/>
	<rect x="145.7" y="261.8" class="st4" width="12.2" height="12.2"/>
	<rect x="145.7" y="249.6" class="st3" width="12.2" height="12.2"/>
	<rect x="145.7" y="237.3" class="st2" width="12.2" height="12.2"/>
	<rect x="158" y="419.8" class="st2" width="12.2" height="12.2"/>
	<rect x="158" y="407.6" class="st2" width="12.2" height="12.2"/>
	<rect x="158" y="396.5" class="st2" width="12.2" height="11"/>
	<rect x="158" y="384.3" class="st2" width="12.2" height="12.2"/>
	<rect x="158" y="372" class="st2" width="12.2" height="12.2"/>
	<rect x="158" y="359.8" class="st2" width="12.2" height="12.2"/>
	<rect x="158" y="347.6" class="st2" width="12.2" height="12.2"/>
	<rect x="158" y="335.3" class="st2" width="12.2" height="12.2"/>
	<rect x="158" y="323.1" class="st2" width="12.2" height="12.2"/>
	<rect x="158" y="310.8" class="st9" width="12.2" height="12.2"/>
	<rect x="158" y="298.6" class="st7" width="12.2" height="12.2"/>
	<rect x="158" y="286.3" class="st6" width="12.2" height="12.2"/>
	<rect x="158" y="274.1" class="st5" width="12.2" height="12.2"/>
	<rect x="158" y="261.8" class="st4" width="12.2" height="12.2"/>
	<rect x="158" y="249.6" class="st3" width="12.2" height="12.2"/>
	<rect x="158" y="237.3" class="st2" width="12.2" height="12.2"/>
	<rect x="170.2" y="323.1" class="st2" width="12.2" height="12.2"/>
	<rect x="170.2" y="310.8" class="st2" width="12.2" height="12.2"/>
	<rect x="170.2" y="298.6" class="st7" width="12.2" height="12.2"/>
	<rect x="170.2" y="286.3" class="st6" width="12.2" height="12.2"/>
	<rect x="170.2" y="274.1" class="st5" width="12.2" height="12.2"/>
	<rect x="170.2" y="261.8" class="st4" width="12.2" height="12.2"/>
	<rect x="170.2" y="249.6" class="st3" width="12.2" height="12.2"/>
	<rect x="170.2" y="237.3" class="st2" width="12.2" height="12.2"/>
	<rect x="182.5" y="298.6" class="st2" width="11" height="12.2"/>
	<rect x="182.5" y="286.3" class="st2" width="11" height="12.2"/>
	<rect x="182.5" y="274.1" class="st5" width="11" height="12.2"/>
	<rect x="182.5" y="261.8" class="st4" width="11" height="12.2"/>
	<rect x="182.5" y="249.6" class="st3" width="11" height="12.2"/>
	<rect x="182.5" y="237.3" class="st2" width="11" height="12.2"/>
	<rect x="193.3" y="237.3" class="st2" width="12.4" height="12.2"/>
	<rect x="193.5" y="286.3" class="st2" width="12.2" height="12.2"/>
	<rect x="193.5" y="274.1" class="st4" width="12.2" height="12.2"/>
	<rect x="193.5" y="261.8" class="st4" width="12.2" height="12.2"/>
	<rect x="193.5" y="249.6" class="st3" width="12.2" height="12.2"/>
	<rect x="205.7" y="286.3" class="st2" width="12.2" height="12.2"/>
	<rect x="205.7" y="274.1" class="st3" width="12.2" height="12.2"/>
	<rect x="205.7" y="261.8" class="st3" width="12.2" height="12.2"/>
	<rect x="205.7" y="249.6" class="st2" width="12.2" height="12.2"/>
	<rect x="218" y="298.6" class="st2" width="12.2" height="12.2"/>
	<rect x="218" y="286.3" class="st2" width="12.2" height="12.2"/>
	<rect x="218" y="274.1" class="st2" width="12.2" height="12.2"/>
	<rect x="218" y="261.8" class="st2" width="12.2" height="12.2"/>
</g>
<g>
	<rect x="427.2" y="163.5" class="st2" width="12.3" height="12.3"/>
	<rect x="427.2" y="152.4" class="st2" width="12.3" height="11.1"/>
	<rect x="427.2" y="140.2" class="st2" width="12.3" height="12.3"/>
	<rect x="439.5" y="163.5" class="st2" width="12.3" height="12.3"/>
	<rect x="439.5" y="152.4" class="st4" width="12.3" height="11.1"/>
	<rect x="439.5" y="140.2" class="st2" width="12.3" height="12.3"/>
	<rect x="451.8" y="163.5" class="st2" width="12.3" height="12.3"/>
	<rect x="451.8" y="152.4" class="st4" width="12.3" height="11.1"/>
	<rect x="451.8" y="140.2" class="st4" width="12.3" height="12.3"/>
	<rect x="451.8" y="127.9" class="st2" width="12.3" height="12.3"/>
	<rect x="464.1" y="152.4" class="st2" width="12.3" height="11.1"/>
	<rect x="464.1" y="140.2" class="st4" width="12.3" height="12.3"/>
	<rect x="464.1" y="127.9" class="st4" width="12.3" height="12.3"/>
	<rect x="464.1" y="115.6" class="st2" width="12.3" height="12.3"/>
	<rect x="476.4" y="140.2" class="st2" width="12.3" height="12.3"/>
	<rect x="476.4" y="127.9" class="st4" width="12.3" height="12.3"/>
	<rect x="476.4" y="115.6" class="st4" width="12.3" height="12.3"/>
	<rect x="476.4" y="103.3" class="st2" width="12.3" height="12.3"/>
	<rect x="488.7" y="127.9" class="st2" width="11.1" height="12.3"/>
	<rect x="488.7" y="115.6" class="st4" width="11.1" height="12.3"/>
	<rect x="488.7" y="103.3" class="st2" width="11.1" height="12.3"/>
	<rect x="499.7" y="115.6" class="st2" width="12.3" height="12.3"/>
	<rect x="499.7" y="103.3" class="st2" width="12.3" height="12.3"/>
</g>
<g>
	<rect x="168.6" y="162.9" class="st2" width="12.4" height="12.4"/>
	<rect x="168.6" y="150.5" class="st2" width="12.4" height="12.4"/>
	<rect x="168.6" y="138.2" class="st2" width="12.4" height="12.4"/>
	<rect x="168.6" y="125.8" class="st2" width="12.4" height="12.4"/>
	<rect x="168.6" y="114.6" class="st2" width="12.4" height="11.1"/>
	<rect x="181" y="175.3" class="st2" width="12.4" height="12.4"/>
	<rect x="181" y="162.9" class="st5" width="12.4" height="12.4"/>
	<rect x="181" y="150.5" class="st4" width="12.4" height="12.4"/>
	<rect x="181" y="138.2" class="st3" width="12.4" height="12.4"/>
	<rect x="181" y="125.8" class="st2" width="12.4" height="12.4"/>
	<rect x="193.3" y="187.7" class="st2" width="12.4" height="12.4"/>
	<rect x="193.3" y="175.3" class="st5" width="12.4" height="12.4"/>
	<rect x="193.3" y="162.9" class="st4" width="12.4" height="12.4"/>
	<rect x="193.3" y="150.5" class="st3" width="12.4" height="12.4"/>
	<rect x="193.3" y="138.2" class="st2" width="12.4" height="12.4"/>
	<rect x="205.7" y="200" class="st2" width="12.4" height="12.4"/>
	<rect x="205.7" y="187.7" class="st2" width="12.4" height="12.4"/>
	<rect x="205.7" y="175.3" class="st5" width="12.4" height="12.4"/>
	<rect x="205.7" y="162.9" class="st4" width="12.4" height="12.4"/>
	<rect x="205.7" y="150.5" class="st3" width="12.4" height="12.4"/>
	<rect x="205.7" y="138.2" class="st2" width="12.4" height="12.4"/>
	<rect x="218.1" y="200" class="st2" width="12.4" height="12.4"/>
	<rect x="218.1" y="187.7" class="st6" width="12.4" height="12.4"/>
	<rect x="218.1" y="175.3" class="st5" width="12.4" height="12.4"/>
	<rect x="218.1" y="162.9" class="st4" width="12.4" height="12.4"/>
	<rect x="218.1" y="150.5" class="st3" width="12.4" height="12.4"/>
	<rect x="218.1" y="138.2" class="st2" width="12.4" height="12.4"/>
	<rect x="230.5" y="200" class="st2" width="12.4" height="12.4"/>
	<rect x="230.5" y="187.7" class="st6" width="12.4" height="12.4"/>
	<rect x="230.5" y="175.3" class="st5" width="12.4" height="12.4"/>
	<rect x="230.5" y="162.9" class="st4" width="12.4" height="12.4"/>
	<rect x="230.5" y="150.5" class="st3" width="12.4" height="12.4"/>
	<rect x="230.5" y="138.2" class="st2" width="12.4" height="12.4"/>
	<rect x="242.8" y="200" class="st2" width="12.4" height="12.4"/>
	<rect x="242.8" y="187.7" class="st6" width="12.4" height="12.4"/>
	<rect x="242.8" y="175.3" class="st5" width="12.4" height="12.4"/>
	<rect x="242.8" y="162.9" class="st4" width="12.4" height="12.4"/>
	<rect x="242.8" y="150.5" class="st3" width="12.4" height="12.4"/>
	<rect x="242.8" y="138.2" class="st2" width="12.4" height="12.4"/>
	<rect x="255.2" y="200" class="st2" width="12.4" height="12.4"/>
	<rect x="255.2" y="187.7" class="st7" width="12.4" height="12.4"/>
	<rect x="255.2" y="175.3" class="st6" width="12.4" height="12.4"/>
	<rect x="255.2" y="162.9" class="st5" width="12.4" height="12.4"/>
	<rect x="255.2" y="150.5" class="st4" width="12.4" height="12.4"/>
	<rect x="255.2" y="138.2" class="st3" width="12.4" height="12.4"/>
	<rect x="255.2" y="125.8" class="st2" width="12.4" height="12.4"/>
	<rect x="267.6" y="200" class="st2" width="12.4" height="12.4"/>
	<rect x="267.6" y="187.7" class="st7" width="12.4" height="12.4"/>
	<rect x="267.6" y="175.3" class="st7" width="12.4" height="12.4"/>
	<rect x="267.6" y="162.9" class="st6" width="12.4" height="12.4"/>
	<rect x="267.6" y="150.5" class="st5" width="12.4" height="12.4"/>
	<rect x="267.6" y="138.2" class="st4" width="12.4" height="12.4"/>
	<rect x="267.6" y="125.8" class="st3" width="12.4" height="12.4"/>
	<rect x="267.6" y="114.6" class="st2" width="12.4" height="11.1"/>
	<rect x="280" y="200" class="st2" width="12.4" height="12.4"/>
	<rect x="280" y="187.7" class="st7" width="12.4" height="12.4"/>
	<rect x="280" y="175.3" class="st9" width="12.4" height="12.4"/>
	<rect x="280" y="162.9" class="st7" width="12.4" height="12.4"/>
	<rect x="280" y="150.5" class="st6" width="12.4" height="12.4"/>
	<rect x="280" y="138.2" class="st5" width="12.4" height="12.4"/>
	<rect x="280" y="125.8" class="st4" width="12.4" height="12.4"/>
	<rect x="280" y="114.6" class="st3" width="12.4" height="11.1"/>
	<rect x="280" y="102.3" class="st2" width="12.4" height="12.4"/>
	<rect x="292.3" y="200" class="st2" width="11.1" height="12.4"/>
	<rect x="292.3" y="187.7" class="st7" width="11.1" height="12.4"/>
	<rect x="292.3" y="175.3" class="st7" width="11.1" height="12.4"/>
	<rect x="292.3" y="162.9" class="st7" width="11.1" height="12.4"/>
	<rect x="292.3" y="150.5" class="st7" width="11.1" height="12.4"/>
	<rect x="292.3" y="138.2" class="st6" width="11.1" height="12.4"/>
	<rect x="292.3" y="125.8" class="st5" width="11.1" height="12.4"/>
	<rect x="292.3" y="114.6" class="st4" width="11.1" height="11.1"/>
	<rect x="292.3" y="102.3" class="st3" width="11.1" height="12.4"/>
	<rect x="292.3" y="89.9" class="st2" width="11.1" height="12.4"/>
	<rect x="303.5" y="187.7" class="st2" width="12.4" height="12.4"/>
	<rect x="303.5" y="175.3" class="st9" width="12.4" height="12.4"/>
	<rect x="303.5" y="162.9" class="st9" width="12.4" height="12.4"/>
	<rect x="303.5" y="150.5" class="st7" width="12.4" height="12.4"/>
	<rect x="303.5" y="138.2" class="st6" width="12.4" height="12.4"/>
	<rect x="303.5" y="125.8" class="st6" width="12.4" height="12.4"/>
	<rect x="303.5" y="114.6" class="st5" width="12.4" height="11.1"/>
	<rect x="303.5" y="102.3" class="st3" width="12.4" height="12.4"/>
	<rect x="303.5" y="89.9" class="st2" width="12.4" height="12.4"/>
	<rect x="315.9" y="175.3" class="st2" width="12.4" height="12.4"/>
	<rect x="315.9" y="162.9" class="st9" width="12.4" height="12.4"/>
	<rect x="315.9" y="150.5" class="st9" width="12.4" height="12.4"/>
	<rect x="315.9" y="138.2" class="st7" width="12.4" height="12.4"/>
	<rect x="315.9" y="125.8" class="st6" width="12.4" height="12.4"/>
	<rect x="315.9" y="114.6" class="st5" width="12.4" height="11.1"/>
	<rect x="315.9" y="102.3" class="st4" width="12.4" height="12.4"/>
	<rect x="315.9" y="89.9" class="st3" width="12.4" height="12.4"/>
	<rect x="315.9" y="77.5" class="st2" width="12.4" height="12.4"/>
	<rect x="328.2" y="162.9" class="st2" width="12.4" height="12.4"/>
	<rect x="328.2" y="150.5" class="st9" width="12.4" height="12.4"/>
	<rect x="328.2" y="138.2" class="st9" width="12.4" height="12.4"/>
	<rect x="328.2" y="125.8" class="st6" width="12.4" height="12.4"/>
	<rect x="328.2" y="114.6" class="st5" width="12.4" height="11.1"/>
	<rect x="328.2" y="102.3" class="st4" width="12.4" height="12.4"/>
	<rect x="328.2" y="89.9" class="st3" width="12.4" height="12.4"/>
	<rect x="328.2" y="77.5" class="st2" width="12.4" height="12.4"/>
	<rect x="340.6" y="150.5" class="st2" width="12.4" height="12.4"/>
	<rect x="340.6" y="138.2" class="st9" width="12.4" height="12.4"/>
	<rect x="340.6" y="125.8" class="st6" width="12.4" height="12.4"/>
	<rect x="340.6" y="114.6" class="st5" width="12.4" height="11.1"/>
	<rect x="340.6" y="102.3" class="st4" width="12.4" height="12.4"/>
	<rect x="340.6" y="89.9" class="st3" width="12.4" height="12.4"/>
	<rect x="340.6" y="77.5" class="st2" width="12.4" height="12.4"/>
	<rect x="353" y="138.2" class="st2" width="12.4" height="12.4"/>
	<rect x="353" y="125.8" class="st6" width="12.4" height="12.4"/>
	<rect x="353" y="114.6" class="st5" width="12.4" height="11.1"/>
	<rect x="353" y="102.3" class="st4" width="12.4" height="12.4"/>
	<rect x="353" y="89.9" class="st3" width="12.4" height="12.4"/>
	<rect x="353" y="77.5" class="st2" width="12.4" height="12.4"/>
	<rect x="365.4" y="138.2" class="st2" width="12.4" height="12.4"/>
	<rect x="365.4" y="125.8" class="st6" width="12.4" height="12.4"/>
	<rect x="365.4" y="114.6" class="st5" width="12.4" height="11.1"/>
	<rect x="365.4" y="102.3" class="st4" width="12.4" height="12.4"/>
	<rect x="365.4" y="89.9" class="st3" width="12.4" height="12.4"/>
	<rect x="365.4" y="77.5" class="st2" width="12.4" height="12.4"/>
	<rect x="377.7" y="138.2" class="st2" width="12.4" height="12.4"/>
	<rect x="377.7" y="125.8" class="st6" width="12.4" height="12.4"/>
	<rect x="377.7" y="114.6" class="st5" width="12.4" height="11.1"/>
	<rect x="377.7" y="102.3" class="st4" width="12.4" height="12.4"/>
	<rect x="377.7" y="89.9" class="st3" width="12.4" height="12.4"/>
	<rect x="377.7" y="77.5" class="st2" width="12.4" height="12.4"/>
	<rect x="390.1" y="138.2" class="st2" width="12.4" height="12.4"/>
	<rect x="390.1" y="125.8" class="st6" width="12.4" height="12.4"/>
	<rect x="390.1" y="114.6" class="st5" width="12.4" height="11.1"/>
	<rect x="390.1" y="102.3" class="st4" width="12.4" height="12.4"/>
	<rect x="390.1" y="89.9" class="st3" width="12.4" height="12.4"/>
	<rect x="390.1" y="77.5" class="st2" width="12.4" height="12.4"/>
	<rect x="402.5" y="138.2" class="st2" width="12.4" height="12.4"/>
	<rect x="402.5" y="125.8" class="st4" width="12.4" height="12.4"/>
	<rect x="402.5" y="114.6" class="st4" width="12.4" height="11.1"/>
	<rect x="402.5" y="102.3" class="st3" width="12.4" height="12.4"/>
	<rect x="402.5" y="89.9" class="st2" width="12.4" height="12.4"/>
	<rect x="414.9" y="138.2" class="st2" width="12.4" height="12.4"/>
	<rect x="414.9" y="125.8" class="st2" width="12.4" height="12.4"/>
	<rect x="414.9" y="114.6" class="st2" width="12.4" height="11.1"/>
	<rect x="414.9" y="102.3" class="st2" width="12.4" height="12.4"/>
	<rect x="414.9" y="89.9" class="st2" width="12.4" height="12.4"/>
</g>
</svg>
