<?xml version="1.0" encoding="utf-8"?>
<!-- Generator: Adobe Illustrator 26.0.1, SVG Export Plug-In . SVG Version: 6.00 Build 0)  -->
<svg version="1.1" id="Layer_1" xmlns="http://www.w3.org/2000/svg" xmlns:xlink="http://www.w3.org/1999/xlink" x="0px" y="0px"
	 viewBox="0 0 512 512" style="enable-background:new 0 0 512 512;" xml:space="preserve">
<style type="text/css">
	.st0{fill:#00F77F;}
	.st1{fill:#FF0580;}
	.st2{fill:none;stroke:#1D1D1B;stroke-width:9.358;stroke-miterlimit:10;}
	.st3{fill:#1D1D1B;}
	.st4{fill:#FFFFFF;}
	.st5{fill:none;}
</style>
<path d="M303.2,273.5l43.1,29.5l-50.2,72.4l24.8,17l4.6-6.7l-18.1-12.4l50.1-72.4l-49.8-34.1L303.2,273.5z"/>
<g>
	<path class="st0" d="M157.6,510.5c-39.7,0-72-32.3-72-72s32.3-72,72-72s72,32.3,72,72S197.4,510.5,157.6,510.5z M157.6,375.8
		c-34.6,0-62.7,28.1-62.7,62.7s28.1,62.7,62.7,62.7c34.6,0,62.7-28.1,62.7-62.7S192.2,375.8,157.6,375.8z"/>
</g>
<g>
	<rect x="240.2" y="345.5" class="st1" width="121.9" height="9.4"/>
</g>
<g>
	
		<rect x="260.4" y="389.6" transform="matrix(0.6831 -0.7303 0.7303 0.6831 -186.2919 359.2345)" class="st1" width="120.9" height="9.4"/>
</g>
<path class="st2" d="M401.4,310.9"/>
<g>
	<path class="st1" d="M172.8,429.1l70.9-75.7l-6.8-6.4L166,422.7C168.8,424.2,171.1,426.4,172.8,429.1z"/>
	<path class="st1" d="M279.5,433.8H174.8c0.4,1.5,0.6,3.1,0.6,4.7s-0.2,3.2-0.6,4.7h104.7V433.8z"/>
	<path class="st3" d="M169.9,433.8h4.9c-0.5-1.7-1.1-3.2-2-4.7l-3.3,3.6C169.6,433,169.8,433.4,169.9,433.8z"/>
	<path class="st3" d="M157.6,451.6c-7.3,0-13.2-5.9-13.2-13.2s5.9-13.2,13.2-13.2c1.8,0,3.4,0.4,5,1l3.4-3.6
		c-2.5-1.3-5.3-2.1-8.3-2.1c-9.8,0-17.8,8-17.8,17.8s8,17.8,17.8,17.8c8.2,0,15.1-5.6,17.2-13.2h-4.9
		C168,448.1,163.2,451.6,157.6,451.6z"/>
	<path class="st3" d="M169.4,432.7l3.3-3.6c-1.7-2.7-4-4.9-6.8-6.4l-3.4,3.6C165.6,427.5,168,429.8,169.4,432.7z"/>
	<path class="st3" d="M174.8,433.8h-4.9c0.6,1.5,0.9,3,0.9,4.7c0,1.7-0.3,3.2-0.9,4.7h4.9c0.4-1.5,0.6-3.1,0.6-4.7
		S175.2,435.3,174.8,433.8z"/>
	<path class="st1" d="M169.9,433.8c-0.1-0.4-0.3-0.7-0.5-1.1c-1.4-2.9-3.8-5.2-6.8-6.4c-1.5-0.6-3.2-1-5-1
		c-7.3,0-13.2,5.9-13.2,13.2s5.9,13.2,13.2,13.2c5.6,0,10.4-3.5,12.3-8.5c0.6-1.5,0.9-3,0.9-4.7
		C170.8,436.8,170.5,435.2,169.9,433.8z M164.7,443.1c-1.5,2.3-4.1,3.8-7.1,3.8c-4.7,0-8.5-3.8-8.5-8.5s3.8-8.5,8.5-8.5
		c0.5,0,0.9,0,1.4,0.1c2.4,0.4,4.4,1.8,5.7,3.7c0.5,0.8,0.9,1.7,1.2,2.7c0.1,0.6,0.2,1.3,0.2,2C166.1,440.2,165.6,441.8,164.7,443.1
		z"/>
</g>
<g>
	<path class="st4" d="M301.2,438.4c0,12-9.7,21.7-21.7,21.7c-12,0-21.7-9.7-21.7-21.7c0-12,9.7-21.7,21.7-21.7
		C291.5,416.8,301.2,426.5,301.2,438.4z"/>
	<path class="st1" d="M279.5,464.8c-14.5,0-26.3-11.8-26.3-26.3s11.8-26.3,26.3-26.3s26.3,11.8,26.3,26.3S294,464.8,279.5,464.8z
		 M279.5,421.5c-9.4,0-17,7.6-17,17s7.6,17,17,17s17-7.6,17-17S288.9,421.5,279.5,421.5z"/>
</g>
<g>
	<path class="st1" d="M266.5,422.7c-15.2-30.6-41.9-84.7-49.9-103.5l-2.8-6.5h7.9v4.3l3.5-1.5c7.9,18.6,34.5,72.5,49.7,103
		L266.5,422.7z"/>
</g>
<g>
	<polygon class="st1" points="228.9,345.9 45,345.9 32.9,332.8 39.8,326.4 49.1,336.6 228.9,336.6 	"/>
</g>
<path d="M122.2,146.9l94.7,75.9l5-6.4l-94.6-75.9"/>
<path d="M403,300.3l-45.3-112.5l-7.5,3l45.3,112.5"/>
<path class="st4" d="M210.6,326.2l153.1,2.4l3.3-243.2L213.9,83L210.6,326.2z"/>
<path d="M317.5,165.6l8.1,0.1l0.1-8.1l-8.1-0.1L317.5,165.6z"/>
<path d="M309.3,173.6l8.1,0.1l0.1-8.1l-8.1-0.1L309.3,173.6z"/>
<path d="M301.1,181.6l8.1,0.1l0.1-8.1l-8.1-0.1L301.1,181.6z"/>
<path d="M317.3,181.9l8.1,0.1l0.1-8.1l-8.1-0.1L317.3,181.9z"/>
<path d="M301.3,165.4l8.1,0.1l0.1-8.1l-8.1-0.1L301.3,165.4z"/>
<path d="M269.1,164.9l8.1,0.1l0.1-8.1l-8.1-0.1L269.1,164.9z"/>
<path d="M261,172.9l8.1,0.1l0.1-8.1l-8.1-0.1L261,172.9z"/>
<path d="M252.8,180.9l8.1,0.1l0.1-8.1l-8.1-0.1L252.8,180.9z"/>
<path d="M268.9,181.1l8.1,0.1l0.1-8.1L269,173L268.9,181.1z"/>
<path d="M253,164.7l8.1,0.1l0.1-8.1l-8.1-0.1L253,164.7z"/>
<path d="M252.4,205.2l72.5,1.1l0.1-8.1l-72.5-1.1L252.4,205.2z"/>
<g>
	<path d="M262.4,323.1l41.6,31.5l-52.7,70.5l24,18.2l4.9-6.5l-17.5-13.3l52.7-70.5l-48-36.5L262.4,323.1z"/>
</g>
<g>
	<rect x="98.9" y="306.3" class="st4" width="20.3" height="10.1"/>
	<rect x="169.8" y="296.2" class="st4" width="10.1" height="20.3"/>
	<polygon class="st4" points="68.5,306.3 98.9,306.3 98.9,296.2 119.1,296.2 119.1,286 139.4,286 139.4,275.9 149.5,275.9 
		149.5,265.8 159.7,265.8 159.7,235.4 169.8,235.4 169.8,225.3 169.8,215.1 179.9,215.1 190.1,215.1 190.1,225.3 200.2,225.3 
		200.2,215.1 220.5,215.1 220.5,205 210.3,205 210.3,184.7 149.5,184.7 149.5,194.9 129.3,194.9 129.3,205 119.1,205 119.1,215.1 
		98.9,215.1 98.9,225.3 78.6,225.3 78.6,235.4 68.5,235.4 68.5,245.5 58.4,245.5 58.4,265.8 48.2,265.8 48.2,316.4 68.5,316.4 	"/>
	<rect x="68.5" y="316.4" class="st4" width="30.4" height="10.1"/>
	<polygon class="st4" points="230.6,245.5 220.5,245.5 220.5,235.4 220.5,225.3 200.2,225.3 200.2,235.4 210.3,235.4 210.3,245.5 
		200.2,245.5 200.2,235.4 190.1,235.4 190.1,225.3 179.9,225.3 179.9,235.4 169.8,235.4 169.8,265.8 159.7,265.8 159.7,275.9 
		149.5,275.9 149.5,286 139.4,286 139.4,296.2 119.1,296.2 119.1,306.3 129.3,306.3 139.4,306.3 139.4,316.4 139.4,326.6 
		149.5,326.6 149.5,306.3 159.7,306.3 159.7,296.2 169.8,296.2 169.8,286 179.9,286 179.9,265.8 179.9,255.7 190.1,255.7 
		240.7,255.7 240.7,245.5 	"/>
	<rect x="48.2" y="245.5" width="10.1" height="20.3"/>
	<rect x="58.4" y="235.4" width="10.1" height="10.1"/>
	<rect x="68.5" y="225.3" width="10.1" height="10.1"/>
	<rect x="78.6" y="215.1" width="20.3" height="10.1"/>
	<rect x="98.9" y="205" width="20.3" height="10.1"/>
	<rect x="119.1" y="194.9" width="10.1" height="10.1"/>
	<rect x="129.3" y="184.7" width="20.3" height="10.1"/>
	<rect x="149.5" y="174.6" width="60.8" height="10.1"/>
	<polygon points="220.5,205 220.5,215.1 230.6,215.1 230.6,194.9 220.5,194.9 220.5,184.7 210.3,184.7 210.3,205 	"/>
	<rect x="200.2" y="215.1" width="20.3" height="10.1"/>
	<rect x="190.1" y="225.3" width="10.1" height="10.1"/>
	<polygon points="179.9,215.1 169.8,215.1 169.8,225.3 169.8,235.4 179.9,235.4 179.9,225.3 190.1,225.3 190.1,215.1 	"/>
	<rect x="200.2" y="235.4" width="10.1" height="10.1"/>
	<rect x="159.7" y="235.4" width="10.1" height="30.4"/>
	<rect x="149.5" y="265.8" width="10.1" height="10.1"/>
	<rect x="139.4" y="275.9" width="10.1" height="10.1"/>
	<rect x="119.1" y="286" width="20.3" height="10.1"/>
	<rect x="98.9" y="296.2" width="20.3" height="10.1"/>
	<rect x="68.5" y="306.3" width="30.4" height="10.1"/>
	<rect x="48.2" y="316.4" width="20.3" height="10.1"/>
	<rect x="38.1" y="265.8" width="10.1" height="50.7"/>
	<polygon points="98.9,326.6 68.5,326.6 68.5,336.7 109,336.7 109,326.6 119.1,326.6 119.1,316.4 98.9,316.4 	"/>
	<polygon points="139.4,306.3 129.3,306.3 119.1,306.3 119.1,316.4 129.3,316.4 129.3,326.6 139.4,326.6 139.4,316.4 	"/>
	<polygon points="159.7,296.2 159.7,306.3 149.5,306.3 149.5,326.6 139.4,326.6 139.4,336.7 149.5,336.7 159.7,336.7 159.7,326.6 
		159.7,316.4 169.8,316.4 169.8,296.2 	"/>
	<rect x="169.8" y="286" width="10.1" height="10.1"/>
	<polygon points="169.8,316.4 169.8,326.6 179.9,326.6 190.1,326.6 190.1,316.4 190.1,296.2 179.9,296.2 179.9,316.4 	"/>
	<polygon points="230.6,225.3 220.5,225.3 220.5,235.4 220.5,245.5 230.6,245.5 240.7,245.5 240.7,255.7 250.9,255.7 250.9,245.5 
		250.9,235.4 230.6,235.4 	"/>
	<polygon points="179.9,255.7 179.9,265.8 179.9,286 190.1,286 190.1,265.8 240.7,265.8 240.7,255.7 190.1,255.7 	"/>
</g>
<g>
	<path class="st0" d="M387,330.1h-4v-9.4h4c5.4,0,9.8-4.4,9.8-9.8h9.4C406.1,321.5,397.5,330.1,387,330.1z"/>
</g>
<g>
	<polygon class="st4" points="314.4,69.2 309.4,32.1 272.3,37.1 269.9,18.6 251.3,21 253.8,39.6 216.7,44.6 221.7,81.7 	"/>
	<polygon points="328,29.7 309.4,32.1 314.4,69.2 221.7,81.7 216.7,44.6 198.1,47 203.1,84.1 166,89.1 168.5,107.7 335.4,85.3 
		333,66.8 	"/>
	<polygon points="251.3,21 269.9,18.6 267.4,0 230.3,5 232.8,23.5 214.2,26 216.7,44.6 253.8,39.6 	"/>
	<rect x="270.9" y="16" transform="matrix(0.9912 -0.1327 0.1327 0.9912 -0.802 38.6484)" width="37.4" height="18.7"/>
</g>
<g>
	<path class="st5" d="M407.8,420.6c9.8,0,17.8,8,17.8,17.8s-8,17.8-17.8,17.8s-17.8-8-17.8-17.8c0-5.3,2.4-10.1,6.1-13.4l-20-40.7
		c-18.5,10.9-30.9,31-30.9,54c0,34.6,28.1,62.7,62.7,62.7s62.7-28.1,62.7-62.7s-28.1-62.7-62.7-62.7c-8.3,0-16.1,1.6-23.4,4.5
		l20,40.6C405.5,420.7,406.7,420.6,407.8,420.6z"/>
	<path class="st0" d="M407.8,366.4c-9.7,0-19,2-27.5,5.5l4.1,8.4c7.2-2.9,15.1-4.5,23.4-4.5c34.6,0,62.7,28.1,62.7,62.7
		s-28.1,62.7-62.7,62.7s-62.7-28.1-62.7-62.7c0-23,12.4-43.1,30.9-54l-4.1-8.4c-21.6,12.5-36.1,35.8-36.1,62.4c0,39.7,32.3,72,72,72
		s72-32.3,72-72S447.5,366.4,407.8,366.4z"/>
	<path class="st1" d="M350.8,311.8c-1.1-2.3-1-4.9,0.4-7.1c1.4-2.2,3.7-3.5,6.2-3.5H387c5.4,0,9.8,4.4,9.8,9.8h9.4
		c0-10.5-8.6-19.1-19.1-19.1h-29.6c-5.8,0-11.1,2.9-14.2,7.9c-3.1,4.9-3.4,11-0.8,16.2l29.5,60.1c2.7-1.6,5.5-2.9,8.4-4.2
		L350.8,311.8z"/>
	<path class="st1" d="M396,425.1c2.3-2.1,5.2-3.5,8.4-4.1l-20-40.6c-2.9,1.2-5.7,2.6-8.4,4.1L396,425.1z"/>
	<path class="st1" d="M384.5,380.3l-4.1-8.4c-2.9,1.2-5.7,2.6-8.4,4.2l4.1,8.4C378.7,382.9,381.5,381.5,384.5,380.3z"/>
	<path class="st3" d="M390,438.4c0,9.8,8,17.8,17.8,17.8s17.8-8,17.8-17.8s-8-17.8-17.8-17.8c-1.2,0-2.3,0.1-3.4,0.3l2.2,4.4
		c0.4,0,0.8-0.1,1.2-0.1c7.3,0,13.2,5.9,13.2,13.2s-5.9,13.2-13.2,13.2c-7.3,0-13.2-5.9-13.2-13.2c0-3.5,1.3-6.6,3.5-9l-2.2-4.4
		C392.3,428.4,390,433.1,390,438.4z"/>
	<path class="st3" d="M406.6,425.3l-2.2-4.4c-3.2,0.6-6.1,2.1-8.4,4.1l2.2,4.4C400.4,427.2,403.3,425.7,406.6,425.3z"/>
	<path class="st1" d="M407.8,425.3c-0.4,0-0.8,0-1.2,0.1c-3.3,0.3-6.3,1.8-8.4,4.1c-2.2,2.3-3.5,5.5-3.5,9c0,7.3,5.9,13.2,13.2,13.2
		c7.3,0,13.2-5.9,13.2-13.2S415.1,425.3,407.8,425.3z M407.8,446.9c-4.7,0-8.5-3.8-8.5-8.5c0-1.6,0.4-3,1.2-4.3
		c1.5-2.5,4.2-4.2,7.3-4.2c0.4,0,0.7,0,1.1,0.1c4.2,0.5,7.4,4.1,7.4,8.4C416.3,443.1,412.5,446.9,407.8,446.9z"/>
</g>
</svg>
