<?xml version="1.0" encoding="utf-8"?>
<!-- Generator: Adobe Illustrator 26.0.1, SVG Export Plug-In . SVG Version: 6.00 Build 0)  -->
<svg version="1.1" id="Layer_1" xmlns="http://www.w3.org/2000/svg" xmlns:xlink="http://www.w3.org/1999/xlink" x="0px" y="0px"
	 viewBox="0 0 512 512" style="enable-background:new 0 0 512 512;" xml:space="preserve">
<style type="text/css">
	.st0{fill:#FFBF00;}
	.st1{fill:#D48200;}
	.st2{fill:#FFFFFF;}
	.st3{fill:#080707;}
</style>
<g>
	<rect x="459.9" y="414.9" width="18.9" height="21"/>
	<rect x="459.9" y="393.8" width="18.9" height="21"/>
	<rect x="459.9" y="372.8" width="18.9" height="21"/>
	<rect x="459.9" y="351.8" width="18.9" height="21"/>
	<rect x="459.9" y="330.7" width="18.9" height="21"/>
	<rect x="438.8" y="435.9" width="21" height="21"/>
	<rect x="438.8" y="414.9" class="st0" width="21" height="21"/>
	<rect x="438.8" y="393.8" class="st0" width="21" height="21"/>
	<rect x="438.8" y="372.8" class="st0" width="21" height="21"/>
	<rect x="438.8" y="351.8" class="st0" width="21" height="21"/>
	<rect x="438.8" y="330.7" class="st0" width="21" height="21"/>
	<rect x="438.8" y="309.7" width="21" height="21"/>
	<rect x="417.8" y="456.9" width="21" height="21"/>
	<rect x="417.8" y="435.9" class="st0" width="21" height="21"/>
	<rect x="417.8" y="414.9" class="st0" width="21" height="21"/>
	<rect x="417.8" y="393.8" class="st0" width="21" height="21"/>
	<rect x="417.8" y="372.8" class="st0" width="21" height="21"/>
	<rect x="417.8" y="351.8" class="st0" width="21" height="21"/>
	<rect x="417.8" y="330.7" class="st1" width="21" height="21"/>
	<rect x="417.8" y="309.7" class="st0" width="21" height="21"/>
	<rect x="417.8" y="288.7" width="21" height="21"/>
	<rect x="396.8" y="478" width="21" height="21"/>
	<rect x="396.8" y="456.9" class="st0" width="21" height="21"/>
	<rect x="396.8" y="435.9" class="st0" width="21" height="21"/>
	<rect x="396.8" y="414.9" class="st0" width="21" height="21"/>
	<rect x="396.8" y="393.8" class="st0" width="21" height="21"/>
	<rect x="396.8" y="372.8" class="st1" width="21" height="21"/>
	<rect x="396.8" y="351.8" class="st0" width="21" height="21"/>
	<rect x="396.8" y="330.7" class="st1" width="21" height="21"/>
	<rect x="396.8" y="309.7" class="st1" width="21" height="21"/>
	<rect x="396.8" y="288.7" class="st0" width="21" height="21"/>
	<rect x="396.8" y="267.6" width="21" height="21"/>
	<rect x="375.7" y="478" width="21" height="21"/>
	<rect x="375.7" y="456.9" class="st0" width="21" height="21"/>
	<rect x="375.7" y="435.9" class="st0" width="21" height="21"/>
	<rect x="375.7" y="414.9" class="st0" width="21" height="21"/>
	<rect x="375.7" y="393.8" class="st0" width="21" height="21"/>
	<rect x="375.7" y="372.8" class="st0" width="21" height="21"/>
	<rect x="375.7" y="351.8" class="st1" width="21" height="21"/>
	<rect x="375.7" y="330.7" class="st1" width="21" height="21"/>
	<rect x="375.7" y="309.7" class="st0" width="21" height="21"/>
	<rect x="375.7" y="288.7" class="st0" width="21" height="21"/>
	<rect x="375.7" y="267.6" width="21" height="21"/>
	<rect x="354.7" y="478" width="21" height="21"/>
	<rect x="354.7" y="456.9" width="21" height="21"/>
	<rect x="354.7" y="435.9" class="st0" width="21" height="21"/>
	<rect x="354.7" y="414.9" class="st0" width="21" height="21"/>
	<rect x="354.7" y="393.8" class="st0" width="21" height="21"/>
	<rect x="354.7" y="372.8" class="st0" width="21" height="21"/>
	<rect x="354.7" y="351.8" class="st0" width="21" height="21"/>
	<rect x="354.7" y="330.7" class="st0" width="21" height="21"/>
	<rect x="354.7" y="309.7" class="st0" width="21" height="21"/>
	<rect x="354.7" y="288.7" width="21" height="21"/>
	<rect x="354.7" y="267.6" width="21" height="21"/>
	<rect x="333.7" y="478" width="21" height="21"/>
	<rect x="333.7" y="456.9" class="st0" width="21" height="21"/>
	<rect x="333.7" y="435.9" width="21" height="21"/>
	<rect x="333.7" y="414.9" class="st0" width="21" height="21"/>
	<rect x="333.7" y="393.8" class="st0" width="21" height="21"/>
	<rect x="333.7" y="372.8" class="st0" width="21" height="21"/>
	<rect x="333.7" y="351.8" class="st0" width="21" height="21"/>
	<rect x="333.7" y="330.7" class="st0" width="21" height="21"/>
	<rect x="333.7" y="309.7" width="21" height="21"/>
	<rect x="333.7" y="288.7" class="st0" width="21" height="21"/>
	<rect x="333.7" y="267.6" width="21" height="21"/>
	<rect x="312.6" y="456.9" width="21" height="21"/>
	<rect x="312.6" y="435.9" class="st0" width="21" height="21"/>
	<rect x="312.6" y="414.9" width="21" height="21"/>
	<rect x="312.6" y="393.8" width="21" height="21"/>
	<rect x="312.6" y="372.8" width="21" height="21"/>
	<rect x="312.6" y="351.8" width="21" height="21"/>
	<rect x="312.6" y="330.7" width="21" height="21"/>
	<rect x="312.6" y="309.7" class="st0" width="21" height="21"/>
	<rect x="312.6" y="288.7" width="21" height="21"/>
	<rect x="291.6" y="435.9" width="21" height="21"/>
	<rect x="291.6" y="414.9" class="st0" width="21" height="21"/>
	<rect x="291.6" y="393.8" class="st0" width="21" height="21"/>
	<rect x="291.6" y="372.8" class="st0" width="21" height="21"/>
	<rect x="291.6" y="351.8" class="st2" width="21" height="21"/>
	<rect x="291.6" y="330.7" class="st2" width="21" height="21"/>
	<rect x="291.6" y="309.7" width="21" height="21"/>
	<rect x="270.6" y="414.9" width="21" height="21"/>
	<rect x="270.6" y="393.8" width="21" height="21"/>
	<rect x="270.6" y="372.8" width="21" height="21"/>
	<rect x="270.6" y="351.8" width="21" height="21"/>
	<rect x="270.6" y="330.7" width="21" height="21"/>
</g>
<g>
	<path class="st3" d="M486.1,126.2c-3.4,0.2-6.1,2.3-9.1,3.6c-6.8,1-13,4.4-19.4,6.9c-1.5,0.6-2.4,2.2-3.2,3.5
		c-1.6,3.1-4.4,5.5-6.4,8.3c-2.1,3-4.3,6-7,8.5c-3.3,0.7-6.2,2.5-9.4,3.2c3.2-4.7,6-9.7,9.5-14.2c1.3-1.6,1.8-3.7,3.1-5.3
		c7.9-10.6,16.4-20.8,22.5-32.6c4-7.8,6-17.3,2.5-25.6c-5,4.1-10.7,8-17.4,8.2c-2.5,0-4.5,1.9-5.1,4.3c-1.5,5.7-3.8,11.1-5.3,16.7
		c-2.8,6.1-5.6,12.2-8,18.4c0.1-2.3,1.3-4.3,1.6-6.5c-0.8-4.2-1.1-8.6-3.4-12.4c3.6-1.1,6.5-3.4,10.1-4.6c-4,0.1-6.8,3.6-10.7,3.9
		c-0.8-1-1.8-2.1-2.7-3.1c0.5-1,1-1.9,1.5-2.9c-0.7,0.8-1.2,1.6-1.8,2.5c-2.4-0.9-4-2.7-5.4-4.7c0.2,0.9,0.4,1.8,0.6,2.7
		c-2.4-0.2-4.7,0.2-7.1,0.3c-0.1-0.3-0.3-0.9-0.4-1.2c-0.1,0.5-0.2,1.4-0.3,1.8c-2.6,0.6-5.3,1.2-7.5,2.8c-0.2-0.4-0.5-0.9-0.8-1.2
		c-1,1.7-2.8,2.5-4.4,1.2c0,0.8,0.1,1.9-0.7,2.3c-2.4,2.1-4.8,4.4-7.5,6.2c-1.4,0.9-3,1.6-4.1,2.8c-2,2.7-3.1,6.1-5.4,8.7
		c2.4-6.1,5.8-11.7,9.3-17.1c3-4.1,6-8.4,10.4-11c-1,0.2-2,0.6-3,0.8c-3-2.4-4.9-5.8-6.3-9.4c0.5,3.9,3.4,6.8,5.8,9.7
		c-1.7,2.4-3.9,4.5-5.7,6.8c-5.3,6.7-9.3,14.3-13.3,21.9c-0.7-0.1-1.4-0.2-2.1-0.3c-0.6-1.7-2.1-3.4-1.4-5.3c1.1-4,2.1-8,2.8-12.1
		c-1.5,4.4-2.1,9-3.6,13.3c-3.2-4.1-0.6-9.1,0.3-13.5c1.2-0.3,2.2-0.6,3.5-0.8c4.8-7.6,6.8-16.5,11.2-24.4c1.6-4.8,4.7-9.1,5.7-14.2
		c0.4-0.9-0.1-1.9-0.5-2.7c0.2,2.2,0.2,4.5-0.8,6.7c-3.3,7.1-7.1,14.1-9.8,21.6c-1.7,3.8-2.8,7.9-5.1,11.3c-0.7,1.5-2.5,1.2-3.9,1.7
		c0-1.2-0.1-2.5,0.2-3.6c2.2-5.2,5.6-9.8,9.2-14.1c2.3-2.8,1.9-6.7,2.2-10.1c-0.2-3.8,0.7-7.6-0.5-11.3c-0.4,0.9-1,1.8-0.9,2.9
		c0.1,4.9,0.6,10.1-1.3,14.7c-3.4,2.6-6.4,6-7.5,10.1c-0.1-0.7-0.3-1.4-0.5-2.2c-1.7,3-3.1,6.2-4.6,9.4c-0.1-0.4-0.2-1.3-0.3-1.8
		c-0.2-11.1,0.6-22.1,3-32.9c-3.5,11.1-3,23-3.8,34.5c-1.8,4.3-1.1,9-1.9,13.6c-0.3-4.9-0.1-9.9-1.7-14.6c-0.9-2.8-0.1-5.8,0-8.7
		c1.2-10.2,2.5-20.5,6.8-29.9c1.8-3.1,4-6,6.5-8.5c2.1-2.3,5.1-3.5,7.7-5c-0.8-0.4-1.6-0.8-2.5-1.2c0.4-1.8,0.7-3.7,1.1-5.4
		c-0.7,0.1-1.5,0.1-2.2,0.3c0.6,2.3,1.1,4.6,0.9,7c-6.7,3.4-11.4,9.9-13.8,16.9c-5.1,13.4-5.3,27.7-7.2,41.7
		c-1.7,3.8-1.7,8-2.6,12.2c-0.9,4.6-1.4,9.3-1.9,13.9c-1.6,1.2-3.6,2.2-4.3,4.2c-4,8.8-3.9,18.5-6.5,27.7c-1.6,1.7-4.2,1.7-6.3,2.2
		c-10.5,2.2-21.4,2.7-32,0.9c-0.2,0.6-0.5,1.7-0.7,2.3c5.1-0.1,10.1,0.5,15.1,0.3c2.7,0.4,5.4-0.5,8.1-0.2c1.1,0.1,2.2,0,3.1-0.4
		c5-1.4,10.1-2.3,15.2-3.1c2.7-0.7,1.5-4.2,2-6.2c1.1-6.7,1.8-13.4,3.3-20c0.1-1.2,1.1-2,2.1-2.5c-0.3,8.9-2,18.2,1.2,26.8
		c0,3.2,0.7,6.6-0.2,9.7c-0.4-0.9-0.7-1.8-1.1-2.7c-0.1,1.8,0,3.5-0.1,5.2c-1-1.7-1.8-3.8-3-5.4c0.3,2.3,1.5,4.2,2.3,6.2
		c-0.3,2.4-1.3,4.7-2.4,6.8c-0.6-1.3-1.1-2.8-1.8-4c-0.1,1.4,0.7,2.9,0.4,4.4c-2,2-4.4,3.4-6.3,5.5c-3.3,2.9-4.2,7.3-6.5,10.9
		c-2.2,4.5-4.6,8.9-6.1,13.8c-8.9,7.8-18.6,14.6-29.2,19.9c0.5,0.9,1,1.7,1.5,2.7c1.4-1.4,2.8-2.9,4.6-3.8
		c5.8-3.2,11.1-7.2,16.7-10.7c2.7-2.7,5.9-4.5,9-6.6c2.5-1.8,2.5-5.2,3.8-7.8c2.1-4,3.2-8.5,5.2-12.6c2.1-0.6,3.8-2.1,6.1-2.3
		c-2.4,1.9-5.4,3.1-6.7,6.1c-2.1,4.8-1.2,11,3,14.3c2.5,1.9,4.7,4.1,6.6,6.6c0.5,0.1,1.4,0.3,1.8,0.4c-0.2,0.1-0.8,0.3-1,0.3
		c-0.1,2.6-2.3,3.7-4.4,4.6c0.5,0,1.6,0,2.1,0c-0.2,1.1-0.4,2.4-0.1,3.6c1.6-1.1,2.8-2.6,4-4c0.8,1.4,1.5,2.8,2.3,4.2
		c0.2-1.7-0.8-3.1-1.6-4.4c0.3-0.2,0.7-0.8,1-1.1c0.2,0.8,0.4,1.6,0.6,2.4c0.5,0.1,1.5,0.4,1.9,0.5c0.4,3.2,1.9,6,4.3,8
		c-0.8-1.8-1.1-3.7-0.8-5.6c3.3-0.6,6.2-2.3,9.5-2.8c-0.3-0.3-0.9-1-1.3-1.3c4.4,1.7,10.2,0.7,13.1-3.2c2.8-3.1,2.8-7.5,2.1-11.4
		c0.3-0.3,0.9-1,1.2-1.3c-1.9-0.2-2.8-2-4-3.1c-1.5-1.5-3.5-2.4-5.3-3.9c3.6,0.2,7,2.1,10.8,1.4c0-0.9-0.1-1.8-0.2-2.7
		c0.7-0.5,1.3-1.1,1.9-1.5c-0.2,2.9-1,5.7-1.4,8.6c-0.3,1.5,1,2.9,0.4,4.5c-1,4.5-1.9,8.9-2.5,13.4c-0.2,1.2,1,2,1,3.1
		c0.1,4.2-0.1,8.5,0.7,12.6c1,2.3,0.1,4.9,1,7.2c0.8,2.1,0.2,4.4,1,6.6c0.5,3.9,1.6,7.8,1.2,11.8c0.7-0.6,1.5-1.1,2.2-1.7
		c0.8,0.6,1.7,1.2,2.5,1.8c-2.5-3.6-3-8-3.9-12.1c-1.1-8.9-3.1-17.6-2.3-26.6c1.5-5.8,0.6-12.1,2.3-17.9c0.2,1.5,0.3,3,0.5,4.5
		c0.3-1.8,0.4-3.8,0.7-5.6c1-2.8,2.9-5.3,3.3-8.4c0.8-3.8-0.4-7.7,0.9-11.4c0.5-0.1,1.6-0.3,2.1-0.4c0.4-1.2,0.4-2.9,1.9-3.4
		c2.8-1.7,5.3-4,6.2-7.3c-0.7-0.1-1.4-0.2-2.1-0.3c1.3-1.1,2.3-2.5,3.4-3.8c-0.5,0.8-1.3,2.4-1.7,3.2c3.4-0.6,3.7-4.8,6.2-6.6
		c3-1.4,6.1-2.7,9.4-3.1c0.6,1.9,0,4-0.3,5.9c-1.2,5.1-2.2,10.1-3,15.2c-1,3.6-0.8,7.7-3.1,10.9c0.9-1.2,1.7-2.4,2.6-3.6
		c4.9,4.8,8.3,10.8,12.1,16.5c2.5,1.3,3.7,4,5.3,6.2c0.4,0.7,1.2,0.7,1.9,1c1,1.6,2,3.2,3,4.9c0.5-0.7,1.2-1.4,1.7-2.2
		c-7.9-8-14.9-16.9-21-26.5c0.8-6.5,2.2-13,3.1-19.5c0.4-4.5,1.9-9,0.1-13.4c-2.4-1.5-5.2-0.2-7.7,0.4c0.8-1.6,1.7-3.4,3.6-3.5
		c5.6-1.7,11.9-3.5,15.2-8.6c2.5-2.4,5-4.9,7.4-7.4c2.8-3.4,5.3-7.1,8.4-10.2c3.4-5.8,10.7-6.8,16.4-9c3-1.6,6.3-2.6,9.5-3.8
		c2.9-1.9,6.3-2.7,9.1-4.6c4-1.6,7.3-5,11.8-4.8c-0.9-1-1.8-2.1-2.5-3.2C498.2,120.5,492,123,486.1,126.2z M370.6,232.3
		C373.1,232,369.8,234.7,370.6,232.3L370.6,232.3z M369,106.7c1.7,4.3,1.2,9.3,1,13.8c-0.9-1.6-1.5-3.3-2.5-4.9
		C368.4,112.7,368.5,109.6,369,106.7z M364.8,175.6c-1.1-0.1-1.3-0.6-0.7-1.5C365.2,174.2,365.4,174.7,364.8,175.6z M362.8,164.1
		c0.7-2,1.4-4.2,0.7-6.4c-1-3.4-0.7-7-0.4-10.6c1,1.4,3,2.5,2.7,4.4c-0.6,4-0.8,8-1.4,12C363.9,163.6,363.1,163.9,362.8,164.1z
		 M370.4,158.1c-0.3-0.4-0.9-1-1.2-1.4c-0.6,1.2-1.1,2.4-1.7,3.5c-1.2-2.6-0.3-5.6,0.3-8.3c0.6,1.5,1.1,3,1.4,4.6
		c0.3-0.3,0.9-1,1.2-1.3C370.4,156.1,370.4,157.1,370.4,158.1z M363.8,138.3c0.6-7.4,1.9-14.8,3.3-22.1c0.9,1.5,1.8,3,2.2,4.6
		c0.4,5.3-1,10.4-1.1,15.6c-0.1,2.2-0.5,4.4-0.9,6.5C366.1,141.4,363.5,140.6,363.8,138.3z M372.8,149.4c-1.1-0.4-1.1-2.4-0.3-3
		C373.6,146.7,373.4,148.7,372.8,149.4z M380.5,152.5c-1-0.5,0-2,0.7-2.3C383,149.7,381.4,152.5,380.5,152.5z M376.1,136.3
		c0.1,0.3,0.2,0.4,0.2,0.4S376.2,136.6,376.1,136.3z M375.5,136.6c-1.1,1.2-2.7,2.1-3.4,3.7c0.2,2.3,0.5,4.8-1.3,6.6
		c-1.6-3.2,0-6.5,1.6-9.2c0.3-2.4,0.2-4.8,1.4-7C374.6,132.7,375.3,134.5,375.5,136.6z M373.3,128c-0.7,2.4-2.5,4.6-2.2,7.2
		c0.2,3-1,5.9-2.1,8.7c-0.6-1.2,0-2.5,0-3.7c0.4-6.2,0.9-12.4,2.2-18.5c0.3,3,0.5,6.1-0.1,9.1C371.9,129.8,372.5,128.9,373.3,128z
		 M377,109.5c0.7,0.8,0.9,1.7,0.6,2.6c-0.7,2.8-1.5,5.6-2.4,8.4C372.3,116.9,375.4,112.8,377,109.5z M413.4,186.6
		c-1.7,2.1-3.2,5.1-6.1,5.6c0.8-0.8,1.6-1.6,2.4-2.3C410.8,188.5,411.3,186.4,413.4,186.6z M451.2,129.6c-1.7,2.1-3.1,4.7-5.8,5.8
		c-2.4,1.1-4.2,3.3-6.6,4.6c8.4-10.8,18.2-20.5,25.4-32.3c1.9-2.7,2.7-6.2,5.2-8.6C465.8,110.5,458.4,120.2,451.2,129.6z
		 M434.7,130.2c0.7-1.6,1.4-3.1,1.9-4.8c1.8-6.4,5.4-12.3,6.8-18.8c1.5-4.3,2.7-8.7,4.3-13c0.8-2.2,3.5-2.5,5.5-2.7
		c5.9-0.7,11-3.9,15.5-7.6c0.1,0.4,0.3,1.2,0.3,1.6c-2.9,4.5-4.7,9.5-7.9,14c-8.1,11.8-16.2,23.8-25.6,34.7
		c-0.3-0.5-0.9-1.3-1.1-1.8c1-1.1,2.3-1.8,3.7-2.5C437,129.7,435.8,130,434.7,130.2z M434.1,133.7c1.1,0.4,0.3,2.1-0.5,2.4
		C432.6,135.8,433.4,134.1,434.1,133.7z M426.8,153.9c-0.4-0.1-1-0.6-1.4-0.7c1.9-2.8,3.5-5.8,4.8-8.9c0.4-1.6,2.4-1.2,3.7-1.5
		c-0.9-0.2-1.7-0.4-2.7-0.5c0.9-2,2.6-2.8,4.6-3c-0.9,0-1.8,0.1-2.7,0.2c0.5-1,1-2,1.5-2.9c0.9-0.2,1.8-0.4,2.8-0.6
		c-0.8,0-2.2,0.2-2.9,0.2c9.9-11.9,18.6-24.8,27.5-37.6c2.9-4,4.4-8.9,7-13.1c1.6,3.5,1.2,7.7,0.5,11.4c-1.5,3-3.5,5.6-4.9,8.6
		c-7.2,12.9-18.1,23.1-27.2,34.6c-2.9,3.7-6.2,6.9-9.3,10.5c0.7-0.3,2.1-0.9,2.8-1.2c-2.1,2.9-4.1,5.9-6.6,8.3
		C425.1,156.4,425.9,155.1,426.8,153.9z M428.4,160.7c-1.3,0.4-2.6,1.1-4,1.5c4-4.7,7.7-9.7,11.3-14.6c-3.3,2-4.5,6.3-7.8,8.3
		c2.2-4.8,6.4-8,9.2-12.4c2.6-2.7,5.3-5.8,8.8-7.3c-1.6,2.4-3.4,4.7-4.9,7.2c-2,1.2-4.6,2-5.7,4.3c1.7-1,3.2-2.3,5-3.2
		c-1.6,3.5-4.3,6.6-6.3,9.9c-1.7,2-2.6,4.8-5.1,6c0.1-0.8,0.2-1.6,0.2-2.4C428.9,158.9,428.7,159.8,428.4,160.7z"/>
	<path class="st3" d="M450.5,231.2c-2.4-0.1-0.8,2.2,0,3.1c2.6,1.6,4.4,4.1,5.7,6.9c0.3-1.9,1.3-3.4,3.3-3.7
		C455.5,237,453.2,233.7,450.5,231.2z"/>
	<path class="st3" d="M390.6,213.9c1.2-0.1,1.4-0.5,0.6-1.3C390,212.6,389.8,213.1,390.6,213.9z"/>
	<path class="st3" d="M363.9,236.9C363,239.2,366.4,236.7,363.9,236.9L363.9,236.9z"/>
</g>
<g>
	<path class="st3" d="M144,89c2.9,1.6,5.8,3.2,8.4,5.1c5.1,3.1,11.9,5.2,14.2,11.2c2.5,3.5,4.2,7.4,6.4,11.1
		c1.9,2.8,3.9,5.5,5.9,8.3c2.3,5.4,8,8.1,13.1,10.6c1.9,0.3,2.4,2.3,2.9,3.9c-2.3-1-4.7-2.7-7.3-1.6c-2.4,3.9-1.7,8.5-2,12.8
		c-0.2,6.3,0.1,12.7-0.2,19c-7.3,8.1-15.5,15.5-24.3,21.8c0.4,0.8,0.9,1.6,1.3,2.4c1.3-1.4,2.5-2.8,3.7-4.2c0.7-0.2,1.5,0,2-0.6
		c1.9-1.9,3.4-4.3,6-5.1c4.5-4.8,8.7-10,14.1-13.8c0.7,1.3,1.3,2.6,1.9,3.9c-1.7-3.4-0.9-7.2-1.2-10.8c0.1-5-0.1-10-0.4-15
		c0-1.9-0.2-4,0.7-5.7c3.1,0.9,5.9,2.6,8.5,4.4c2.1,2.2,1.7,6.2,4.8,7.3c-0.3-0.8-0.8-2.5-1.1-3.4c0.8,1.4,1.6,2.9,2.6,4.2
		c-0.7,0-1.4-0.1-2.1-0.1c0.4,3.3,2.3,5.9,4.7,7.9c1.3,0.8,1.1,2.3,1.3,3.6c0.5,0.2,1.5,0.5,2,0.7c0.6,3.7-1.2,7.3-1,11
		c-0.2,3,1.3,5.7,1.8,8.5c0,1.8-0.2,3.7-0.2,5.5c0.5-1.4,0.8-2.8,1.2-4.2c0.7,5.8-1.2,11.6-0.7,17.4c-0.7,8.7-4,16.7-6.5,25
		c-1.5,3.8-2.7,7.9-5.6,11c0.9-0.4,1.8-0.9,2.7-1.3c0.6,0.7,1.2,1.3,1.8,2c0.3-3.8,1.9-7.4,3-11.1c1.2-1.9,0.9-4.2,2-6.1
		c1.3-2,0.8-4.7,2.1-6.7c1.4-3.8,1.9-7.9,2.7-11.9c0.1-1.1,1.4-1.7,1.4-2.8c0.1-4.4,0-8.8-0.3-13.2c-0.4-1.6,1.1-2.7,1.1-4.2
		c0.1-2.8-0.2-5.6,0.1-8.4c0.5,0.6,0.9,1.1,1.5,1.8c-0.3,0.8-0.5,1.7-0.6,2.6c3.4,1.3,7,0.1,10.5,0.4c-1.9,1.1-3.9,1.6-5.6,2.9
		c-1.4,0.9-2.5,2.5-4.3,2.3c0.2,0.3,0.7,1.1,0.9,1.4c-1.2,3.6-2,7.8,0.2,11.2c2.1,4.2,7.4,6,11.9,5.2c-0.4,0.2-1.1,0.8-1.4,1
		c3,1,5.6,3.1,8.6,4.2c0,1.9-0.6,3.6-1.6,5.2c2.7-1.6,4.5-4,5.4-7c0.4,0,1.5-0.2,1.9-0.2c0.3-0.7,0.7-1.4,0.9-2.2
		c0.2,0.3,0.6,0.9,0.8,1.2c-0.9,1.2-2.1,2.3-2.2,4c1-1.1,2-2.4,2.9-3.6c1,1.6,1.9,3.2,3.2,4.5c0.4-1.1,0.5-2.3,0.4-3.4
		c0.5,0,1.5,0.2,2,0.3c-1.8-1.3-3.7-2.6-3.4-5.1c-0.2-0.1-0.7-0.4-0.9-0.5c0.4,0,1.3-0.1,1.8-0.1c2.3-2,4.7-3.9,7.4-5.2
		c4.5-2.5,6.4-8.3,5.1-13.2c-0.8-3-3.4-4.7-5.4-6.9c2.1,0.5,3.5,2.2,5.4,3.2c1.2,4.2,1.6,8.7,2.9,12.8c0.8,2.7,0.2,5.9,2.3,8
		c2.6,2.5,5.4,4.8,7.5,7.8c4.7,4.2,9.2,8.8,14.2,12.8c1.5,1.2,2.7,2.8,3.8,4.4c0.6-0.8,1.2-1.5,1.8-2.3
		c-9.3-6.8-17.4-14.8-24.7-23.7c-0.7-4.8-2.3-9.5-3.6-14.1c-1.6-3.8-1.8-8.2-4.5-11.4c-1.5-2.3-3.6-4-5.1-6.3c0-1.4,1-2.7,1.1-4.1
		c-0.9,1.1-1.6,2.4-2.4,3.6c-0.7-2.2-1.2-4.5-1.2-6.9c1.1-1.8,2.6-3.5,3.2-5.6c-1.4,1.4-2.5,3.2-3.7,4.7c0.2-1.7,0.6-3.3,0.8-5
		c-0.5,0.8-1,1.6-1.5,2.4c-0.3-3.2,0.9-6.3,1.4-9.3c4.5-7.7,4.3-16.9,5.5-25.4c0.9,0.7,1.7,1.6,1.6,2.7c0.4,6.6-0.1,13.1-0.1,19.6
		c0.1,2-1.6,5.1,0.9,6.2c4.7,1.6,9.4,3.2,13.9,5.4c0.9,0.5,1.8,0.8,2.9,0.9c2.6,0.2,5,1.5,7.7,1.5c4.8,1,9.6,1.2,14.5,2.1
		c-0.1-0.6-0.2-1.7-0.3-2.3c-10.4,0-20.7-2.2-30.4-6c-2-0.8-4.4-1.3-5.7-3.1c-1-9.2,0.7-18.5-1.7-27.5c-0.4-2-2.2-3.3-3.5-4.7
		c0.3-4.5,0.5-9.1,0.4-13.6c-0.2-4.1,0.5-8.1-0.5-12c0.4-13.6,2.5-27.4-0.2-40.9c-1.2-7.1-4.7-13.9-10.5-18.3c0.2-2.3,1-4.5,2-6.5
		c-0.7-0.2-1.4-0.4-2-0.6c0.1,1.7,0,3.5,0.1,5.3c-0.9,0.2-1.7,0.5-2.6,0.7c2.3,1.9,4.9,3.5,6.5,6c1.9,2.8,3.6,5.9,4.8,9.1
		c2.6,9.6,2.2,19.7,1.7,29.6c-0.4,2.8-0.1,5.8-1.4,8.3c-2.3,4.2-2.9,9-4,13.6c0-4.5,1.5-8.9,0.4-13.3c1-11.1,3.4-22.4,1.9-33.5
		c0.6,10.6-0.5,21.3-2.4,31.8c-0.1,0.4-0.4,1.2-0.5,1.6c-0.9-3.3-1.8-6.6-2.9-9.7c-0.3,0.7-0.6,1.3-0.8,2c-0.4-4.1-2.8-7.9-5.6-10.9
		c-1.1-4.7,0.3-9.5,1.1-14.2c0.2-1-0.2-2-0.4-2.9c-1.8,3.3-1.5,7.1-2.3,10.7c-0.3,3.2-1.3,6.9,0.4,10c2.7,4.7,5.2,9.6,6.5,14.9
		c0.1,1.2-0.2,2.3-0.4,3.5c-1.2-0.7-3-0.7-3.5-2.2c-1.7-3.6-2.1-7.8-3.1-11.6c-1.4-7.6-3.9-14.8-5.9-22.1c-0.6-2.2-0.2-4.4,0.3-6.5
		c-0.5,0.7-1.2,1.6-1,2.5c0.1,5,2.5,9.6,3.2,14.4c3,8.2,3.4,17,6.8,25c1.1,0.3,2.1,0.9,3.2,1.3c0.2,4.4,1.8,9.5-1.9,12.9
		c-0.8-4.4-0.6-8.9-1.3-13.3c0,4,0.4,8,0.8,12c0.4,2-1.3,3.4-2.1,4.9c-0.7-0.1-1.4-0.1-2.1-0.1c-2.6-7.8-5.2-15.7-9.2-23
		c-1.3-2.5-3.1-4.8-4.3-7.4c2.8-2.4,6-4.7,7.1-8.3c-1.9,3.2-4.3,6.1-7.5,7.9c-0.9-0.4-1.8-0.9-2.7-1.3c3.8,3.2,6,7.8,8.2,12.2
		c2.5,5.7,4.8,11.6,6.2,17.8c-1.7-2.9-2.3-6.2-3.7-9.2c-0.8-1.4-2.3-2.3-3.5-3.4c-2.3-2.1-4.2-4.7-6.1-7.1c-0.7-0.6-0.4-1.6-0.3-2.4
		c-1.8,1-3.4-0.1-4-1.8c-0.3,0.3-0.7,0.7-1,1.1c-1.9-1.9-4.3-2.9-6.7-3.9c0-0.4,0-1.4,0-1.8c-0.2,0.3-0.5,0.9-0.6,1.1
		c-2.2-0.5-4.4-1.2-6.7-1.4c0.3-0.8,0.7-1.7,1-2.5c-1.7,1.7-3.5,3.1-5.9,3.6c-0.4-0.9-0.9-1.8-1.4-2.6c0.3,1,0.7,2,1,3
		c-1,0.8-2.1,1.7-3.1,2.5c-3.7-0.9-5.8-4.7-9.6-5.4c3.2,1.7,5.6,4.4,8.9,6c-2.8,3.2-3.8,7.4-5.2,11.2c0,2.2,0.7,4.3,0.5,6.5
		c-1.3-6.3-3-12.6-4.6-18.9c-0.5-5.6-1.8-11.2-2.4-16.8c-0.1-2.3-1.8-4.5-4.1-4.9c-6.3-1.2-11.2-5.9-15.3-10.6
		c-4.7,7.4-4.3,16.7-1.7,24.8c3.9,12.2,10.4,23.3,16.2,34.6c1,1.7,1.1,3.8,2.1,5.6c2.5,4.9,4.4,10.1,6.7,15.1
		c-3-1.2-5.5-3.4-8.5-4.6c-2.2-2.8-3.8-6-5.3-9.2c-1.5-3-3.8-5.7-4.8-8.9c-0.5-1.4-1.1-3-2.5-3.8c-5.7-3.4-11-7.7-17.3-9.7
		c-2.7-1.7-4.9-4.1-8.1-4.8c-5.1-4-10.7-7.4-14.7-12.4c-0.8,1-1.8,1.9-2.9,2.7c4.3,0.5,6.9,4.3,10.5,6.4
		C138.4,85.5,141.5,86.8,144,89z M247.4,126.8c-0.5-0.7-0.3-2.7,0.7-2.8C248.8,124.7,248.5,126.6,247.4,126.8z M250.8,153
		c-0.4-0.9-0.2-1.3,0.9-1.3C252.2,152.7,251.9,153.1,250.8,153z M250.8,138c-0.4-1.2-0.7-2.4-1-3.6c-0.4,0.3-1.1,0.9-1.4,1.2
		c0.2-0.9,0.3-1.9,0.5-2.8c0.2,0.3,0.7,1.1,0.9,1.4c0.6-1.4,1.3-2.8,2.1-4.1C252,132.7,252.3,135.6,250.8,138z M255,136.2
		c-1.1,2-0.7,4.2-0.4,6.2c-0.3-0.2-1-0.6-1.2-0.9c0-3.9,0.4-7.7,0.5-11.6c0-1.9,2.1-2.6,3.2-3.8C256.7,129.6,256.5,133.1,255,136.2z
		 M257.9,86.7c0,2.9-0.3,5.8,0,8.7c-1.2,1.3-2.1,2.9-3.2,4.3C255.2,95.3,255.6,90.5,257.9,86.7z M253.9,115.1
		c0.7-5,0.2-10.1,1.4-15.1c0.6-1.5,1.8-2.8,2.9-4.1c0.1,7.2,0.2,14.4-0.4,21.6c0,2.3-2.7,2.6-4,3.9
		C253.6,119.4,253.6,117.3,253.9,115.1z M253.3,100.6c0.3,6-0.2,12-0.9,18c-0.2,1.2,0.2,2.5-0.6,3.5c-0.6-2.8-1.2-5.8-0.6-8.6
		c0.7-2.4-0.7-4.8-1-7.2c0.6,1,1.1,2,1.6,3C251.9,106.4,252.5,103.4,253.3,100.6z M249.8,88c1,3.4,3.2,7.8-0.1,10.8
		c-0.4-2.8-0.7-5.6-0.9-8.3C248.7,89.5,249.1,88.7,249.8,88z M249.4,108.8c0.8,2.3,0.3,4.6,0.2,6.9c1.1,2.9,2.1,6.3,0.1,9.1
		c-1.5-2.1-0.8-4.4-0.2-6.5c-0.4-1.7-1.7-2.8-2.6-4.1C247.4,112.2,248.4,110.5,249.4,108.8z M246.4,113.8c-0.2,0.2-0.3,0.3-0.3,0.3
		S246.2,114,246.4,113.8z M239.2,126.2c0.6,0.5,1.4,2,0.3,2.4C238.7,128.4,237.6,125.5,239.2,126.2z M236.2,206.1
		C236.6,208.5,233.9,205.4,236.2,206.1L236.2,206.1z M207.7,162c-2.7-1-3.6-4-4.9-6.3c2,0.2,2.2,2.3,3,3.7
		C206.4,160.3,207.1,161.1,207.7,162z M191.5,104.4c-0.7-0.5-1.2-2.2-0.1-2.4C192.1,102.5,192.6,104.3,191.5,104.4z M166.5,48.4
		c3.7,4.2,8,8.1,13.6,9.7c1.9,0.6,4.4,1.2,4.8,3.5c0.8,4.4,1.3,8.7,2,13.1c0.3,6.4,2.8,12.5,3.5,19c0.2,1.7,0.7,3.3,1,4.9
		c-1-0.4-2.1-0.9-3.1-1.4c1.2,0.9,2.3,1.8,3.1,2.9c-0.3,0.4-1,1.1-1.3,1.5c-7.2-11.9-13-24.6-18.8-37.2c-2.3-4.7-3.2-9.8-5.3-14.6
		C166.1,49.5,166.4,48.8,166.5,48.4z M165.8,50.4c1.8,4.4,2.5,9.3,4.6,13.6c6.4,13.6,12.6,27.3,20.2,40.3c-0.6-0.2-2-0.5-2.7-0.7
		c0.9,0.3,1.7,0.7,2.6,1c0.4,1,0.7,2,1,3c-0.8-0.3-1.6-0.5-2.5-0.6c1.9,0.5,3.4,1.6,3.9,3.6c-0.9,0-1.7,0-2.6,0.1
		c1.2,0.6,3.1,0.4,3.3,2.1c0.8,3.2,1.8,6.3,3.2,9.3c-0.4,0.1-1,0.4-1.4,0.5c0.7,1.3,1.3,2.6,1.7,4c-2-2.7-3.4-5.9-5-8.9
		c0.6,0.4,1.9,1.2,2.5,1.6c-2.4-3.8-5-7.5-7.2-11.5c-6.8-12.4-15.6-23.9-20.4-37.3c-0.9-3.1-2.4-6-3.3-9
		C163.4,57.6,163.7,53.5,165.8,50.4z M175.9,95.3c-5.4-10.1-10.8-20.5-12.6-31.9c2,2.6,2.3,6.1,3.6,9c5,12.3,12.8,23.2,19.1,34.8
		c-2-1.7-3.4-4-5.6-5.5C178.1,100.3,177.1,97.6,175.9,95.3z M188.1,121.8c-1.4-3.5-3.4-6.8-4.4-10.4c1.6,1.1,2.8,2.6,4.3,3.8
		c-0.7-2.3-3.1-3.5-4.8-5c-1-2.7-2.3-5.2-3.5-7.7c3.2,1.9,5.2,5.3,7.3,8.3c2,4.6,5.5,8.4,6.8,13.3c-2.8-2.5-3.3-6.7-6.1-9.1
		c2.7,5.3,5.4,10.6,8.5,15.7c-1.3-0.6-2.4-1.4-3.6-2.1c-0.1-0.9-0.2-1.8-0.4-2.6c-0.1,0.8-0.1,1.5-0.2,2.3
		C189.9,126.7,189.4,124,188.1,121.8z"/>
	<path class="st3" d="M205.8,140.8c-2.2,1.4-4.2,3.4-7,3.3c1.4,0.4,1.9,1.6,1.9,2.9c1.2-1.8,2.8-3.3,4.7-4.1
		C206.1,142.5,207.5,141.1,205.8,140.8z"/>
	<path class="st3" d="M248.8,134.8c-0.7,0.5-0.5,0.8,0.3,1C249.7,135.3,249.6,135,248.8,134.8z"/>
	<path class="st3" d="M264.8,154.7C263.1,154.3,265.1,156.5,264.8,154.7L264.8,154.7z"/>
</g>
<g>
	<path class="st3" d="M29.6,215.2c-0.7,0.7-1.4,1.5-2.1,2.2c2.3,1,4.6,2.3,7,3.3c-0.3,1.2-0.5,2.5-0.7,3.8c3.9-1.7,7.7-4,12-4.5
		c4.9-0.6,10-0.8,14.9-0.2c14.2,2.9,26.9,10,39.4,17.1c3.4,2.3,7.4,3.8,9.9,7.2c4,5.7,9.7,9.6,15,14c-5.8-3-10.5-7.7-16.9-9.2
		c-13.7-8.6-26.7-19-42.1-24.3c14.1,6.2,27.2,14.5,39.5,23.9c0.4,0.4,1.3,1.3,1.8,1.8c-4.8-1-9.7-2-14.4-2.6c0.7,0.8,1.3,1.7,2,2.4
		c-5.6-2.2-11.9-1.6-17.7,0.1c-6.7-1.7-12.1-6.6-17.6-10.7c-1.2-1-2.7-1-4.1-1.3c3.1,4.4,8.2,6.6,12.3,9.9c4,2.5,8,6.2,13.2,5.9
		c7.8-0.5,15.8-0.5,23.5,1.4c1.6,0.6,2.8,1.8,4.2,2.8c-1.7,1.1-2.9,3.5-5.2,3c-5.8-0.2-11.4-2.4-17.1-3.6
		c-10.7-3.1-21.6-4.7-32.5-6.8c-3.3-0.6-5.9-2.6-8.2-4.6c0.6,1.1,1.2,2.5,2.6,2.9c6.5,3.1,14,3.1,20.7,5.3
		c12.5,1.5,24.2,6.7,36.8,7.5c1.2-1.2,2.5-2.1,3.8-3.2c5.7,2.7,13.5,3.9,15.5,10.9c-6.2-1.9-11.9-5-18-6.9c5.2,2.6,10.6,4.7,16,6.9
		c2.8,0.8,3.5,3.9,4.9,6c-0.5,0.9-1,1.7-1.4,2.6c-11.8-1.7-23.7-3.5-35.7-3.1c-4.1,0.1-8.3,0.8-12.4,0.7c-1.2-5.1-2.2-10.8-6.1-14.7
		c2.8,4.6,5.1,9.6,5.3,14.9c-1.1,0.9-2.3,1.7-3.4,2.7c6.7-2.8,14-2.7,21.1-2.7c9,0.5,18.2,1.4,27.1,3.7c-4.8,0.3-9.5-1.1-14.3-1.1
		c-2.4,0.2-4.5,1.5-6.6,2.3c-4.2,1.6-8.7,2.3-13.2,3.3c-1.2,0.6-2.3-0.5-3.2-1.1c0.1,3-2.3,4.3-5,4c0.2,0.6,0.4,1.3,0.7,1.9
		c-3.6,1.2-6.5,3.7-9.4,6.1c-0.6-0.3-1.8-0.9-2.4-1.1c0.2,0.4,0.8,1.2,1.1,1.5c-2.1,2.6-4.4,4.8-6.2,7.7c-0.9-1-1.7-2-2.6-3
		c1.1,3.2,1.8,6.6,0.8,10c-1.4,0-2.9-0.1-4.3,0c1.5,0.3,3,0.4,4.5,0.7c0.4,1.9,0.8,3.8,1.2,5.6c-3.6,4.2-9.8,4.4-13.2,8.8
		c4.3-3,9.4-4.4,13.6-7.5c2.3,5.7,7.1,9.7,11.1,14c2.8,1.5,6,1.8,8.7,3.6c-9-2.5-18.2-4.3-27.4-6.3c-7.6-3-15.6-4.9-23.3-7.9
		c-3.1-1.3-7-0.7-9,2.1c-5.7,7.4-14.9,10.6-23.6,12.8c6.5,10.9,18.8,16.5,31,18.4c18.3,2.9,36.9,1.7,55.4,1.6
		c2.9-0.2,5.7,1.1,8.6,0.9c8-0.1,15.9,0.9,23.9,1.1c-3.5,3.1-7.9,4.9-11.5,7.9c-5.1,0.9-10.3,1-15.4,0.9c-4.8,0-9.8,1.2-14.7,0.4
		c-2.1-0.2-4.6-0.5-6.6,0.7c-8.1,5.1-17.1,9.2-23.9,16.1c-3.9,2.3-8.5,3.6-11.5,7.3c-8.5,3.9-16.5,9-25.6,10.9
		c0.8,1.7,1.3,3.6,1.6,5.5c3.4-5.3,10-6.2,15.1-9.3c4.5-1.6,8.2-4.8,12.8-6.5c4-2.6,7.9-5.4,12.1-7.5c7.3-4.6,14.4-11.9,23.8-11
		c6.1-0.9,12.3-0.7,18.4-1c4.9-0.6,9.7-1.4,14.6-2.2c8.5,0.6,15.7-5.1,22.2-10c1.7-2.2,4.5-1.6,6.9-1.2c-2.8,2.3-6.5,4.3-6.8,8.3
		c3.5,5.6,9.9,7.7,15.2,11c8.1,4.3,16.5,8.2,24.5,12.6c5.7,14.8,9.9,30.1,12.4,45.6c1.3,0,2.7-0.1,3.9-0.1c-1-2.6-2.1-5-3-7.5
		c0.3-1,0.9-2,0.5-3c-1.2-3.6-3.3-7.2-2.6-11.1c-3.3-9-7.2-17.8-8.6-27.3c2.1,0,4.2,0.1,6.3,0c-5.5,0-9.9-3.6-14.8-5.5
		c-6.4-3.4-13-6.3-19.6-9.2c-2.4-1.3-5.3-2.3-6.9-4.6c3.2-3.4,7.2-5.9,11.3-8.1c4.2-1.3,9.1,1.9,12.6-1.5c-1.3-0.2-3.8-0.6-5.1-0.7
		c2.4-0.2,4.8-0.1,7.1-0.6c-0.4,0.9-1,1.7-1.4,2.6c4.4,1.7,9.2,0.9,13.4-0.9c1.8-1.2,3.7,0.2,5.4,0.7c0.6-0.5,1.6-1.6,2.2-2.1
		c5.2,1.6,8.7,6.3,13.6,8.5c3.8,2.2,8.2,2.1,12.2,3.3c2.4,1.1,4.6,2.7,7,3.8c-1.5-1.6-3.1-2.9-4.6-4.4c8,2.9,14.3,9.1,22.1,12.3
		c10.8,6.6,19,16.1,28.1,24.7c4,4.4,8.5,8.6,10.5,14.4c0-1.4,0.1-2.9,0.1-4.3c1.3-0.3,2.5-0.7,3.8-1c-4.8-2.9-8.3-7.3-12.3-11.1
		c-1.7-2.8-4.9-4-6.6-6.6c-1.8-3-5.5-4.1-7.3-7.1c-4-4.3-9-7.7-13.6-11.2c-1.3-0.9-1.3-2.9-2.7-3.7c-5.6-3.1-11.4-5.7-17.2-8.3
		c-2.3-0.6-2.7-3.2-4.7-4.1c-3.6-2-7.4-3.4-10.8-5.6c1.1-0.3,2.1-0.5,3.3-0.8c0.9,0.9,1.9,1.7,2.9,2.5c4-3.5,4.7-9,7.4-13.2
		c0.2,3.1-0.4,6.2,0,9.1c0.3,2.4,1.5,4.8,0.2,7.1c0.6-0.1,1.8-0.2,2.4-0.3c3.9,3.9,8.8,7.7,14.6,7.1c6.8,0.1,12.7-5.6,14.5-12
		c0.1,0.7,0.3,1.9,0.4,2.5c3.2-3.3,7.7-5.1,11-8.4c2.4,1.3,4.3,3.2,5.7,5.5c-0.3-4.5-2.2-8.4-5.5-11.5c0.3-0.6,0.7-2,1-2.6
		c-0.8-0.9-1.4-1.8-2.2-2.6c0.6-0.1,1.6-0.2,2.1-0.3c0.9,2,1.6,4.3,3.7,5.5c-0.8-2.1-1.8-4.1-2.8-6.1c2.7-0.2,5.4-0.3,7.9-1.2
		c-1.1-1.3-2.7-2.1-4.1-2.8c0.4-0.6,1.2-1.8,1.7-2.3c-2.8,1.5-5.8,3.1-8.9,1.1c-0.3,0.1-0.9,0.6-1.2,0.8c0.3-0.6,0.8-1.8,1-2.4
		c-1.1-4.3-1.9-8.5-1.9-12.9c-0.3-7.5-6.5-13.7-13.7-15.2c-4.4-1-8.3,1.3-12.4,2.5c2-2.4,5.2-3.1,7.6-4.9c6.2,1.1,12.2,3.6,18.5,4.6
		c4,0.7,7.8,3.6,11.9,2.2c4.9-1.7,9.7-3.9,14.9-4.6c8.6-3.4,17.4-6.1,25.9-10c2.5-1.2,5.4-1.6,8.1-2.1c-0.7-1.3-1.2-2.5-1.8-3.9
		c-14.8,7.5-30.6,12.9-46.7,16.4c-6.7-2.2-13.7-3.2-20.6-4.5c-6-0.4-11.7-3-17.7-1.7c-4,0.4-7.5,2-11.4,2.5c-1.9-0.9-2.9-3-4.6-4.1
		c0.9,1.9,2.1,3.6,3.1,5.4c-3.3-0.6-6.6-1.3-9.6-3c-1.7-2.6-2.8-5.6-5.1-7.8c0.9,2.7,2.5,5.3,3.7,7.9c-2.1-1.4-3.9-3-6-4.3
		c0.7,1.2,1.4,2.3,2.1,3.5c-4.3-1.6-7.5-5.2-11.1-7.9c-7-10.8-19-16.5-29.3-23.6c1.5-0.7,3.2-1.2,4.6-0.3
		c8.7,3.8,16.9,8.6,25.3,12.9c2.7,1.2,5.6,5.4,8.6,2.9c5.1-5,10.3-10.1,16.1-14.5c1.2-0.8,2.2-1.9,3-3.2c1.9-3.3,5.2-5.5,7-9
		c4.4-5.5,7.8-11.7,12.2-17.3c-0.8-0.2-2.3-0.8-3.1-1.1c-6.8,13.4-16.4,25.3-27.6,35.3c-2.4,2-4.5,4.9-7.7,5.3
		c-12.5-4.7-23.4-12.9-36.6-15.7c-2.9-0.8-5.7,0.7-8.3,1.5c-5.7-3.3-11.4-6.6-17.3-9.4c-5.3-2.4-10.1-5.9-15.8-7.2
		c-17.4-9.4-33.7-21.1-53-26.5c-9.9-3-21.1-3.1-30.5,1.6C33.8,220.3,31.6,217.8,29.6,215.2z M68.6,355c-16.5,0.4-33.6,0.6-49.4-4.5
		c4.7-0.9,9.4,1,14,1.2c19.2,1.6,38.4-1.4,57.5-1.9c-3.5,1.6-7.4,1.8-10.7,3.6C76.4,355.3,72.4,354.9,68.6,355z M164.2,359.7
		c1.5-2.5,4.4-1.3,6.7-1.4c1.5-0.3,3-0.7,4.6-0.8C172.5,360.3,168,359.5,164.2,359.7z M117.5,350.6c-5,2-10.8-0.2-15.8,1.9
		c8.6,0,17.2-0.1,25.9-0.7c-1.6,1.2-3.4,2.1-5,3.3c-1.2-0.4-2.4-0.8-3.7-1.1c1,0.6,1.9,1.1,2.9,1.7c-3.4,1.8-7.3,0.6-11,0.8
		c-5.4-0.5-11,0-16.4-1.1c2.4-1.4,5.2-1.9,7.7-3c-3.5-0.6-6.5,1.7-9.6,2.9c-4.1-0.5-8.2-0.4-12.2-0.5c4.6-2.8,10.3-3.3,15.5-3.9
		C103.2,351.1,110.3,349.1,117.5,350.6z M90,342.3c1.5,0.1,3,0.4,4.6,0.7c-0.9,0.9-1.7,1.8-2.5,2.8c1.9-2.2,4.3-3.3,7.2-2.7
		c-0.6,1.2-1.1,2.3-1.6,3.4c1.5-1.2,2.6-3.8,4.8-2.9c4.6,1,9.3,1.8,14.1,2c-0.1,0.5-0.2,1.6-0.3,2.1c2.1,0,4.2,0,6.3,0.4
		c-4.9,0.9-9.9,0.6-14.8,0.6c0.9-0.5,2.7-1.6,3.6-2.2c-6.5,0.6-13,1.6-19.5,1.8c-20.5,0.7-41.1,4.6-61.6,2
		c-4.6-0.9-9.3-0.8-13.8-1.6c-4.8-2.3-9.8-5.3-12.5-10.1c6.9,0.5,13.6,2.9,20.5,2.9c21.8,0.6,43.5,1.5,65.2,0.2
		c-0.6,0.7-2,2.3-2.6,3.1C88.1,344,89.1,343.2,90,342.3z M90.6,340.7c-1,0.6-3.7,0.1-3.2-1.5C88.4,338.7,91,339.3,90.6,340.7z
		 M83,337c-1.2,1-2.5,2.1-3.9,3.1c1.9-1,3.8-1.8,5.8-2.1c0.3,0.6,0.8,2,1.1,2.7c-20.1,1.6-40.3,0.7-60.3,0.1
		c-7.6-0.1-14.8-2.3-22.3-2.7c-0.4-0.4-1.2-1.3-1.6-1.7c7.9-2,15.7-5.1,21.4-11.2c1.9-2,4.4-4.8,7.6-3.9c6.2,1.8,12.1,4,18.3,5.9
		c8.5,3.8,18,4.6,26.8,7.9C78.3,336,80.6,336.4,83,337z M251.2,349.3C254.6,350.4,248.8,351.9,251.2,349.3L251.2,349.3z
		 M153.1,294.4c-0.8,1-5.2,0.5-3.2-1.1C150.8,292.7,153.4,292.8,153.1,294.4z M192.1,295.8c-1.4,0-1.8-0.7-1-2
		C192.6,293.8,192.9,294.4,192.1,295.8z M110,257.5c-1.3-0.4-2.2-1.4-2.5-2.8c5.1,0.9,12.2,1,13.9,7.1
		C117.5,260.5,113.7,259,110,257.5z M131.4,265.9c1.7-0.1,3.2-0.1,4.9-0.1c-3.8-1.8-7.2-4.6-10.4-7.4c7.9,3.5,15.4,8.1,22.7,12.8
		c1.4,1,3.4,1.4,4.2,3c-4-1.1-8.3-2.2-11.5-4.9C138.7,266.9,134.7,267.2,131.4,265.9z M138.5,276c0.2,0.4,0.3,0.6,0.3,0.6
		S138.7,276.3,138.5,276z M146.3,274.8c-2.4-0.6-4.7,0.4-7,0.7c-2.1-2-3.7-4.3-5.3-6.7c3.5,0.4,6.2,2.6,9.1,4.2
		c4.4,0.5,9.5,1.4,11.8,5.8C151.2,279.4,148.7,277,146.3,274.8z M152.7,280.3c1.4-0.4,3.7,1.2,3.2,2.8
		C154.6,283.2,152.3,281.7,152.7,280.3z M172.6,286c-1.8-0.2-3.6-0.7-5.4-1c0.2,0.7,0.4,2,0.6,2.6c-1.1-0.8-2.2-1.7-3.2-2.5
		c0.6-0.1,1.8-0.2,2.4-0.3c-1.4-1.7-2.8-3.4-3.9-5.4C166.6,281,170.6,282.5,172.6,286z M173,279.4c1.9,2.7,4.9,3.7,7.8,4.6
		c-0.5,0.2-1.4,0.9-1.9,1.1c-5-2.6-9.7-5.6-14.7-8.3c-2.5-1.2-2-4.4-2.7-6.6C165.6,272.8,170,275.5,173,279.4z M150.8,263.7
		c2.9,1.5,1.7,5.2,2.5,7.8c-2.8-1.2-5.6-2.6-8.2-4.4c-6-4.2-12.9-6.9-18.6-11.7c-1.5-1.8-2.4-4.1-3.4-6.3
		C132.5,253.6,141.9,258.3,150.8,263.7z M122.2,249.1c0.9,2.4,2.4,4.6,3.4,6.9c-5.3-3.5-11.2-7.1-14.7-12.6
		C114.7,245.2,118.3,247.7,122.2,249.1z"/>
	<path class="st3" d="M183.8,438.5c0.5,5.1,2.3,10.5-0.3,15.5c1.9-2.1,4.6-1.9,6.9-0.7c-2.1-3.7-3.3-7.9-3-12.1
		C187,439.5,185.7,435.8,183.8,438.5z"/>
	<path class="st3" d="M211.9,356.2c0.3,1.6,0.9,1.7,2,0.4C213.6,355.1,213,354.9,211.9,356.2z"/>
	<path class="st3" d="M262,345.5C259.6,348.3,265.3,346.5,262,345.5L262,345.5z"/>
</g>
<g>
	<rect x="378.7" y="445.7" class="st2" width="19.1" height="19.1"/>
	<rect x="397.7" y="426.7" class="st2" width="19.1" height="19.1"/>
	<rect x="435.8" y="407.6" class="st2" width="19.1" height="19.1"/>
	<rect x="416.8" y="331.4" class="st2" width="19.1" height="76.2"/>
	<rect x="359.6" y="426.7" class="st2" width="19.1" height="19.1"/>
	<rect x="340.6" y="331.4" class="st2" width="19.1" height="95.3"/>
</g>
</svg>
