<svg id="Layer_1" data-name="Layer 1" xmlns="http://www.w3.org/2000/svg" viewBox="0 0 512 512"><defs><style>.cls-1{fill:#fff;}.cls-2{fill:#ff0081;}.cls-3{fill:#00f780;}.cls-4{fill:#dfff0b;}</style></defs><path d="M470.08,144.77,375,246l6.64,6.41,95.22-101.26"/><path d="M114.38,151.18l95.13,101.26,6.74-6.41L121.12,144.77"/><path class="cls-1" d="M362.58,93.42,189.37,120.69,232.14,396l173.2-27.27Z"/><path d="M256.9,194.65l-9.11,1.43,1.42,9.18,9.12-1.43Z"/><path d="M267.51,202.35l-9.12,1.44,1.43,9.17,9.11-1.43Z"/><path d="M278,210.16l-9.12,1.43,1.43,9.18,9.12-1.44Z"/><path d="M259.77,213l-9.12,1.44,1.43,9.18,9.12-1.44Z"/><path d="M275.17,191.77l-9.11,1.43,1.42,9.18,9.12-1.44Z"/><path d="M311.61,186l-9.11,1.43,1.42,9.18,9.12-1.43Z"/><path d="M322.15,193.81,313,195.25l1.43,9.18,9.11-1.44Z"/><path d="M332.74,201.52,323.63,203l1.42,9.18,9.12-1.44Z"/><path d="M314.48,204.4l-9.11,1.44,1.42,9.18,9.12-1.44Z"/><path d="M329.9,183.21l-9.12,1.44,1.43,9.18,9.11-1.44Z"/><path d="M337,229l-82,12.91,1.43,9.18,82-12.91Z"/><path d="M302.42,383.61,253.7,334.66l-71.13,71.53-17.72-17.84L158.3,395l24.27,24.43,71.13-71.63,42.17,42.46Z"/><path d="M339.51,367,290.89,416l71,71.53L344.22,505.4l6.55,6.6L375,487.57,303.9,416l42.16-42.46Z"/><path class="cls-2" d="M257.7,188a116.9,116.9,0,0,1,14-1.9c3.68-.14,7.37-.35,11.17-.67a97.17,97.17,0,0,0,15.05-2.81c2.77-.68,5.62-1.31,8.58-1.82l6.45-1,3.87-.42a57.55,57.55,0,0,1,9.36-.06c4.24.57,7.63,2.5,9.73,6a11.62,11.62,0,0,0,1.22,1.92,2.68,2.68,0,0,0,1.34.74,8.48,8.48,0,0,1,1,.32.57.57,0,0,1,.25.26,6.45,6.45,0,0,1,.28,1.72l.19,3a2,2,0,0,1,0,.35,1.24,1.24,0,0,1-.29.39,2.82,2.82,0,0,0-.63.51,1.91,1.91,0,0,0-.65,1.43c0,1.09-.1,2.08-.06,3.18-.25,1.75-.49,3.48-.67,5.29a43.29,43.29,0,0,1-2,5.71,12.68,12.68,0,0,1-4.75,3.85,17.33,17.33,0,0,1-5.83,2.28c-2.18.45-4.36.88-6.69,1.18l-3.45.34a22.23,22.23,0,0,1-8.56-2,28,28,0,0,1-9-8.09,64.73,64.73,0,0,1-4.81-7.76l-.63-.87c-1-1.25-3.61-1.52-5.12-.27a4.29,4.29,0,0,0-1.29,2.52l-.92,4.21a52.5,52.5,0,0,1-3.54,9.35,18.68,18.68,0,0,1-10.73,9.24c-2,.44-4.19.78-6.3,1.16a59.32,59.32,0,0,1-9.36.22,15.13,15.13,0,0,1-2.09-.33,17.64,17.64,0,0,1-3.44-1.17,10.09,10.09,0,0,1-3.13-3.23,22.27,22.27,0,0,1-2.78-4.88c-.36-.85-.73-1.7-1.14-2.49-.35-1.21-.79-2.3-1.18-3.51a1.51,1.51,0,0,0-.28-.39,12.31,12.31,0,0,0-1.61-1,2.17,2.17,0,0,1-.42-1l-.88-3.67a.91.91,0,0,1,.46-.83,5.06,5.06,0,0,0,1.65-1.26,8.77,8.77,0,0,1,.47-1.51,8.71,8.71,0,0,1,1.66-4.71c1.54-2.56,4.16-4.38,7.78-5.38A57.39,57.39,0,0,1,257.7,188Zm70.46-1-11,1.73-9.81,1.61a31.71,31.71,0,0,1-3.65.31,6.27,6.27,0,0,1-2.36.44l-2.15.49-.85,0-3.86.67a.77.77,0,0,0-.48.55,1.38,1.38,0,0,0,1.21,1.64l11.34-1.57,20.14-3.17c2.15-.32,4.28-.55,6.47-.89a1,1,0,0,0,.54-1c-.29-.47-.6-.89-.84-1.37-.06-.13-.33-.19-.49-.17C331,186.52,329.58,186.78,328.16,187Zm-83.85,12.32a.4.4,0,0,0-.31.23,6,6,0,0,0-.22,2c0,.14.25.17.37.16,2.81-.18,5.88-.61,8.78-1l2.61-.54,3.17-.41,1,0c5.34-.8,10.63-1.63,15.93-2.24,1.89-.43,4-.58,5.83-1l.69-.26a1.47,1.47,0,0,0,.69-1.57,1,1,0,0,0-1.07-.8,39.16,39.16,0,0,0-4.18.53l-.72.27-1.16,0a6.4,6.4,0,0,0-.91.15,28.63,28.63,0,0,0-4.84.84,7.83,7.83,0,0,0-1.75.27l-12.51,1.63a3.88,3.88,0,0,0-1.24.33Zm82.18-7a21.83,21.83,0,0,1-3.34.81,3,3,0,0,0-.89-.09l-15.14,2.43-2.8.34c-2.64.48-5.45.86-8.16,1.34a.55.55,0,0,0-.41.55,1.89,1.89,0,0,0,.43,1,.91.91,0,0,0,.78.45l11.36-1.52c1.26-.16,2.9-.5,4.3-.57a56.18,56.18,0,0,1,6.29-.95l1.77-.58a15.36,15.36,0,0,1,2.41-.28l.76,0c3.6-.53,7.16-1.16,10.57-1.82a.46.46,0,0,0,.3-.37,4.14,4.14,0,0,0-.26-1.57.59.59,0,0,0-.57-.43Zm-82,12.06a.6.6,0,0,0-.3.4L244,206c0,.53.37.81.68.78,5.52-.59,11-1.25,16.75-2.16.11,0,.42-.21.54-.23l4.08-.62c.39,0,.81.08,1.23,0,1.45-.14,2.82-.47,4.23-.69l2.28-.26c2.11-.39,4.36-.72,6.57-1.09a8.73,8.73,0,0,0,1.62-.37,1.88,1.88,0,0,0,.27-1.89c-.06-.17-.32-.22-.49-.19-12.08,1.7-24.22,3.46-36.15,4.92A3.43,3.43,0,0,0,244.5,204.45Zm88.6-8.08-11.47,2-1.09.33a20.62,20.62,0,0,0-2.36.43l-1.21,0-5.41.81c-1.34.27-3.11.34-4.52.74l-6.22.8c-.13,0-.51.16-.64.16a7.79,7.79,0,0,0-1.77.22.72.72,0,0,0-.5.68,3,3,0,0,0,1,1.37.93.93,0,0,0,.59.09c11-1.43,22.34-3.05,33.08-5,.12,0,.49,0,.61,0l1.57-.37c.15,0,.25-.3.3-.47a4.54,4.54,0,0,0,0-1.23.67.67,0,0,0-.63-.71Zm-88,12.9a.55.55,0,0,0-.42.55c0,.23.14.45.16.68a1.3,1.3,0,0,0,.81,1.19c11.43-1.31,23.42-2.94,34.86-5a1.17,1.17,0,0,0,.83-.67,2.35,2.35,0,0,0,.14-.45.84.84,0,0,0-.45-1,1.47,1.47,0,0,0-.36,0l-6.26.94c-1.86.26-3.72.42-5.58.79a17.37,17.37,0,0,0-2.45.4c-2.59.23-5.32.72-7.95,1Zm2.94-15.34a2.14,2.14,0,0,0-1.16.62,15.39,15.39,0,0,0-1.16,1.34.46.46,0,0,0,0,.49.36.36,0,0,0,.36.16l9.69-1.28,11.52-1.73,6.34-.79c2.35-.33,4.61-.71,6.9-1.11l.68-.28a.38.38,0,0,0,.16-.49,2.51,2.51,0,0,0-1.94-1.52c-.94.12-1.88.18-2.83.37-1.51.29-3.49.38-5.06.81-.13,0-.53,0-.65,0a26.1,26.1,0,0,1-2.95.58c-5.55.84-11.07,1.57-16.51,2.19C250.46,193.6,249.18,193.68,248.06,193.93Zm47.46-6.82a1,1,0,0,0-.32.13,3.78,3.78,0,0,0-.75,1,1.15,1.15,0,0,0-.22.9.37.37,0,0,0,.44.23c7.84-1,16-2.1,23.84-3.45l.85-.06,10.4-1.56a.59.59,0,0,0,.4-.64.64.64,0,0,0-.27-.41c-.48-.36-1.12-.54-1.63-.94a.76.76,0,0,0-.58-.14l-7.79,1.25Zm37.93,14.26C323,203.32,312,205,301.22,206.45a.82.82,0,0,0-.25.16.4.4,0,0,0-.13.47,3.36,3.36,0,0,0,1.13,1.23,1.76,1.76,0,0,0,1.13.21l14.28-2.13,11.53-1.9c1.82-.32,3.71-.64,5.45-1a3.34,3.34,0,0,0,.6-1.19.83.83,0,0,0,0-.62.61.61,0,0,0-.56-.43Zm-87,12.78a.29.29,0,0,0-.09.12.82.82,0,0,0,0,.65,3.1,3.1,0,0,0,.59,1,.72.72,0,0,0,.58.32c10.13-1.06,20.79-2.52,31.18-4.26a1.51,1.51,0,0,0,1.16-1.77.48.48,0,0,0-.54-.4c-10.85,1.55-21.72,3.2-32.16,4.23A1.66,1.66,0,0,0,246.42,214.15ZM332,206.43c-5.76,1.1-11.72,2.07-17.63,3-2.92.46-6,1-8.81,1.27a1.64,1.64,0,0,0-.63.19.4.4,0,0,0-.16.23c0,.06,0,.37.06.41a13.16,13.16,0,0,1,1.32.88,2,2,0,0,0,1,.25l7.25-1.08,8.35-1.38,9.52-1.64a1.62,1.62,0,0,0,.81-.5,2.63,2.63,0,0,0,.58-.84c.12-.31.19-.75-.15-1A5.06,5.06,0,0,0,332,206.43ZM249.3,218.49a.48.48,0,0,0-.4.35s0,.24,0,.24a2.25,2.25,0,0,0,2.22,1.37c7.81-.88,15.69-1.91,23.76-3a2,2,0,0,0,1.56-.44l.92-1.23a.52.52,0,0,0-.07-.65.65.65,0,0,0-.45-.15,29,29,0,0,0-3,.5c-2.82.28-5.83.85-8.74,1.23C259.74,217.38,254.49,218,249.3,218.49Zm7.51,3.89c-.05,0-.16.2-.18.26a.53.53,0,0,0,0,.19.81.81,0,0,0,.57.3,33.37,33.37,0,0,0,5.16-.11l3.27-.48c1-.21,2-.57,3.06-.81a1.22,1.22,0,0,0,.37-.24c.13-.1,0-.28,0-.39a.53.53,0,0,0-.57-.2C264.56,221.46,260.62,222,256.81,222.38Zm69.47-10.15c-3.59.68-7.24,1.37-11,1.9a.43.43,0,0,0-.36.3.26.26,0,0,0,.2.27,28.22,28.22,0,0,0,5.07-.11c.71-.22,1.63-.27,2.43-.46a42.08,42.08,0,0,0,4.16-1.18,1.05,1.05,0,0,0,.56-.32.3.3,0,0,0-.06-.44A1.56,1.56,0,0,0,326.28,212.23Z"/><rect x="78.73" y="64.33" width="9.06" height="36.23" transform="matrix(0.97, -0.23, 0.23, 0.97, -16.9, 21.65)"/><rect x="95.98" y="97.45" width="9.06" height="36.23" transform="translate(-24.14 26.57) rotate(-13.46)"/><rect x="125.34" y="129.15" width="9.06" height="140.38" transform="translate(-42.84 35.71) rotate(-13.46)"/><rect x="81.9" y="91.13" width="9.06" height="9.06" transform="matrix(0.97, -0.23, 0.23, 0.97, -19.89, 22.75)"/><rect class="cls-2" x="62.42" y="48.14" width="18.12" height="9.06" transform="translate(-10.3 18.09) rotate(-13.46)"/><rect class="cls-2" x="58.33" y="31.57" width="9.06" height="9.06" transform="translate(-6.68 15.62) rotate(-13.46)"/><rect class="cls-2" x="73.46" y="55.89" width="9.06" height="9.06" transform="translate(-11.92 19.82) rotate(-13.46)"/><rect class="cls-2" x="60.31" y="39.33" width="18.12" height="9.06" transform="translate(-8.3 17.35) rotate(-13.46)"/><rect class="cls-3" x="36.49" y="18.17" width="9.06" height="9.06" transform="translate(-4.16 10.17) rotate(-13.46)"/><rect class="cls-4" x="69.62" y="0.93" width="9.06" height="9.06" transform="translate(0.77 17.41) rotate(-13.46)"/><rect class="cls-3" x="84.75" y="25.25" width="9.06" height="9.06" transform="translate(-4.48 21.6) rotate(-13.46)"/><rect class="cls-4" x="51.25" y="79.83" width="9.06" height="9.06" transform="translate(-18.11 15.3) rotate(-13.46)"/><rect class="cls-3" x="93.19" y="60.48" width="9.06" height="9.06" transform="translate(-12.45 24.53) rotate(-13.46)"/><rect class="cls-4" x="36.12" y="55.52" width="9.06" height="9.06" transform="translate(-12.86 11.11) rotate(-13.46)"/></svg>